<svg width="24" height="24" viewBox="0 0 24 24" fill="none" xmlns="http://www.w3.org/2000/svg">
<g id="24*24 icon">
<path id="B" d="M7 18.4727V5H11.4545C12.3758 5 13.2 5.10303 13.9273 5.30909C14.6667 5.51515 15.2485 5.86061 15.6727 6.34545C16.1091 6.8303 16.3273 7.49091 16.3273 8.32727C16.3273 8.73939 16.2485 9.14546 16.0909 9.54546C15.9455 9.93333 15.7394 10.2788 15.4727 10.5818C15.2061 10.8849 14.8788 11.1091 14.4909 11.2545V11.3273C15.2182 11.497 15.8182 11.8485 16.2909 12.3818C16.7636 12.903 17 13.6121 17 14.5091C17 15.4061 16.7697 16.1515 16.3091 16.7455C15.8606 17.3273 15.2424 17.7636 14.4545 18.0545C13.6788 18.3333 12.7939 18.4727 11.8 18.4727H7ZM9.69091 10.4909H11.2727C12.1212 10.4909 12.7394 10.3333 13.1273 10.0182C13.5152 9.69091 13.7091 9.26061 13.7091 8.72727C13.7091 8.13333 13.5091 7.70909 13.1091 7.45455C12.7091 7.2 12.103 7.07273 11.2909 7.07273H9.69091V10.4909ZM9.69091 16.4H11.5636C12.4848 16.4 13.1818 16.2364 13.6545 15.9091C14.1394 15.5697 14.3818 15.0485 14.3818 14.3455C14.3818 13.6909 14.1394 13.2182 13.6545 12.9273C13.1818 12.6242 12.4848 12.4727 11.5636 12.4727H9.69091V16.4Z" fill="black"/>
</g>
</svg>
