<svg width="16" height="12" viewBox="0 0 16 12" fill="none" xmlns="http://www.w3.org/2000/svg">
<g id="Vector">
<path id="Vector-10" d="M9.73544 1.14709C9.81667 0.740917 9.55326 0.345798 9.14709 0.264565C8.74092 0.183331 8.3458 0.446743 8.26456 0.852913L9.73544 1.14709ZM6.26456 10.8529C6.18333 11.2591 6.44674 11.6542 6.85291 11.7354C7.25908 11.8167 7.6542 11.5533 7.73544 11.1471L6.26456 10.8529ZM3.47342 9.49205C3.76837 9.78288 4.24323 9.77953 4.53406 9.48458C4.82488 9.18963 4.82153 8.71477 4.52658 8.42394L3.47342 9.49205ZM1 6L0.473421 5.46594C0.330476 5.60689 0.25 5.79925 0.25 6C0.25 6.20075 0.330476 6.39311 0.473421 6.53406L1 6ZM4.52658 3.57606C4.82153 3.28523 4.82488 2.81037 4.53406 2.51542C4.24323 2.22047 3.76837 2.21712 3.47342 2.50794L4.52658 3.57606ZM11.4773 8.37819C11.1802 8.6669 11.1735 9.14173 11.4622 9.43875C11.7509 9.73577 12.2257 9.74251 12.5227 9.45381L11.4773 8.37819ZM15 6L15.5227 6.53781C15.6667 6.39788 15.7486 6.20608 15.75 6.00532C15.7514 5.80457 15.6723 5.61163 15.5303 5.46967L15 6ZM12.5303 2.46967C12.2374 2.17678 11.7626 2.17678 11.4697 2.46967C11.1768 2.76256 11.1768 3.23744 11.4697 3.53033L12.5303 2.46967ZM9 1L8.26456 0.852913L6.26456 10.8529L7 11L7.73544 11.1471L9.73544 1.14709L9 1ZM4 8.958L4.52658 8.42394L1.52658 5.46594L1 6L0.473421 6.53406L3.47342 9.49205L4 8.958ZM1 6L1.52658 6.53406L4.52658 3.57606L4 3.042L3.47342 2.50794L0.473421 5.46594L1 6ZM12 8.916L12.5227 9.45381L15.5227 6.53781L15 6L14.4773 5.46219L11.4773 8.37819L12 8.916ZM15 6L15.5303 5.46967L12.5303 2.46967L12 3L11.4697 3.53033L14.4697 6.53033L15 6Z" fill="#0B0B0B"/>
</g>
</svg>
