<svg width="24" height="24" viewBox="0 0 24 24" fill="none" xmlns="http://www.w3.org/2000/svg">
<g id="24*24 icon">
<path id="Vector" d="M11.3855 14.9788V12.5872H7.47329V15.3796L8.27508 15.4211V16.5961H4.92969V15.4764L5.38588 15.4349C5.65314 15.4073 5.78677 15.2783 5.78677 15.0479V8.61981L4.99881 8.57834V7.40332H8.3442V8.52305L7.88801 8.56452C7.74056 8.58295 7.63457 8.62442 7.57006 8.68893C7.50555 8.74423 7.47329 8.85482 7.47329 9.0207V11.1634H11.3855V8.61981L10.5975 8.57834V7.40332H13.9429V8.52305L13.4867 8.56452C13.2194 8.59217 13.0858 8.73962 13.0858 9.00688V15.3796L13.8738 15.4211V16.5961H10.5284V15.4764L10.9846 15.4349C11.1228 15.4165 11.2242 15.3796 11.2887 15.3243C11.3532 15.2598 11.3855 15.1446 11.3855 14.9788Z" fill="black"/>
<path id="Vector_2" d="M16.6725 15.1613V10.9358L15.4145 11.5809L14.9414 10.753L16.8983 9.53809H17.952V15.4946L19.0702 15.5484V16.4623H15.3285V15.5806L16.3607 15.5161C16.4682 15.5089 16.547 15.4803 16.5972 15.4301C16.6474 15.3799 16.6725 15.2903 16.6725 15.1613Z" fill="black"/>
</g>
</svg>
