<svg width="24" height="24" viewBox="0 0 24 24" fill="none" xmlns="http://www.w3.org/2000/svg">
<g id="24*24 icon">
<path id="Vector" d="M11.1892 14.9025V12.572H7.37704V15.2931L8.15834 15.3335V16.4785H4.89844V15.3874L5.34297 15.347C5.6034 15.3201 5.73362 15.1943 5.73362 14.9698V8.70593L4.96579 8.66552V7.52051H8.2257V8.61164L7.78116 8.65205C7.63748 8.67001 7.5342 8.71042 7.47134 8.77329C7.40847 8.82717 7.37704 8.93493 7.37704 9.09658V11.1845H11.1892V8.70593L10.4214 8.66552V7.52051H13.6813V8.61164L13.2368 8.65205C12.9764 8.67899 12.8461 8.82268 12.8461 9.08311V15.2931L13.614 15.3335V16.4785H10.3541V15.3874L10.7986 15.347C10.9333 15.329 11.0321 15.2931 11.095 15.2392C11.1578 15.1764 11.1892 15.0641 11.1892 14.9025Z" fill="black"/>
<path id="Vector_2" d="M16.0103 12.4658H17.0894C17.5085 12.2003 17.7181 11.8267 17.7181 11.3447C17.7181 10.8069 17.4142 10.538 16.8066 10.538C16.583 10.538 16.3945 10.5624 16.2408 10.6113C16.0941 10.6602 16.0068 10.7126 15.9789 10.7685C15.9579 10.8174 15.9474 10.8977 15.9474 11.0094V11.7638L14.8788 11.6905V10.0141C15.5772 9.66485 16.2687 9.49023 16.9532 9.49023C17.6377 9.49023 18.1476 9.64739 18.4829 9.96171C18.8252 10.269 18.9963 10.6707 18.9963 11.1666C18.9963 11.5298 18.909 11.8616 18.7344 12.1619C18.5597 12.4553 18.3292 12.6928 18.0429 12.8744C18.7483 13.0979 19.1011 13.5938 19.1011 14.3622C19.1011 15.0048 18.902 15.5251 18.5039 15.9233C18.1057 16.3144 17.5155 16.51 16.7332 16.51C16.3491 16.51 15.9649 16.4576 15.5807 16.3528C15.2035 16.2481 14.9032 16.1258 14.6797 15.9861L15.0464 14.9908C15.5982 15.2981 16.1465 15.4518 16.6913 15.4518C17.4527 15.4518 17.8333 15.113 17.8333 14.4355C17.8333 14.0862 17.7181 13.8313 17.4876 13.6707C17.2571 13.503 16.8659 13.4192 16.3141 13.4192H15.916L16.0103 12.4658Z" fill="black"/>
</g>
</svg>
