<svg width="24" height="24" viewBox="0 0 24 24" fill="none" xmlns="http://www.w3.org/2000/svg">
<g id="24*24 icon">
<path id="Vector" d="M11.3103 14.9122V12.5747H7.48628V15.3041L8.27 15.3446V16.4931H5V15.3987L5.44591 15.3581C5.70715 15.3311 5.83777 15.205 5.83777 14.9798V8.69685L5.06756 8.65631V7.50781H8.33757V8.60226L7.89166 8.6428C7.74752 8.66081 7.64393 8.70135 7.58087 8.7644C7.51781 8.81845 7.48628 8.92654 7.48628 9.08869V11.183H11.3103V8.69685L10.5401 8.65631V7.50781H13.8101V8.60226L13.3642 8.6428C13.1029 8.66982 12.9723 8.81395 12.9723 9.07517V15.3041L13.7425 15.3446V16.4931H10.4725V15.3987L10.9184 15.3581C11.0536 15.3401 11.1527 15.3041 11.2157 15.25C11.2788 15.187 11.3103 15.0744 11.3103 14.9122Z" fill="black"/>
<path id="Vector_2" d="M14.8086 16.4523V15.6431L16.9 13.0054C17.1172 12.7251 17.2608 12.5394 17.3309 12.4484C17.401 12.3503 17.4675 12.2172 17.5306 12.049C17.6007 11.8739 17.6357 11.6672 17.6357 11.429C17.6357 11.1838 17.5516 10.9841 17.3835 10.83C17.2223 10.6758 17.0121 10.5988 16.7529 10.5988C16.5006 10.5988 16.308 10.6198 16.1748 10.6618C16.0487 10.7039 15.9717 10.7529 15.9436 10.8089C15.9226 10.858 15.9121 10.9386 15.9121 11.0507V11.7968L14.8401 11.7232V10.0418C15.4987 9.71249 16.1748 9.54785 16.8685 9.54785C17.5621 9.54785 18.0841 9.7195 18.4344 10.0628C18.7847 10.3991 18.9599 10.8615 18.9599 11.45C18.9599 12.0385 18.6621 12.6936 18.0666 13.4152L16.3745 15.4119H19.0019V16.4523H14.8086Z" fill="black"/>
</g>
</svg>
