<svg width="24" height="24" viewBox="0 0 24 24" fill="none" xmlns="http://www.w3.org/2000/svg">
<g id="24*24 icon">
<path id="Vector" d="M10.9733 14.8107V12.5545H7.2825V15.1889L8.03892 15.228V16.3365H4.88281V15.2802L5.31319 15.241C5.56533 15.215 5.6914 15.0932 5.6914 14.8759V8.8117L4.94802 8.77257V7.66406H8.10413V8.72041L7.67375 8.75953C7.53464 8.77692 7.43465 8.81604 7.37379 8.8769C7.31293 8.92907 7.2825 9.0334 7.2825 9.18989V11.2113H10.9733V8.8117L10.2299 8.77257V7.66406H13.386V8.72041L12.9557 8.75953C12.7035 8.78561 12.5775 8.92472 12.5775 9.17685V15.1889L13.3208 15.228V16.3365H10.1647V15.2802L10.5951 15.241C10.7255 15.2237 10.8212 15.1889 10.882 15.1367C10.9429 15.0759 10.9733 14.9672 10.9733 14.8107Z" fill="black"/>
<path id="Vector_2" d="M17.5047 11.6564H18.2148V13.5532H19.1175V14.5168H18.2046V15.4297L19.0465 15.4804V16.3426H16.0643V15.5108L16.6932 15.4601C16.8893 15.4466 16.9874 15.3519 16.9874 15.1761V14.5067H14.3906V13.6648L16.2976 9.6582L17.2613 10.1349L15.6281 13.5532H17.0787V13.0055L17.5047 11.6564Z" fill="black"/>
</g>
</svg>
