<svg width="16" height="16" viewBox="0 0 16 16" fill="none" xmlns="http://www.w3.org/2000/svg">
<g id="Vector">
<path id="Vector-37" d="M11.5 9L14.5 12V4.5L11.5 1.5H5L1.5 4V11.5L5.5 7L9.5 11L11.5 9Z" fill="#0B0B0B" stroke="black" stroke-width="1.5" stroke-linecap="round" stroke-linejoin="round"/>
<path id="Vector-37_2" d="M14.5 12L12.2071 9.70711C11.8166 9.31658 11.1834 9.31658 10.7929 9.70711L9.5 11L6.24992 7.74992C5.84307 7.34307 5.17766 7.36263 4.79541 7.79267L1.5 11.5" stroke="white" stroke-width="1.5" stroke-linecap="round" stroke-linejoin="round"/>
<path id="Rectangle_1466" d="M5 1.75C5.41421 1.75 5.75 1.41421 5.75 1C5.75 0.585786 5.41421 0.25 5 0.25V1.75ZM0.25 7C0.25 7.41421 0.585786 7.75 1 7.75C1.41421 7.75 1.75 7.41421 1.75 7H0.25ZM5 0.25C4.58579 0.25 4.25 0.585786 4.25 1C4.25 1.41421 4.58579 1.75 5 1.75V0.25ZM14.25 7C14.25 7.41421 14.5858 7.75 15 7.75C15.4142 7.75 15.75 7.41421 15.75 7H14.25ZM1.75 7C1.75 6.58579 1.41421 6.25 1 6.25C0.585786 6.25 0.25 6.58579 0.25 7H1.75ZM15.75 7C15.75 6.58579 15.4142 6.25 15 6.25C14.5858 6.25 14.25 6.58579 14.25 7H15.75ZM5 1V0.25C2.37665 0.25 0.25 2.37665 0.25 5H1H1.75C1.75 3.20507 3.20507 1.75 5 1.75V1ZM1 5H0.25V7H1H1.75V5H1ZM5 1V1.75H11V1V0.25H5V1ZM11 1V1.75C12.7949 1.75 14.25 3.20507 14.25 5H15H15.75C15.75 2.37665 13.6234 0.25 11 0.25V1ZM15 5H14.25V7H15H15.75V5H15ZM1 7H0.25V11H1H1.75V7H1ZM1 11H0.25C0.25 13.6234 2.37665 15.75 5 15.75V15V14.25C3.20507 14.25 1.75 12.7949 1.75 11H1ZM5 15V15.75H11V15V14.25H5V15ZM11 15V15.75C13.6234 15.75 15.75 13.6234 15.75 11H15H14.25C14.25 12.7949 12.7949 14.25 11 14.25V15ZM15 11H15.75V7H15H14.25V11H15Z" fill="#0B0B0B"/>
</g>
</svg>
