<svg width="48" height="48" viewBox="0 0 48 48" fill="none" xmlns="http://www.w3.org/2000/svg">
<circle cx="24" cy="24" r="24" fill="white"/>
<path d="M28 28.25C28 30.045 26.545 31.5 24.75 31.5H17.25C15.455 31.5 14 30.045 14 28.25V19.75C14 17.955 15.455 16.5 17.25 16.5H24.75C26.545 16.5 28 17.955 28 19.75V28.25ZM33.6195 18.5975C33.3845 18.4645 33.096 18.468 32.864 18.607L29 20.9255V27.0745L32.8645 29.393C32.983 29.4645 33.116 29.5 33.25 29.5C33.3775 29.5 33.505 29.4675 33.6195 29.4025C33.8545 29.2695 34 29.0205 34 28.75V19.25C34 18.9795 33.8545 18.7305 33.6195 18.5975Z" fill="#83898E"/>
</svg>
