<svg width="48" height="48" viewBox="0 0 48 48" fill="none" xmlns="http://www.w3.org/2000/svg">
<circle cx="24" cy="24" r="24" fill="white"/>
<path d="M24.0001 13C21.5237 13 19.5001 15.0236 19.5001 17.5V25C19.5001 27.4764 21.5237 29.5 24.0001 29.5C26.4764 29.5 28.5001 27.4764 28.5001 25V17.5C28.5001 15.0236 26.4764 13 24.0001 13ZM24.0001 14.5C25.6657 14.5 27.0001 15.8344 27.0001 17.5V25C27.0001 26.6656 25.6657 28 24.0001 28C22.3344 28 21.0001 26.6656 21.0001 25V17.5C21.0001 15.8344 22.3344 14.5 24.0001 14.5ZM17.2384 22.4893C17.0396 22.4924 16.8502 22.5742 16.7118 22.7169C16.5734 22.8595 16.4972 23.0513 16.5001 23.25V25C16.5001 28.8803 19.4671 32.0841 23.2501 32.4619V34.75C23.2487 34.8494 23.267 34.9481 23.3041 35.0403C23.3412 35.1325 23.3962 35.2164 23.466 35.2872C23.5357 35.358 23.6189 35.4142 23.7106 35.4526C23.8023 35.4909 23.9007 35.5107 24.0001 35.5107C24.0995 35.5107 24.1979 35.4909 24.2896 35.4526C24.3813 35.4142 24.4644 35.358 24.5342 35.2872C24.604 35.2164 24.659 35.1325 24.6961 35.0403C24.7331 34.9481 24.7515 34.8494 24.7501 34.75V32.4619C28.5331 32.0841 31.5001 28.8803 31.5001 25V23.25C31.5015 23.1506 31.4831 23.0519 31.4461 22.9597C31.409 22.8675 31.354 22.7836 31.2842 22.7128C31.2144 22.642 31.1313 22.5858 31.0396 22.5474C30.9479 22.5091 30.8495 22.4893 30.7501 22.4893C30.6507 22.4893 30.5523 22.5091 30.4606 22.5474C30.3689 22.5858 30.2857 22.642 30.216 22.7128C30.1462 22.7836 30.0912 22.8675 30.0541 22.9597C30.017 23.0519 29.9987 23.1506 30.0001 23.25V25C30.0001 28.2927 27.3699 30.9474 24.0889 30.9951C24.0556 30.9909 24.022 30.989 23.9884 30.9893C23.9609 30.9897 23.9335 30.9917 23.9063 30.9951C20.6276 30.9448 18.0001 28.291 18.0001 25V23.25C18.0015 23.1496 17.9828 23.05 17.945 22.957C17.9072 22.8639 17.8512 22.7795 17.7801 22.7085C17.7091 22.6376 17.6245 22.5816 17.5315 22.544C17.4384 22.5063 17.3387 22.4877 17.2384 22.4893Z" fill="#83898E"/>
</svg>
