<svg width="501" height="1068" viewBox="0 0 501 1068" fill="none" xmlns="http://www.w3.org/2000/svg">
<g filter="url(#filter0_f_194_27794)">
<path d="M66.248 786.424C27.0902 799.147 -15.0903 799.147 -54.248 786.424L-90.1029 774.774C-129.261 762.051 -163.385 737.258 -187.586 703.949L-209.746 673.449C-233.947 640.139 -246.981 600.023 -246.981 558.85L-246.981 521.15C-246.981 479.977 -233.947 439.861 -209.746 406.552L-187.586 376.052C-163.385 342.742 -129.261 317.949 -90.1029 305.226L-54.248 293.576C-15.0903 280.853 27.0902 280.853 66.248 293.576L102.103 305.226C141.261 317.949 175.385 342.742 199.586 376.052L221.746 406.552C245.947 439.861 258.981 479.977 258.981 521.15L258.981 558.85C258.981 600.023 245.947 640.139 221.746 673.449L199.586 703.949C175.385 737.258 141.261 762.051 102.103 774.774L66.248 786.424Z" fill="black"/>
</g>
<defs>
<filter id="filter0_f_194_27794" x="-566.98" y="-35.9663" width="1145.96" height="1151.93" filterUnits="userSpaceOnUse" color-interpolation-filters="sRGB">
<feFlood flood-opacity="0" result="BackgroundImageFix"/>
<feBlend mode="normal" in="SourceGraphic" in2="BackgroundImageFix" result="shape"/>
<feGaussianBlur stdDeviation="160" result="effect1_foregroundBlur_194_27794"/>
</filter>
</defs>
</svg>
