<svg width="24" height="24" viewBox="0 0 24 24" fill="none" xmlns="http://www.w3.org/2000/svg">
<path fill-rule="evenodd" clip-rule="evenodd" d="M17.9893 9.06962L16.9624 10.0965L18.903 12.0369L19.9299 11.01C19.8977 10.9003 19.855 10.7777 19.8017 10.6496C19.6523 10.2904 19.452 9.96293 19.2443 9.75525C19.0366 9.54756 18.7091 9.34721 18.3499 9.19787C18.2217 9.14457 18.0991 9.10181 17.9893 9.06962ZM7.99982 20.9998C6.99982 20.9998 6.99982 20.9993 6.99982 20.9993L6.99982 20.9972L6.99984 20.9934L6.9999 20.9821L7.00037 20.9453C7.00087 20.9146 7.00184 20.8717 7.00369 20.8179C7.0074 20.7103 7.01468 20.5585 7.02898 20.3726C7.05747 20.0022 7.11437 19.4891 7.22891 18.9163C7.45032 17.8091 7.91885 16.3111 8.97015 15.2598L17.2273 7.00328L17.6366 6.99986C18.0756 6.99619 18.6311 7.14877 19.1178 7.35116C19.6241 7.56171 20.205 7.88755 20.6585 8.34098C21.1119 8.79443 21.4378 9.37525 21.6484 9.88158C21.8508 10.3683 22.0034 10.9238 21.9997 11.3628L21.9963 11.7721L13.7391 20.0287C12.6875 21.0802 11.1899 21.549 10.0828 21.7706C9.5101 21.8852 8.99717 21.9421 8.62683 21.9706C8.44098 21.985 8.28924 21.9922 8.1817 21.9959C8.12788 21.9978 8.085 21.9988 8.0543 21.9993L8.0175 21.9997L8.00621 21.9998L8.0024 21.9998L8.00095 21.9998C8.00095 21.9998 7.99982 21.9998 7.99982 20.9998ZM7.99982 20.9998V21.9998H6.99982V20.9993L7.99982 20.9998Z" fill="white"/>
<path fill-rule="evenodd" clip-rule="evenodd" d="M5.58425 5.58425L6.55114 2.68359H8.4485L9.41539 5.58425L12.316 6.55114V8.4485L9.41539 9.41539L8.4485 12.316H6.55114L5.58425 9.41539L2.68359 8.4485V6.55114L5.58425 5.58425Z" fill="white"/>
</svg>
