<svg width="18" height="18" viewBox="0 0 18 18" fill="none" xmlns="http://www.w3.org/2000/svg">
<path d="M6.25312 4.24626C6.33267 4.16823 6.42732 4.10629 6.53159 4.06403C6.63587 4.02176 6.74772 4 6.86069 4C6.97365 4 7.0855 4.02176 7.18978 4.06403C7.29406 4.10629 7.3887 4.16823 7.46825 4.24626L11.7469 8.4089C11.8271 8.4863 11.8907 8.57838 11.9342 8.67983C11.9776 8.78128 12 8.8901 12 9C12 9.1099 11.9776 9.21872 11.9342 9.32017C11.8907 9.42162 11.8271 9.5137 11.7469 9.59109L7.46825 13.7537C7.3887 13.8318 7.29406 13.8937 7.18978 13.936C7.0855 13.9782 6.97365 14 6.86069 14C6.74772 14 6.63587 13.9782 6.53159 13.936C6.42732 13.8937 6.33267 13.8318 6.25312 13.7537C6.17292 13.6763 6.10926 13.5843 6.06581 13.4828C6.02237 13.3814 6 13.2725 6 13.1626C6 13.0527 6.02237 12.9439 6.06581 12.8425C6.10926 12.741 6.17292 12.6489 6.25312 12.5715L9.93274 9L6.25312 5.42845C6.17292 5.35106 6.10926 5.25898 6.06581 5.15753C6.02237 5.05608 6 4.94726 6 4.83736C6 4.72745 6.02237 4.61864 6.06581 4.51718C6.10926 4.41573 6.17292 4.32365 6.25312 4.24626Z" fill="current"/>
</svg>
