<svg width="11" height="19" viewBox="0 0 11 19" fill="none" xmlns="http://www.w3.org/2000/svg">
<g id="Vector">
<path id="Vector_2" d="M10.5359 18.5321C10.3901 18.6804 10.2166 18.798 10.0254 18.8783C9.83423 18.9587 9.62918 19 9.42207 19C9.21497 19 9.00992 18.9587 8.81874 18.8783C8.62756 18.798 8.45405 18.6804 8.30821 18.5321L0.464058 10.6231C0.317014 10.476 0.200302 10.3011 0.120655 10.1083C0.0410072 9.91557 8.12261e-07 9.70882 8.30516e-07 9.5C8.48772e-07 9.29118 0.0410073 9.08443 0.120655 8.89168C0.200302 8.69892 0.317014 8.52397 0.464058 8.37692L8.30821 0.467898C8.45405 0.319638 8.62756 0.201957 8.81874 0.121651C9.00992 0.0413445 9.21497 8.05598e-07 9.42208 8.23704e-07C9.62918 8.41809e-07 9.83423 0.0413445 10.0254 0.121652C10.2166 0.201957 10.3901 0.319638 10.5359 0.467898C10.683 0.614947 10.7997 0.789893 10.8793 0.982652C10.959 1.17541 11 1.38216 11 1.59098C11 1.79979 10.959 2.00655 10.8793 2.1993C10.7997 2.39206 10.683 2.56701 10.5359 2.71406L3.78998 9.5L10.5359 16.2859C10.683 16.433 10.7997 16.6079 10.8793 16.8007C10.959 16.9935 11 17.2002 11 17.409C11 17.6178 10.959 17.8246 10.8793 18.0173C10.7997 18.2101 10.683 18.3851 10.5359 18.5321Z" fill="#83898E"/>
</g>
</svg>
