<svg width="24" height="24" viewBox="0 0 24 24" fill="none" xmlns="http://www.w3.org/2000/svg">
<path d="M21.5075 7.46406C21.6635 7.6099 21.7874 7.78341 21.8719 7.97459C21.9565 8.16577 22 8.37082 22 8.57793C22 8.78503 21.9565 8.99008 21.8719 9.18126C21.7874 9.37244 21.6635 9.54595 21.5075 9.69179L13.1822 17.5359C13.0274 17.683 12.8432 17.7997 12.6403 17.8793C12.4374 17.959 12.2198 18 12 18C11.7802 18 11.5626 17.959 11.3597 17.8793C11.1568 17.7997 10.9726 17.683 10.8178 17.5359L2.49252 9.69179C2.33646 9.54595 2.21259 9.37244 2.12805 9.18126C2.04352 8.99008 2 8.78503 2 8.57793C2 8.37082 2.04352 8.16577 2.12805 7.97459C2.21259 7.78341 2.33646 7.6099 2.49252 7.46406C2.64731 7.31701 2.83147 7.2003 3.03437 7.12065C3.23727 7.04101 3.45491 7 3.67471 7C3.89452 7 4.11215 7.04101 4.31506 7.12065C4.51796 7.2003 4.70211 7.31701 4.8569 7.46406L12 14.21L19.1431 7.46406C19.2979 7.31701 19.482 7.2003 19.6849 7.12065C19.8878 7.04101 20.1055 7 20.3253 7C20.5451 7 20.7627 7.04101 20.9656 7.12065C21.1685 7.2003 21.3527 7.31701 21.5075 7.46406Z" fill="current"/>
</svg>
