<svg width="18" height="18" viewBox="0 0 18 18" fill="none" xmlns="http://www.w3.org/2000/svg">
<path d="M13.7537 6.25312C13.8318 6.33267 13.8937 6.42732 13.936 6.53159C13.9782 6.63587 14 6.74772 14 6.86069C14 6.97365 13.9782 7.0855 13.936 7.18978C13.8937 7.29406 13.8318 7.3887 13.7537 7.46825L9.5911 11.7469C9.5137 11.8271 9.42162 11.8907 9.32017 11.9342C9.21872 11.9776 9.1099 12 9 12C8.8901 12 8.78128 11.9776 8.67983 11.9342C8.57838 11.8907 8.4863 11.8271 8.40891 11.7469L4.24626 7.46825C4.16823 7.3887 4.10629 7.29406 4.06403 7.18978C4.02176 7.0855 4 6.97365 4 6.86069C4 6.74772 4.02176 6.63587 4.06403 6.5316C4.10629 6.42732 4.16823 6.33267 4.24626 6.25312C4.32366 6.17292 4.41573 6.10926 4.51718 6.06581C4.61864 6.02237 4.72745 6 4.83736 6C4.94726 6 5.05608 6.02237 5.15753 6.06581C5.25898 6.10926 5.35106 6.17292 5.42845 6.25312L9 9.93274L12.5715 6.25312C12.6489 6.17292 12.741 6.10926 12.8425 6.06581C12.9439 6.02237 13.0527 6 13.1626 6C13.2725 6 13.3814 6.02237 13.4828 6.06581C13.5843 6.10926 13.6763 6.17292 13.7537 6.25312Z" fill="current"/>
</svg>
