<svg width="14" height="19" viewBox="0 0 14 19" fill="none" xmlns="http://www.w3.org/2000/svg">
<g id="Vector">
<path id="Rectangle_18260" fill-rule="evenodd" clip-rule="evenodd" d="M13.0071 16.8681V3.04914C13.0116 2.51419 12.8034 1.99936 12.4283 1.6179C12.0533 1.23645 11.542 1.01963 11.0071 1.01514H3.00705C2.4721 1.01963 1.96085 1.23645 1.58577 1.6179C1.2107 1.99936 1.00252 2.51419 1.00705 3.04914V16.8681C0.959507 17.2671 1.15541 17.6558 1.50441 17.855C1.85342 18.0541 2.28773 18.0251 2.60705 17.7811L6.40705 14.5001C6.74961 14.191 7.27049 14.191 7.61305 14.5001L11.4071 17.7821C11.7265 18.0262 12.1611 18.0553 12.5102 17.8559C12.8593 17.6564 13.0551 17.2673 13.0071 16.8681Z" fill="#0B0B0B" stroke="#0B0B0B" stroke-linecap="round" stroke-linejoin="round"/>
</g>
</svg>
