<svg width="17" height="18" viewBox="0 0 17 18" fill="none" xmlns="http://www.w3.org/2000/svg">
<g id="Vector">
<g id="Vector-5">
<path fill-rule="evenodd" clip-rule="evenodd" d="M5.75 3C3.54086 3 1.75 4.79086 1.75 7V13C1.75 15.2091 3.54086 17 5.75 17H11.75C13.9591 17 15.75 15.2091 15.75 13V7C15.75 4.79086 13.9591 3 11.75 3M5.75 3H11.75H5.75ZM5.75 3V4V3ZM5.75 3V1V3ZM11.75 3V4V3ZM11.75 3V1V3Z" fill="#0B0B0B"/>
<path d="M5.75 4C6.30229 4 6.75 3.55228 6.75 3C6.75 2.44772 6.30229 2 5.75 2V4ZM11.75 2C11.1977 2 10.75 2.44772 10.75 3C10.75 3.55228 11.1977 4 11.75 4V2ZM5.75 2C5.19771 2 4.75 2.44772 4.75 3C4.75 3.55228 5.19771 4 5.75 4V2ZM11.75 4C12.3023 4 12.75 3.55228 12.75 3C12.75 2.44772 12.3023 2 11.75 2V4ZM6.75 3C6.75 2.44772 6.30229 2 5.75 2C5.19771 2 4.75 2.44772 4.75 3L6.75 3ZM4.75 4C4.75 4.55228 5.19771 5 5.75 5C6.30229 5 6.75 4.55228 6.75 4L4.75 4ZM4.75 3C4.75 3.55228 5.19771 4 5.75 4C6.30229 4 6.75 3.55228 6.75 3L4.75 3ZM6.75 1C6.75 0.447715 6.30229 0 5.75 0C5.19771 0 4.75 0.447715 4.75 1L6.75 1ZM12.75 3C12.75 2.44772 12.3023 2 11.75 2C11.1977 2 10.75 2.44772 10.75 3L12.75 3ZM10.75 4C10.75 4.55228 11.1977 5 11.75 5C12.3023 5 12.75 4.55228 12.75 4H10.75ZM10.75 3C10.75 3.55228 11.1977 4 11.75 4C12.3023 4 12.75 3.55228 12.75 3L10.75 3ZM12.75 1C12.75 0.447715 12.3023 0 11.75 0C11.1977 0 10.75 0.447715 10.75 1H12.75ZM5.75 3V2C2.98858 2 0.75 4.23858 0.75 7H1.75H2.75C2.75 5.34315 4.09315 4 5.75 4V3ZM1.75 7H0.75V13L1.75 13H2.75V7H1.75ZM1.75 13L0.75 13C0.75 15.7614 2.98858 18 5.75 18V17V16C4.09315 16 2.75 14.6569 2.75 13H1.75ZM5.75 17V18H11.75V17V16H5.75V17ZM11.75 17V18C14.5114 18 16.75 15.7614 16.75 13H15.75H14.75C14.75 14.6569 13.4069 16 11.75 16V17ZM15.75 13H16.75V7H15.75H14.75V13H15.75ZM15.75 7H16.75C16.75 4.23858 14.5114 2 11.75 2V3V4C13.4069 4 14.75 5.34315 14.75 7H15.75ZM5.75 3V4H11.75V3V2L5.75 2V3ZM5.75 3L4.75 3V4L5.75 4H6.75V3H5.75ZM5.75 3H6.75V1L5.75 1H4.75V3L5.75 3ZM11.75 3H10.75V4H11.75H12.75V3L11.75 3ZM11.75 3L12.75 3V1H11.75H10.75V3H11.75Z" fill="#0B0B0B"/>
</g>
<path id="Vector-6 (Stroke)" fill-rule="evenodd" clip-rule="evenodd" d="M13.3262 7.51988C13.5914 7.83809 13.5484 8.31101 13.2302 8.57618L7.23022 13.5762C7.06673 13.7124 6.85305 13.7728 6.64243 13.7423C6.43182 13.7117 6.24409 13.5931 6.12604 13.416L4.12604 10.416C3.89628 10.0714 3.98941 9.60575 4.33405 9.37598C4.6787 9.14622 5.14435 9.23935 5.37412 9.58399L6.91114 11.8895L12.2699 7.42385C12.5881 7.15868 13.0611 7.20167 13.3262 7.51988Z" fill="white"/>
</g>
</svg>
