<svg width="25" height="24" viewBox="0 0 25 24" fill="none" xmlns="http://www.w3.org/2000/svg">
<g id="24*24 icon">
<g id="Vector">
<path fill-rule="evenodd" clip-rule="evenodd" d="M18.2393 9.06962L17.2124 10.0965L19.153 12.0369L20.1799 11.01C20.1477 10.9003 20.105 10.7777 20.0517 10.6496C19.9023 10.2904 19.702 9.96293 19.4943 9.75525C19.2866 9.54756 18.9591 9.34721 18.5999 9.19787C18.4717 9.14457 18.3491 9.10181 18.2393 9.06962ZM8.24982 20.9998C7.24982 20.9998 7.24982 20.9993 7.24982 20.9993L7.24982 20.9972L7.24984 20.9934L7.2499 20.9821L7.25037 20.9453C7.25087 20.9146 7.25184 20.8717 7.25369 20.8179C7.2574 20.7103 7.26468 20.5585 7.27898 20.3726C7.30747 20.0022 7.36437 19.4891 7.47891 18.9163C7.70032 17.8091 8.16885 16.3111 9.22015 15.2598L17.4773 7.00328L17.8866 6.99986C18.3256 6.99619 18.8811 7.14877 19.3678 7.35116C19.8741 7.56171 20.455 7.88755 20.9085 8.34098C21.3619 8.79443 21.6878 9.37525 21.8984 9.88158C22.1008 10.3683 22.2534 10.9238 22.2497 11.3628L22.2463 11.7721L13.9891 20.0287C12.9375 21.0802 11.4399 21.549 10.3328 21.7706C9.7601 21.8852 9.24717 21.9421 8.87683 21.9706C8.69098 21.985 8.53924 21.9922 8.4317 21.9959C8.37788 21.9978 8.335 21.9988 8.3043 21.9993L8.2675 21.9997L8.25621 21.9998L8.2524 21.9998L8.25095 21.9998C8.25095 21.9998 8.24982 21.9998 8.24982 20.9998ZM8.24982 20.9998V21.9998H7.24982V20.9993L8.24982 20.9998Z" fill="#0B0B0B"/>
<path fill-rule="evenodd" clip-rule="evenodd" d="M5.83425 5.58425L6.80114 2.68359H8.6985L9.66539 5.58425L12.566 6.55114V8.4485L9.66539 9.41539L8.6985 12.316H6.80114L5.83425 9.41539L2.93359 8.4485V6.55114L5.83425 5.58425Z" fill="#0B0B0B"/>
</g>
</g>
</svg>
