<svg width="24" height="24" viewBox="0 0 24 24" fill="none" xmlns="http://www.w3.org/2000/svg">
<g clip-path="url(#clip0_465_16346)">
<path d="M12.9958 7.44658C13.2224 7.16386 13.1769 6.75097 12.8941 6.52438C12.6114 6.29779 12.1985 6.34329 11.9719 6.62601L12.9958 7.44658ZM5.82755 15.3415L6.32442 15.7698C6.32954 15.7639 6.33456 15.7579 6.33946 15.7517L5.82755 15.3415ZM5.63456 15.8132L4.9798 15.7705L4.97923 15.7828L5.63456 15.8132ZM5.47656 19.2249L4.82123 19.1945C4.81972 19.2271 4.82064 19.2597 4.82398 19.2922L5.47656 19.2249ZM6.36475 20.0002L6.3862 20.6559C6.42995 20.6545 6.47344 20.6486 6.51604 20.6386L6.36475 20.0002ZM9.75046 19.1978L9.90177 19.8362L9.91195 19.8336L9.75046 19.1978ZM10.185 18.9224L10.6911 19.3399L10.6968 19.3328L10.185 18.9224ZM17.5133 10.8324C17.74 10.5498 17.6946 10.1369 17.412 9.91021C17.1293 9.68354 16.7164 9.72893 16.4897 10.0116L17.5133 10.8324ZM11.9778 6.62598C11.7511 6.90863 11.7965 7.32153 12.0791 7.54822C12.3617 7.7749 12.7746 7.72954 13.0013 7.44689L11.9778 6.62598ZM14.2817 4.80187L14.7935 5.21232C14.8021 5.20157 14.8104 5.19055 14.8183 5.17928L14.2817 4.80187ZM16.1202 4.44073L16.5399 3.9365C16.519 3.91911 16.497 3.90304 16.4741 3.88837L16.1202 4.44073ZM18.6448 6.54212L19.1091 6.07866C19.0949 6.0644 19.08 6.0508 19.0645 6.0379L18.6448 6.54212ZM19.025 7.46854L19.6811 7.47215V7.47215L19.025 7.46854ZM18.6346 8.39072L18.1754 7.92219C18.1568 7.94041 18.1393 7.95973 18.123 7.98003L18.6346 8.39072ZM16.4923 10.0115C16.2654 10.294 16.3106 10.7069 16.5931 10.9337C16.8757 11.1606 17.2886 11.1154 17.5154 10.8328L16.4923 10.0115ZM13.1384 6.93907C13.0847 6.58075 12.7507 6.3338 12.3923 6.3875C12.034 6.44119 11.7871 6.7752 11.8408 7.13352L13.1384 6.93907ZM17.0922 11.0721C17.4512 11.0233 17.7027 10.6927 17.6539 10.3337C17.6051 9.97466 17.2745 9.72316 16.9155 9.77194L17.0922 11.0721ZM11.9719 6.62601L5.31563 14.9312L6.33946 15.7517L12.9958 7.44658L11.9719 6.62601ZM5.33068 14.9131C5.12368 15.1532 5.00054 15.4542 4.97991 15.7705L6.28921 15.8559C6.29128 15.8241 6.30364 15.7939 6.32442 15.7698L5.33068 14.9131ZM4.97923 15.7828L4.82123 19.1945L6.1319 19.2552L6.2899 15.8435L4.97923 15.7828ZM4.82398 19.2922C4.9059 20.0864 5.58818 20.682 6.3862 20.6559L6.3433 19.3445C6.2339 19.3481 6.14037 19.2664 6.12914 19.1576L4.82398 19.2922ZM6.51604 20.6386L9.90175 19.8361L9.59917 18.5594L6.21346 19.3618L6.51604 20.6386ZM9.91195 19.8336C10.2175 19.756 10.4904 19.5831 10.691 19.3399L9.67889 18.5049C9.65574 18.533 9.62424 18.553 9.58897 18.5619L9.91195 19.8336ZM10.6968 19.3328L17.5133 10.8324L16.4897 10.0116L9.67316 18.512L10.6968 19.3328ZM13.0013 7.44689L14.7935 5.21232L13.7699 4.39141L11.9778 6.62598L13.0013 7.44689ZM14.8183 5.17928C15.0335 4.87341 15.4514 4.79132 15.7662 4.99308L16.4741 3.88837C15.5677 3.30748 14.3645 3.54383 13.7451 4.42446L14.8183 5.17928ZM15.7005 4.94495L18.2251 7.04635L19.0645 6.0379L16.5399 3.9365L15.7005 4.94495ZM18.1805 7.00559C18.3021 7.12742 18.37 7.2928 18.369 7.46494L19.6811 7.47215C19.6839 6.94995 19.478 6.44826 19.1091 6.07866L18.1805 7.00559ZM18.369 7.46494C18.3681 7.63708 18.2984 7.8017 18.1754 7.92219L19.0938 8.85926C19.4668 8.49374 19.6782 7.99434 19.6811 7.47215L18.369 7.46494ZM18.123 7.98003L16.4923 10.0115L17.5154 10.8328L19.1462 8.80142L18.123 7.98003ZM11.8408 7.13352C12.2196 9.66157 14.5592 11.4162 17.0922 11.0721L16.9155 9.77194C15.0936 10.0195 13.4108 8.75741 13.1384 6.93907L11.8408 7.13352Z" fill="#0B0B0B"/>
<path d="M12.4839 7.03613L5.82755 15.3413C5.71366 15.4734 5.64591 15.639 5.63456 15.813L5.47656 19.2247C5.52314 19.6763 5.91104 20.0149 6.36475 20L9.75046 19.1976C9.92088 19.1543 10.0731 19.0579 10.185 18.9222L17.0015 10.4218C14.3454 10.2782 13.0762 9.32266 12.4839 7.03613Z" fill="black"/>
</g>
<defs>
<clipPath id="clip0_465_16346">
<rect width="24" height="24" fill="white"/>
</clipPath>
</defs>
</svg>
