<svg width="18" height="18" viewBox="0 0 18 18" fill="none" xmlns="http://www.w3.org/2000/svg">
<path d="M4 8.25033C3.58579 8.25033 3.25 8.58611 3.25 9.00033C3.25 9.41454 3.58579 9.75033 4 9.75033V8.25033ZM9 9.75033C9.41421 9.75033 9.75 9.41454 9.75 9.00033C9.75 8.58611 9.41421 8.25033 9 8.25033V9.75033ZM9 8.25033C8.58579 8.25033 8.25 8.58611 8.25 9.00033C8.25 9.41454 8.58579 9.75033 9 9.75033V8.25033ZM14 9.75033C14.4142 9.75033 14.75 9.41454 14.75 9.00033C14.75 8.58611 14.4142 8.25033 14 8.25033V9.75033ZM9.75033 9C9.75033 8.58579 9.41454 8.25 9.00033 8.25C8.58611 8.25 8.25033 8.58579 8.25033 9H9.75033ZM8.25033 14C8.25033 14.4142 8.58611 14.75 9.00033 14.75C9.41454 14.75 9.75033 14.4142 9.75033 14H8.25033ZM8.25033 9C8.25033 9.41421 8.58611 9.75 9.00033 9.75C9.41454 9.75 9.75033 9.41421 9.75033 9H8.25033ZM9.75033 4C9.75033 3.58579 9.41454 3.25 9.00033 3.25C8.58611 3.25 8.25033 3.58579 8.25033 4H9.75033ZM4 9.75033H9V8.25033H4V9.75033ZM9 9.75033H14V8.25033H9V9.75033ZM9.00033 9H8.25033C8.25033 9 8.25033 9 8.25033 9C8.25033 9 8.25033 9 8.25033 9C8.25033 9 8.25033 9 8.25033 9C8.25033 9 8.25033 9 8.25033 9C8.25033 9.00001 8.25033 9.00001 8.25033 9.00001C8.25033 9.00001 8.25033 9.00001 8.25033 9.00001C8.25033 9.00001 8.25033 9.00002 8.25033 9.00002C8.25033 9.00002 8.25033 9.00002 8.25033 9.00003C8.25033 9.00003 8.25033 9.00003 8.25033 9.00004C8.25033 9.00004 8.25033 9.00005 8.25033 9.00005C8.25033 9.00005 8.25033 9.00006 8.25033 9.00006C8.25033 9.00007 8.25033 9.00008 8.25033 9.00008C8.25033 9.00009 8.25033 9.00009 8.25033 9.0001C8.25033 9.00011 8.25033 9.00012 8.25033 9.00013C8.25033 9.00013 8.25033 9.00014 8.25033 9.00015C8.25033 9.00016 8.25033 9.00017 8.25033 9.00018C8.25033 9.00019 8.25033 9.00021 8.25033 9.00022C8.25033 9.00023 8.25033 9.00024 8.25033 9.00026C8.25033 9.00027 8.25033 9.00028 8.25033 9.0003C8.25033 9.00031 8.25033 9.00033 8.25033 9.00035C8.25033 9.00036 8.25033 9.00038 8.25033 9.0004C8.25033 9.00041 8.25033 9.00043 8.25033 9.00045C8.25033 9.00047 8.25033 9.00049 8.25033 9.00051C8.25033 9.00054 8.25033 9.00056 8.25033 9.00058C8.25033 9.00061 8.25033 9.00063 8.25033 9.00065C8.25033 9.00068 8.25033 9.00071 8.25033 9.00073C8.25033 9.00076 8.25033 9.00079 8.25033 9.00082C8.25033 9.00085 8.25033 9.00088 8.25033 9.00091C8.25033 9.00094 8.25033 9.00097 8.25033 9.00101C8.25033 9.00104 8.25033 9.00107 8.25033 9.00111C8.25033 9.00115 8.25033 9.00118 8.25033 9.00122C8.25033 9.00126 8.25033 9.0013 8.25033 9.00134C8.25033 9.00138 8.25033 9.00142 8.25033 9.00146C8.25033 9.00151 8.25033 9.00155 8.25033 9.0016C8.25033 9.00164 8.25033 9.00169 8.25033 9.00174C8.25033 9.00179 8.25033 9.00184 8.25033 9.00189C8.25033 9.00194 8.25033 9.00199 8.25033 9.00204C8.25033 9.0021 8.25033 9.00215 8.25033 9.00221C8.25033 9.00227 8.25033 9.00232 8.25033 9.00238C8.25033 9.00244 8.25033 9.0025 8.25033 9.00257C8.25033 9.00263 8.25033 9.00269 8.25033 9.00276C8.25033 9.00283 8.25033 9.00289 8.25033 9.00296C8.25033 9.00303 8.25033 9.0031 8.25033 9.00317C8.25033 9.00325 8.25033 9.00332 8.25033 9.00339C8.25033 9.00347 8.25033 9.00355 8.25033 9.00363C8.25033 9.00371 8.25033 9.00379 8.25033 9.00387C8.25033 9.00395 8.25033 9.00403 8.25033 9.00412C8.25033 9.00421 8.25033 9.00429 8.25033 9.00438C8.25033 9.00447 8.25033 9.00456 8.25033 9.00466C8.25033 9.00475 8.25033 9.00484 8.25033 9.00494C8.25033 9.00504 8.25033 9.00514 8.25033 9.00524C8.25033 9.00534 8.25033 9.00544 8.25033 9.00555C8.25033 9.00565 8.25033 9.00576 8.25033 9.00587C8.25033 9.00597 8.25033 9.00609 8.25033 9.0062C8.25033 9.00631 8.25033 9.00643 8.25033 9.00654C8.25033 9.00666 8.25033 9.00678 8.25033 9.0069C8.25033 9.00702 8.25033 9.00714 8.25033 9.00727C8.25033 9.00739 8.25033 9.00752 8.25033 9.00765C8.25033 9.00778 8.25033 9.00791 8.25033 9.00805C8.25033 9.00818 8.25033 9.00832 8.25033 9.00846C8.25033 9.00859 8.25033 9.00874 8.25033 9.00888C8.25033 9.00902 8.25033 9.00917 8.25033 9.00932C8.25033 9.00946 8.25033 9.00961 8.25033 9.00977C8.25033 9.00992 8.25033 9.01007 8.25033 9.01023C8.25033 9.01039 8.25033 9.01055 8.25033 9.01071C8.25033 9.01087 8.25033 9.01104 8.25033 9.0112C8.25033 9.01137 8.25033 9.01154 8.25033 9.01171C8.25033 9.01189 8.25033 9.01206 8.25033 9.01224C8.25033 9.01242 8.25033 9.0126 8.25033 9.01278C8.25033 9.01296 8.25033 9.01315 8.25033 9.01333C8.25033 9.01352 8.25033 9.01371 8.25033 9.0139C8.25033 9.0141 8.25033 9.01429 8.25033 9.01449C8.25033 9.01469 8.25033 9.01489 8.25033 9.0151C8.25033 9.0153 8.25033 9.01551 8.25033 9.01572C8.25033 9.01593 8.25033 9.01614 8.25033 9.01635C8.25033 9.01657 8.25033 9.01679 8.25033 9.01701C8.25033 9.01723 8.25033 9.01745 8.25033 9.01768C8.25033 9.01791 8.25033 9.01813 8.25033 9.01837C8.25033 9.0186 8.25033 9.01884 8.25033 9.01907C8.25033 9.01931 8.25033 9.01955 8.25033 9.0198C8.25033 9.02004 8.25033 9.02029 8.25033 9.02054C8.25033 9.02079 8.25033 9.02104 8.25033 9.0213C8.25033 9.02156 8.25033 9.02182 8.25033 9.02208C8.25033 9.02234 8.25033 9.02261 8.25033 9.02288C8.25033 9.02315 8.25033 9.02342 8.25033 9.02369C8.25033 9.02397 8.25033 9.02425 8.25033 9.02453C8.25033 9.02481 8.25033 9.0251 8.25033 9.02539C8.25033 9.02568 8.25033 9.02597 8.25033 9.02626C8.25033 9.02656 8.25033 9.02686 8.25033 9.02716C8.25033 9.02746 8.25033 9.02776 8.25033 9.02807C8.25033 9.02838 8.25033 9.02869 8.25033 9.02901C8.25033 9.02932 8.25033 9.02964 8.25033 9.02996C8.25033 9.03029 8.25033 9.03061 8.25033 9.03094C8.25033 9.03127 8.25033 9.0316 8.25033 9.03194C8.25033 9.03228 8.25033 9.03262 8.25033 9.03296C8.25033 9.0333 8.25033 9.03365 8.25033 9.034C8.25033 9.03435 8.25033 9.0347 8.25033 9.03506C8.25033 9.03542 8.25033 9.03578 8.25033 9.03615C8.25033 9.03651 8.25033 9.03688 8.25033 9.03725C8.25033 9.03763 8.25033 9.038 8.25033 9.03838C8.25033 9.03876 8.25033 9.03915 8.25033 9.03953C8.25033 9.03992 8.25033 9.04031 8.25033 9.04071C8.25033 9.0411 8.25033 9.0415 8.25033 9.0419C8.25033 9.04231 8.25033 9.04271 8.25033 9.04312C8.25033 9.04354 8.25033 9.04395 8.25033 9.04437C8.25033 9.04479 8.25033 9.04521 8.25033 9.04564C8.25033 9.04606 8.25033 9.04649 8.25033 9.04693C8.25033 9.04736 8.25033 9.0478 8.25033 9.04824C8.25033 9.04869 8.25033 9.04913 8.25033 9.04958C8.25033 9.05003 8.25033 9.05049 8.25033 9.05095C8.25033 9.05141 8.25033 9.05187 8.25033 9.05234C8.25033 9.0528 8.25033 9.05328 8.25033 9.05375C8.25033 9.05423 8.25033 9.05471 8.25033 9.05519C8.25033 9.05568 8.25033 9.05616 8.25033 9.05666C8.25033 9.05715 8.25033 9.05765 8.25033 9.05815C8.25033 9.05865 8.25033 9.05915 8.25033 9.05966C8.25033 9.06017 8.25033 9.06069 8.25033 9.06121C8.25033 9.06173 8.25033 9.06225 8.25033 9.06278C8.25033 9.0633 8.25033 9.06384 8.25033 9.06437C8.25033 9.06491 8.25033 9.06545 8.25033 9.066C8.25033 9.06654 8.25033 9.06709 8.25033 9.06765C8.25033 9.0682 8.25033 9.06876 8.25033 9.06932C8.25033 9.06989 8.25033 9.07045 8.25033 9.07103C8.25033 9.0716 8.25033 9.07218 8.25033 9.07276C8.25033 9.07334 8.25033 9.07393 8.25033 9.07452C8.25033 9.07511 8.25033 9.07571 8.25033 9.07631C8.25033 9.07691 8.25033 9.07751 8.25033 9.07812C8.25033 9.07874 8.25033 9.07935 8.25033 9.07997C8.25033 9.08059 8.25033 9.08121 8.25033 9.08184C8.25033 9.08247 8.25033 9.08311 8.25033 9.08375C8.25033 9.08439 8.25033 9.08503 8.25033 9.08568C8.25033 9.08633 8.25033 9.08698 8.25033 9.08764C8.25033 9.0883 8.25033 9.08897 8.25033 9.08963C8.25033 9.0903 8.25033 9.09098 8.25033 9.09166C8.25033 9.09234 8.25033 9.09302 8.25033 9.09371C8.25033 9.0944 8.25033 9.09509 8.25033 9.09579C8.25033 9.09649 8.25033 9.09719 8.25033 9.0979C8.25033 9.09861 8.25033 9.09933 8.25033 9.10005C8.25033 9.10077 8.25033 9.10149 8.25033 9.10222C8.25033 9.10295 8.25033 9.10369 8.25033 9.10443C8.25033 9.10517 8.25033 9.10591 8.25033 9.10667C8.25033 9.10742 8.25033 9.10817 8.25033 9.10894C8.25033 9.1097 8.25033 9.11046 8.25033 9.11124C8.25033 9.11201 8.25033 9.11279 8.25033 9.11357C8.25033 9.11435 8.25033 9.11514 8.25033 9.11594C8.25033 9.11673 8.25033 9.11753 8.25033 9.11833C8.25033 9.11914 8.25033 9.11995 8.25033 9.12077C8.25033 9.12158 8.25033 9.1224 8.25033 9.12323C8.25033 9.12406 8.25033 9.12489 8.25033 9.12573C8.25033 9.12657 8.25033 9.12741 8.25033 9.12826C8.25033 9.12911 8.25033 9.12996 8.25033 9.13083C8.25033 9.13169 8.25033 9.13255 8.25033 9.13342C8.25033 9.1343 8.25033 9.13517 8.25033 9.13606C8.25033 9.13694 8.25033 9.13783 8.25033 9.13873C8.25033 9.13962 8.25033 9.14052 8.25033 9.14143C8.25033 9.14233 8.25033 9.14325 8.25033 9.14416C8.25033 9.14508 8.25033 9.14601 8.25033 9.14694C8.25033 9.14787 8.25033 9.1488 8.25033 9.14974C8.25033 9.15069 8.25033 9.15163 8.25033 9.15259C8.25033 9.15354 8.25033 9.1545 8.25033 9.15547C8.25033 9.15643 8.25033 9.1574 8.25033 9.15838C8.25033 9.15936 8.25033 9.16034 8.25033 9.16133C8.25033 9.16232 8.25033 9.16332 8.25033 9.16432C8.25033 9.16532 8.25033 9.16633 8.25033 9.16734C8.25033 9.16836 8.25033 9.16938 8.25033 9.17041C8.25033 9.17143 8.25033 9.17246 8.25033 9.1735C8.25033 9.17454 8.25033 9.17559 8.25033 9.17664C8.25033 9.17769 8.25033 9.17875 8.25033 9.17981C8.25033 9.18088 8.25033 9.18195 8.25033 9.18302C8.25033 9.1841 8.25033 9.18518 8.25033 9.18627C8.25033 9.18736 8.25033 9.18846 8.25033 9.18956C8.25033 9.19066 8.25033 9.19177 8.25033 9.19288C8.25033 9.194 8.25033 9.19512 8.25033 9.19625C8.25033 9.19738 8.25033 9.19851 8.25033 9.19965C8.25033 9.20079 8.25033 9.20194 8.25033 9.20309C8.25033 9.20425 8.25033 9.20541 8.25033 9.20658C8.25033 9.20774 8.25033 9.20892 8.25033 9.2101C8.25033 9.21128 8.25033 9.21246 8.25033 9.21366C8.25033 9.21485 8.25033 9.21605 8.25033 9.21726C8.25033 9.21847 8.25033 9.21968 8.25033 9.2209C8.25033 9.22212 8.25033 9.22335 8.25033 9.22458C8.25033 9.22582 8.25033 9.22706 8.25033 9.2283C8.25033 9.22955 8.25033 9.23081 8.25033 9.23207C8.25033 9.23333 8.25033 9.2346 8.25033 9.23587C8.25033 9.23715 8.25033 9.23843 8.25033 9.23972C8.25033 9.24101 8.25033 9.2423 8.25033 9.2436C8.25033 9.24491 8.25033 9.24622 8.25033 9.24753C8.25033 9.24885 8.25033 9.25017 8.25033 9.2515C8.25033 9.25284 8.25033 9.25417 8.25033 9.25552C8.25033 9.25686 8.25033 9.25821 8.25033 9.25957C8.25033 9.26093 8.25033 9.2623 8.25033 9.26367C8.25033 9.26505 8.25033 9.26643 8.25033 9.26781C8.25033 9.2692 8.25033 9.2706 8.25033 9.272C8.25033 9.2734 8.25033 9.27481 8.25033 9.27623C8.25033 9.27764 8.25033 9.27907 8.25033 9.2805C8.25033 9.28193 8.25033 9.28337 8.25033 9.28481C8.25033 9.28626 8.25033 9.28771 8.25033 9.28917C8.25033 9.29063 8.25033 9.2921 8.25033 9.29358C8.25033 9.29505 8.25033 9.29653 8.25033 9.29802C8.25033 9.29951 8.25033 9.30101 8.25033 9.30252C8.25033 9.30402 8.25033 9.30553 8.25033 9.30705C8.25033 9.30857 8.25033 9.3101 8.25033 9.31164C8.25033 9.31317 8.25033 9.31471 8.25033 9.31626C8.25033 9.31781 8.25033 9.31937 8.25033 9.32094C8.25033 9.3225 8.25033 9.32408 8.25033 9.32566C8.25033 9.32724 8.25033 9.32883 8.25033 9.33042C8.25033 9.33202 8.25033 9.33362 8.25033 9.33524C8.25033 9.33685 8.25033 9.33847 8.25033 9.34009C8.25033 9.34172 8.25033 9.34336 8.25033 9.345C8.25033 9.34664 8.25033 9.34829 8.25033 9.34995C8.25033 9.35161 8.25033 9.35328 8.25033 9.35495C8.25033 9.35662 8.25033 9.35831 8.25033 9.36C8.25033 9.36169 8.25033 9.36339 8.25033 9.36509C8.25033 9.3668 8.25033 9.36851 8.25033 9.37023C8.25033 9.37196 8.25033 9.37369 8.25033 9.37542C8.25033 9.37716 8.25033 9.37891 8.25033 9.38066C8.25033 9.38242 8.25033 9.38418 8.25033 9.38595C8.25033 9.38772 8.25033 9.3895 8.25033 9.39128C8.25033 9.39307 8.25033 9.39487 8.25033 9.39667C8.25033 9.39847 8.25033 9.40028 8.25033 9.4021C8.25033 9.40392 8.25033 9.40575 8.25033 9.40759C8.25033 9.40942 8.25033 9.41127 8.25033 9.41312C8.25033 9.41497 8.25033 9.41683 8.25033 9.4187C8.25033 9.42057 8.25033 9.42245 8.25033 9.42433C8.25033 9.42622 8.25033 9.42811 8.25033 9.43002C8.25033 9.43192 8.25033 9.43383 8.25033 9.43575C8.25033 9.43767 8.25033 9.4396 8.25033 9.44153C8.25033 9.44347 8.25033 9.44542 8.25033 9.44737C8.25033 9.44932 8.25033 9.45129 8.25033 9.45326C8.25033 9.45523 8.25033 9.45721 8.25033 9.45919C8.25033 9.46118 8.25033 9.46318 8.25033 9.46518C8.25033 9.46719 8.25033 9.4692 8.25033 9.47122C8.25033 9.47325 8.25033 9.47528 8.25033 9.47732C8.25033 9.47936 8.25033 9.48141 8.25033 9.48346C8.25033 9.48552 8.25033 9.48759 8.25033 9.48966C8.25033 9.49174 8.25033 9.49382 8.25033 9.49591C8.25033 9.498 8.25033 9.50011 8.25033 9.50222C8.25033 9.50433 8.25033 9.50645 8.25033 9.50857C8.25033 9.5107 8.25033 9.51284 8.25033 9.51498C8.25033 9.51713 8.25033 9.51928 8.25033 9.52145C8.25033 9.52361 8.25033 9.52578 8.25033 9.52797C8.25033 9.53015 8.25033 9.53234 8.25033 9.53454C8.25033 9.53674 8.25033 9.53895 8.25033 9.54116C8.25033 9.54338 8.25033 9.54561 8.25033 9.54785C8.25033 9.55008 8.25033 9.55233 8.25033 9.55458C8.25033 9.55684 8.25033 9.5591 8.25033 9.56137C8.25033 9.56364 8.25033 9.56593 8.25033 9.56822C8.25033 9.57051 8.25033 9.57281 8.25033 9.57512C8.25033 9.57743 8.25033 9.57975 8.25033 9.58208C8.25033 9.5844 8.25033 9.58674 8.25033 9.58909C8.25033 9.59144 8.25033 9.59379 8.25033 9.59616C8.25033 9.59852 8.25033 9.6009 8.25033 9.60328C8.25033 9.60567 8.25033 9.60806 8.25033 9.61047C8.25033 9.61287 8.25033 9.61528 8.25033 9.6177C8.25033 9.62013 8.25033 9.62256 8.25033 9.625C8.25033 9.62744 8.25033 9.62989 8.25033 9.63235C8.25033 9.63481 8.25033 9.63728 8.25033 9.63976C8.25033 9.64224 8.25033 9.64473 8.25033 9.64723C8.25033 9.64973 8.25033 9.65224 8.25033 9.65476C8.25033 9.65728 8.25033 9.6598 8.25033 9.66234C8.25033 9.66488 8.25033 9.66743 8.25033 9.66998C8.25033 9.67254 8.25033 9.67511 8.25033 9.67768C8.25033 9.68026 8.25033 9.68285 8.25033 9.68544C8.25033 9.68804 8.25033 9.69065 8.25033 9.69326C8.25033 9.69588 8.25033 9.6985 8.25033 9.70114C8.25033 9.70378 8.25033 9.70642 8.25033 9.70908C8.25033 9.71173 8.25033 9.7144 8.25033 9.71707C8.25033 9.71975 8.25033 9.72244 8.25033 9.72513C8.25033 9.72783 8.25033 9.73053 8.25033 9.73325C8.25033 9.73596 8.25033 9.73869 8.25033 9.74143C8.25033 9.74416 8.25033 9.74691 8.25033 9.74966C8.25033 9.75242 8.25033 9.75519 8.25033 9.75796C8.25033 9.76074 8.25033 9.76353 8.25033 9.76632C8.25033 9.76912 8.25033 9.77193 8.25033 9.77474C8.25033 9.77756 8.25033 9.78039 8.25033 9.78323C8.25033 9.78606 8.25033 9.78891 8.25033 9.79177C8.25033 9.79463 8.25033 9.7975 8.25033 9.80038C8.25033 9.80326 8.25033 9.80615 8.25033 9.80905C8.25033 9.81194 8.25033 9.81486 8.25033 9.81778C8.25033 9.8207 8.25033 9.82363 8.25033 9.82657C8.25033 9.82951 8.25033 9.83246 8.25033 9.83542C8.25033 9.83839 8.25033 9.84136 8.25033 9.84434C8.25033 9.84733 8.25033 9.85032 8.25033 9.85333C8.25033 9.85633 8.25033 9.85935 8.25033 9.86237C8.25033 9.8654 8.25033 9.86843 8.25033 9.87148C8.25033 9.87453 8.25033 9.87759 8.25033 9.88065C8.25033 9.88372 8.25033 9.8868 8.25033 9.88989C8.25033 9.89298 8.25033 9.89608 8.25033 9.89919C8.25033 9.90231 8.25033 9.90543 8.25033 9.90856C8.25033 9.91169 8.25033 9.91484 8.25033 9.91799C8.25033 9.92115 8.25033 9.92431 8.25033 9.92749C8.25033 9.93067 8.25033 9.93385 8.25033 9.93705C8.25033 9.94025 8.25033 9.94346 8.25033 9.94668C8.25033 9.9499 8.25033 9.95313 8.25033 9.95637C8.25033 9.95961 8.25033 9.96287 8.25033 9.96613C8.25033 9.96939 8.25033 9.97267 8.25033 9.97595C8.25033 9.97924 8.25033 9.98254 8.25033 9.98585C8.25033 9.98915 8.25033 9.99247 8.25033 9.9958C8.25033 9.99913 8.25033 10.0025 8.25033 10.0058C8.25033 10.0092 8.25033 10.0125 8.25033 10.0159C8.25033 10.0193 8.25033 10.0227 8.25033 10.0261C8.25033 10.0295 8.25033 10.0329 8.25033 10.0363C8.25033 10.0397 8.25033 10.0432 8.25033 10.0466C8.25033 10.05 8.25033 10.0535 8.25033 10.057C8.25033 10.0604 8.25033 10.0639 8.25033 10.0674C8.25033 10.0709 8.25033 10.0744 8.25033 10.0779C8.25033 10.0814 8.25033 10.0849 8.25033 10.0885C8.25033 10.092 8.25033 10.0955 8.25033 10.0991C8.25033 10.1027 8.25033 10.1062 8.25033 10.1098C8.25033 10.1134 8.25033 10.117 8.25033 10.1206C8.25033 10.1242 8.25033 10.1278 8.25033 10.1314C8.25033 10.135 8.25033 10.1387 8.25033 10.1423C8.25033 10.146 8.25033 10.1496 8.25033 10.1533C8.25033 10.157 8.25033 10.1607 8.25033 10.1644C8.25033 10.1681 8.25033 10.1718 8.25033 10.1755C8.25033 10.1792 8.25033 10.1829 8.25033 10.1867C8.25033 10.1904 8.25033 10.1942 8.25033 10.198C8.25033 10.2017 8.25033 10.2055 8.25033 10.2093C8.25033 10.2131 8.25033 10.2169 8.25033 10.2207C8.25033 10.2245 8.25033 10.2283 8.25033 10.2322C8.25033 10.236 8.25033 10.2399 8.25033 10.2437C8.25033 10.2476 8.25033 10.2515 8.25033 10.2554C8.25033 10.2592 8.25033 10.2631 8.25033 10.2671C8.25033 10.271 8.25033 10.2749 8.25033 10.2788C8.25033 10.2828 8.25033 10.2867 8.25033 10.2907C8.25033 10.2946 8.25033 10.2986 8.25033 10.3026C8.25033 10.3066 8.25033 10.3106 8.25033 10.3146C8.25033 10.3186 8.25033 10.3226 8.25033 10.3266C8.25033 10.3307 8.25033 10.3347 8.25033 10.3388C8.25033 10.3428 8.25033 10.3469 8.25033 10.351C8.25033 10.355 8.25033 10.3591 8.25033 10.3632C8.25033 10.3674 8.25033 10.3715 8.25033 10.3756C8.25033 10.3797 8.25033 10.3839 8.25033 10.388C8.25033 10.3922 8.25033 10.3964 8.25033 10.4005C8.25033 10.4047 8.25033 10.4089 8.25033 10.4131C8.25033 10.4173 8.25033 10.4215 8.25033 10.4258C8.25033 10.43 8.25033 10.4342 8.25033 10.4385C8.25033 10.4428 8.25033 10.447 8.25033 10.4513C8.25033 10.4556 8.25033 10.4599 8.25033 10.4642C8.25033 10.4685 8.25033 10.4728 8.25033 10.4771C8.25033 10.4815 8.25033 10.4858 8.25033 10.4902C8.25033 10.4945 8.25033 10.4989 8.25033 10.5033C8.25033 10.5077 8.25033 10.5121 8.25033 10.5165C8.25033 10.5209 8.25033 10.5253 8.25033 10.5297C8.25033 10.5342 8.25033 10.5386 8.25033 10.5431C8.25033 10.5475 8.25033 10.552 8.25033 10.5565C8.25033 10.561 8.25033 10.5655 8.25033 10.57C8.25033 10.5745 8.25033 10.579 8.25033 10.5836C8.25033 10.5881 8.25033 10.5927 8.25033 10.5972C8.25033 10.6018 8.25033 10.6064 8.25033 10.6109C8.25033 10.6155 8.25033 10.6201 8.25033 10.6248C8.25033 10.6294 8.25033 10.634 8.25033 10.6386C8.25033 10.6433 8.25033 10.6479 8.25033 10.6526C8.25033 10.6573 8.25033 10.662 8.25033 10.6667C8.25033 10.6713 8.25033 10.6761 8.25033 10.6808C8.25033 10.6855 8.25033 10.6902 8.25033 10.695C8.25033 10.6997 8.25033 10.7045 8.25033 10.7093C8.25033 10.714 8.25033 10.7188 8.25033 10.7236C8.25033 10.7284 8.25033 10.7332 8.25033 10.7381C8.25033 10.7429 8.25033 10.7477 8.25033 10.7526C8.25033 10.7575 8.25033 10.7623 8.25033 10.7672C8.25033 10.7721 8.25033 10.777 8.25033 10.7819C8.25033 10.7868 8.25033 10.7917 8.25033 10.7967C8.25033 10.8016 8.25033 10.8065 8.25033 10.8115C8.25033 10.8165 8.25033 10.8214 8.25033 10.8264C8.25033 10.8314 8.25033 10.8364 8.25033 10.8414C8.25033 10.8465 8.25033 10.8515 8.25033 10.8565C8.25033 10.8616 8.25033 10.8666 8.25033 10.8717C8.25033 10.8768 8.25033 10.8819 8.25033 10.887C8.25033 10.8921 8.25033 10.8972 8.25033 10.9023C8.25033 10.9074 8.25033 10.9126 8.25033 10.9177C8.25033 10.9229 8.25033 10.9281 8.25033 10.9332C8.25033 10.9384 8.25033 10.9436 8.25033 10.9488C8.25033 10.954 8.25033 10.9593 8.25033 10.9645C8.25033 10.9697 8.25033 10.975 8.25033 10.9803C8.25033 10.9855 8.25033 10.9908 8.25033 10.9961C8.25033 11.0014 8.25033 11.0067 8.25033 11.012C8.25033 11.0174 8.25033 11.0227 8.25033 11.028C8.25033 11.0334 8.25033 11.0388 8.25033 11.0441C8.25033 11.0495 8.25033 11.0549 8.25033 11.0603C8.25033 11.0657 8.25033 11.0712 8.25033 11.0766C8.25033 11.082 8.25033 11.0875 8.25033 11.0929C8.25033 11.0984 8.25033 11.1039 8.25033 11.1094C8.25033 11.1149 8.25033 11.1204 8.25033 11.1259C8.25033 11.1314 8.25033 11.137 8.25033 11.1425C8.25033 11.1481 8.25033 11.1536 8.25033 11.1592C8.25033 11.1648 8.25033 11.1704 8.25033 11.176C8.25033 11.1816 8.25033 11.1872 8.25033 11.1929C8.25033 11.1985 8.25033 11.2041 8.25033 11.2098C8.25033 11.2155 8.25033 11.2212 8.25033 11.2268C8.25033 11.2325 8.25033 11.2383 8.25033 11.244C8.25033 11.2497 8.25033 11.2554 8.25033 11.2612C8.25033 11.2669 8.25033 11.2727 8.25033 11.2785C8.25033 11.2843 8.25033 11.2901 8.25033 11.2959C8.25033 11.3017 8.25033 11.3075 8.25033 11.3134C8.25033 11.3192 8.25033 11.3251 8.25033 11.3309C8.25033 11.3368 8.25033 11.3427 8.25033 11.3486C8.25033 11.3545 8.25033 11.3604 8.25033 11.3663C8.25033 11.3723 8.25033 11.3782 8.25033 11.3842C8.25033 11.3901 8.25033 11.3961 8.25033 11.4021C8.25033 11.4081 8.25033 11.4141 8.25033 11.4201C8.25033 11.4261 8.25033 11.4322 8.25033 11.4382C8.25033 11.4443 8.25033 11.4503 8.25033 11.4564C8.25033 11.4625 8.25033 11.4686 8.25033 11.4747C8.25033 11.4808 8.25033 11.487 8.25033 11.4931C8.25033 11.4992 8.25033 11.5054 8.25033 11.5116C8.25033 11.5177 8.25033 11.5239 8.25033 11.5301C8.25033 11.5363 8.25033 11.5425 8.25033 11.5488C8.25033 11.555 8.25033 11.5612 8.25033 11.5675C8.25033 11.5738 8.25033 11.58 8.25033 11.5863C8.25033 11.5926 8.25033 11.5989 8.25033 11.6053C8.25033 11.6116 8.25033 11.6179 8.25033 11.6243C8.25033 11.6306 8.25033 11.637 8.25033 11.6434C8.25033 11.6498 8.25033 11.6562 8.25033 11.6626C8.25033 11.669 8.25033 11.6754 8.25033 11.6819C8.25033 11.6883 8.25033 11.6948 8.25033 11.7013C8.25033 11.7077 8.25033 11.7142 8.25033 11.7208C8.25033 11.7273 8.25033 11.7338 8.25033 11.7403C8.25033 11.7469 8.25033 11.7534 8.25033 11.76C8.25033 11.7666 8.25033 11.7732 8.25033 11.7798C8.25033 11.7864 8.25033 11.793 8.25033 11.7996C8.25033 11.8062 8.25033 11.8129 8.25033 11.8196C8.25033 11.8262 8.25033 11.8329 8.25033 11.8396C8.25033 11.8463 8.25033 11.853 8.25033 11.8597C8.25033 11.8665 8.25033 11.8732 8.25033 11.88C8.25033 11.8867 8.25033 11.8935 8.25033 11.9003C8.25033 11.9071 8.25033 11.9139 8.25033 11.9207C8.25033 11.9276 8.25033 11.9344 8.25033 11.9413C8.25033 11.9481 8.25033 11.955 8.25033 11.9619C8.25033 11.9688 8.25033 11.9757 8.25033 11.9826C8.25033 11.9895 8.25033 11.9964 8.25033 12.0034C8.25033 12.0103 8.25033 12.0173 8.25033 12.0243C8.25033 12.0313 8.25033 12.0383 8.25033 12.0453C8.25033 12.0523 8.25033 12.0593 8.25033 12.0664C8.25033 12.0734 8.25033 12.0805 8.25033 12.0876C8.25033 12.0947 8.25033 12.1018 8.25033 12.1089C8.25033 12.116 8.25033 12.1231 8.25033 12.1303C8.25033 12.1374 8.25033 12.1446 8.25033 12.1518C8.25033 12.1589 8.25033 12.1661 8.25033 12.1734C8.25033 12.1806 8.25033 12.1878 8.25033 12.195C8.25033 12.2023 8.25033 12.2095 8.25033 12.2168C8.25033 12.2241 8.25033 12.2314 8.25033 12.2387C8.25033 12.246 8.25033 12.2533 8.25033 12.2607C8.25033 12.268 8.25033 12.2754 8.25033 12.2828C8.25033 12.2901 8.25033 12.2975 8.25033 12.3049C8.25033 12.3124 8.25033 12.3198 8.25033 12.3272C8.25033 12.3347 8.25033 12.3421 8.25033 12.3496C8.25033 12.3571 8.25033 12.3646 8.25033 12.3721C8.25033 12.3796 8.25033 12.3871 8.25033 12.3947C8.25033 12.4022 8.25033 12.4098 8.25033 12.4174C8.25033 12.4249 8.25033 12.4325 8.25033 12.4401C8.25033 12.4477 8.25033 12.4554 8.25033 12.463C8.25033 12.4707 8.25033 12.4783 8.25033 12.486C8.25033 12.4937 8.25033 12.5014 8.25033 12.5091C8.25033 12.5168 8.25033 12.5245 8.25033 12.5323C8.25033 12.54 8.25033 12.5478 8.25033 12.5556C8.25033 12.5633 8.25033 12.5711 8.25033 12.579C8.25033 12.5868 8.25033 12.5946 8.25033 12.6025C8.25033 12.6103 8.25033 12.6182 8.25033 12.626C8.25033 12.6339 8.25033 12.6418 8.25033 12.6497C8.25033 12.6577 8.25033 12.6656 8.25033 12.6736C8.25033 12.6815 8.25033 12.6895 8.25033 12.6975C8.25033 12.7054 8.25033 12.7134 8.25033 12.7215C8.25033 12.7295 8.25033 12.7375 8.25033 12.7456C8.25033 12.7536 8.25033 12.7617 8.25033 12.7698C8.25033 12.7779 8.25033 12.786 8.25033 12.7941C8.25033 12.8022 8.25033 12.8104 8.25033 12.8185C8.25033 12.8267 8.25033 12.8349 8.25033 12.8431C8.25033 12.8513 8.25033 12.8595 8.25033 12.8677C8.25033 12.8759 8.25033 12.8842 8.25033 12.8924C8.25033 12.9007 8.25033 12.909 8.25033 12.9173C8.25033 12.9256 8.25033 12.9339 8.25033 12.9422C8.25033 12.9506 8.25033 12.9589 8.25033 12.9673C8.25033 12.9757 8.25033 12.9841 8.25033 12.9925C8.25033 13.0009 8.25033 13.0093 8.25033 13.0177C8.25033 13.0262 8.25033 13.0346 8.25033 13.0431C8.25033 13.0516 8.25033 13.0601 8.25033 13.0686C8.25033 13.0771 8.25033 13.0856 8.25033 13.0942C8.25033 13.1027 8.25033 13.1113 8.25033 13.1199C8.25033 13.1285 8.25033 13.1371 8.25033 13.1457C8.25033 13.1543 8.25033 13.1629 8.25033 13.1716C8.25033 13.1802 8.25033 13.1889 8.25033 13.1976C8.25033 13.2063 8.25033 13.215 8.25033 13.2237C8.25033 13.2325 8.25033 13.2412 8.25033 13.25C8.25033 13.2587 8.25033 13.2675 8.25033 13.2763C8.25033 13.2851 8.25033 13.2939 8.25033 13.3028C8.25033 13.3116 8.25033 13.3204 8.25033 13.3293C8.25033 13.3382 8.25033 13.3471 8.25033 13.356C8.25033 13.3649 8.25033 13.3738 8.25033 13.3828C8.25033 13.3917 8.25033 13.4007 8.25033 13.4097C8.25033 13.4186 8.25033 13.4276 8.25033 13.4367C8.25033 13.4457 8.25033 13.4547 8.25033 13.4638C8.25033 13.4728 8.25033 13.4819 8.25033 13.491C8.25033 13.5001 8.25033 13.5092 8.25033 13.5183C8.25033 13.5274 8.25033 13.5366 8.25033 13.5457C8.25033 13.5549 8.25033 13.5641 8.25033 13.5733C8.25033 13.5825 8.25033 13.5917 8.25033 13.601C8.25033 13.6102 8.25033 13.6195 8.25033 13.6287C8.25033 13.638 8.25033 13.6473 8.25033 13.6566C8.25033 13.6659 8.25033 13.6753 8.25033 13.6846C8.25033 13.694 8.25033 13.7033 8.25033 13.7127C8.25033 13.7221 8.25033 13.7315 8.25033 13.7409C8.25033 13.7504 8.25033 13.7598 8.25033 13.7693C8.25033 13.7787 8.25033 13.7882 8.25033 13.7977C8.25033 13.8072 8.25033 13.8167 8.25033 13.8263C8.25033 13.8358 8.25033 13.8454 8.25033 13.8549C8.25033 13.8645 8.25033 13.8741 8.25033 13.8837C8.25033 13.8933 8.25033 13.903 8.25033 13.9126C8.25033 13.9223 8.25033 13.9319 8.25033 13.9416C8.25033 13.9513 8.25033 13.961 8.25033 13.9708C8.25033 13.9805 8.25033 13.9902 8.25033 14H9.75033C9.75033 13.9902 9.75033 13.9805 9.75033 13.9708C9.75033 13.961 9.75033 13.9513 9.75033 13.9416C9.75033 13.9319 9.75033 13.9223 9.75033 13.9126C9.75033 13.903 9.75033 13.8933 9.75033 13.8837C9.75033 13.8741 9.75033 13.8645 9.75033 13.8549C9.75033 13.8454 9.75033 13.8358 9.75033 13.8263C9.75033 13.8167 9.75033 13.8072 9.75033 13.7977C9.75033 13.7882 9.75033 13.7787 9.75033 13.7693C9.75033 13.7598 9.75033 13.7504 9.75033 13.7409C9.75033 13.7315 9.75033 13.7221 9.75033 13.7127C9.75033 13.7033 9.75033 13.694 9.75033 13.6846C9.75033 13.6753 9.75033 13.6659 9.75033 13.6566C9.75033 13.6473 9.75033 13.638 9.75033 13.6287C9.75033 13.6195 9.75033 13.6102 9.75033 13.601C9.75033 13.5917 9.75033 13.5825 9.75033 13.5733C9.75033 13.5641 9.75033 13.5549 9.75033 13.5457C9.75033 13.5366 9.75033 13.5274 9.75033 13.5183C9.75033 13.5092 9.75033 13.5001 9.75033 13.491C9.75033 13.4819 9.75033 13.4728 9.75033 13.4638C9.75033 13.4547 9.75033 13.4457 9.75033 13.4367C9.75033 13.4276 9.75033 13.4186 9.75033 13.4097C9.75033 13.4007 9.75033 13.3917 9.75033 13.3828C9.75033 13.3738 9.75033 13.3649 9.75033 13.356C9.75033 13.3471 9.75033 13.3382 9.75033 13.3293C9.75033 13.3204 9.75033 13.3116 9.75033 13.3028C9.75033 13.2939 9.75033 13.2851 9.75033 13.2763C9.75033 13.2675 9.75033 13.2587 9.75033 13.25C9.75033 13.2412 9.75033 13.2325 9.75033 13.2237C9.75033 13.215 9.75033 13.2063 9.75033 13.1976C9.75033 13.1889 9.75033 13.1802 9.75033 13.1716C9.75033 13.1629 9.75033 13.1543 9.75033 13.1457C9.75033 13.1371 9.75033 13.1285 9.75033 13.1199C9.75033 13.1113 9.75033 13.1027 9.75033 13.0942C9.75033 13.0856 9.75033 13.0771 9.75033 13.0686C9.75033 13.0601 9.75033 13.0516 9.75033 13.0431C9.75033 13.0346 9.75033 13.0262 9.75033 13.0177C9.75033 13.0093 9.75033 13.0009 9.75033 12.9925C9.75033 12.9841 9.75033 12.9757 9.75033 12.9673C9.75033 12.9589 9.75033 12.9506 9.75033 12.9422C9.75033 12.9339 9.75033 12.9256 9.75033 12.9173C9.75033 12.909 9.75033 12.9007 9.75033 12.8924C9.75033 12.8842 9.75033 12.8759 9.75033 12.8677C9.75033 12.8595 9.75033 12.8513 9.75033 12.8431C9.75033 12.8349 9.75033 12.8267 9.75033 12.8185C9.75033 12.8104 9.75033 12.8022 9.75033 12.7941C9.75033 12.786 9.75033 12.7779 9.75033 12.7698C9.75033 12.7617 9.75033 12.7536 9.75033 12.7456C9.75033 12.7375 9.75033 12.7295 9.75033 12.7215C9.75033 12.7134 9.75033 12.7054 9.75033 12.6975C9.75033 12.6895 9.75033 12.6815 9.75033 12.6736C9.75033 12.6656 9.75033 12.6577 9.75033 12.6497C9.75033 12.6418 9.75033 12.6339 9.75033 12.626C9.75033 12.6182 9.75033 12.6103 9.75033 12.6025C9.75033 12.5946 9.75033 12.5868 9.75033 12.579C9.75033 12.5711 9.75033 12.5633 9.75033 12.5556C9.75033 12.5478 9.75033 12.54 9.75033 12.5323C9.75033 12.5245 9.75033 12.5168 9.75033 12.5091C9.75033 12.5014 9.75033 12.4937 9.75033 12.486C9.75033 12.4783 9.75033 12.4707 9.75033 12.463C9.75033 12.4554 9.75033 12.4477 9.75033 12.4401C9.75033 12.4325 9.75033 12.4249 9.75033 12.4174C9.75033 12.4098 9.75033 12.4022 9.75033 12.3947C9.75033 12.3871 9.75033 12.3796 9.75033 12.3721C9.75033 12.3646 9.75033 12.3571 9.75033 12.3496C9.75033 12.3421 9.75033 12.3347 9.75033 12.3272C9.75033 12.3198 9.75033 12.3124 9.75033 12.3049C9.75033 12.2975 9.75033 12.2901 9.75033 12.2828C9.75033 12.2754 9.75033 12.268 9.75033 12.2607C9.75033 12.2533 9.75033 12.246 9.75033 12.2387C9.75033 12.2314 9.75033 12.2241 9.75033 12.2168C9.75033 12.2095 9.75033 12.2023 9.75033 12.195C9.75033 12.1878 9.75033 12.1806 9.75033 12.1734C9.75033 12.1661 9.75033 12.1589 9.75033 12.1518C9.75033 12.1446 9.75033 12.1374 9.75033 12.1303C9.75033 12.1231 9.75033 12.116 9.75033 12.1089C9.75033 12.1018 9.75033 12.0947 9.75033 12.0876C9.75033 12.0805 9.75033 12.0734 9.75033 12.0664C9.75033 12.0593 9.75033 12.0523 9.75033 12.0453C9.75033 12.0383 9.75033 12.0313 9.75033 12.0243C9.75033 12.0173 9.75033 12.0103 9.75033 12.0034C9.75033 11.9964 9.75033 11.9895 9.75033 11.9826C9.75033 11.9757 9.75033 11.9688 9.75033 11.9619C9.75033 11.955 9.75033 11.9481 9.75033 11.9413C9.75033 11.9344 9.75033 11.9276 9.75033 11.9207C9.75033 11.9139 9.75033 11.9071 9.75033 11.9003C9.75033 11.8935 9.75033 11.8867 9.75033 11.88C9.75033 11.8732 9.75033 11.8665 9.75033 11.8597C9.75033 11.853 9.75033 11.8463 9.75033 11.8396C9.75033 11.8329 9.75033 11.8262 9.75033 11.8196C9.75033 11.8129 9.75033 11.8062 9.75033 11.7996C9.75033 11.793 9.75033 11.7864 9.75033 11.7798C9.75033 11.7732 9.75033 11.7666 9.75033 11.76C9.75033 11.7534 9.75033 11.7469 9.75033 11.7403C9.75033 11.7338 9.75033 11.7273 9.75033 11.7208C9.75033 11.7142 9.75033 11.7077 9.75033 11.7013C9.75033 11.6948 9.75033 11.6883 9.75033 11.6819C9.75033 11.6754 9.75033 11.669 9.75033 11.6626C9.75033 11.6562 9.75033 11.6498 9.75033 11.6434C9.75033 11.637 9.75033 11.6306 9.75033 11.6243C9.75033 11.6179 9.75033 11.6116 9.75033 11.6053C9.75033 11.5989 9.75033 11.5926 9.75033 11.5863C9.75033 11.58 9.75033 11.5738 9.75033 11.5675C9.75033 11.5612 9.75033 11.555 9.75033 11.5488C9.75033 11.5425 9.75033 11.5363 9.75033 11.5301C9.75033 11.5239 9.75033 11.5177 9.75033 11.5116C9.75033 11.5054 9.75033 11.4992 9.75033 11.4931C9.75033 11.487 9.75033 11.4808 9.75033 11.4747C9.75033 11.4686 9.75033 11.4625 9.75033 11.4564C9.75033 11.4503 9.75033 11.4443 9.75033 11.4382C9.75033 11.4322 9.75033 11.4261 9.75033 11.4201C9.75033 11.4141 9.75033 11.4081 9.75033 11.4021C9.75033 11.3961 9.75033 11.3901 9.75033 11.3842C9.75033 11.3782 9.75033 11.3723 9.75033 11.3663C9.75033 11.3604 9.75033 11.3545 9.75033 11.3486C9.75033 11.3427 9.75033 11.3368 9.75033 11.3309C9.75033 11.3251 9.75033 11.3192 9.75033 11.3134C9.75033 11.3075 9.75033 11.3017 9.75033 11.2959C9.75033 11.2901 9.75033 11.2843 9.75033 11.2785C9.75033 11.2727 9.75033 11.2669 9.75033 11.2612C9.75033 11.2554 9.75033 11.2497 9.75033 11.244C9.75033 11.2383 9.75033 11.2325 9.75033 11.2268C9.75033 11.2212 9.75033 11.2155 9.75033 11.2098C9.75033 11.2041 9.75033 11.1985 9.75033 11.1929C9.75033 11.1872 9.75033 11.1816 9.75033 11.176C9.75033 11.1704 9.75033 11.1648 9.75033 11.1592C9.75033 11.1536 9.75033 11.1481 9.75033 11.1425C9.75033 11.137 9.75033 11.1314 9.75033 11.1259C9.75033 11.1204 9.75033 11.1149 9.75033 11.1094C9.75033 11.1039 9.75033 11.0984 9.75033 11.0929C9.75033 11.0875 9.75033 11.082 9.75033 11.0766C9.75033 11.0712 9.75033 11.0657 9.75033 11.0603C9.75033 11.0549 9.75033 11.0495 9.75033 11.0441C9.75033 11.0388 9.75033 11.0334 9.75033 11.028C9.75033 11.0227 9.75033 11.0174 9.75033 11.012C9.75033 11.0067 9.75033 11.0014 9.75033 10.9961C9.75033 10.9908 9.75033 10.9855 9.75033 10.9803C9.75033 10.975 9.75033 10.9697 9.75033 10.9645C9.75033 10.9593 9.75033 10.954 9.75033 10.9488C9.75033 10.9436 9.75033 10.9384 9.75033 10.9332C9.75033 10.9281 9.75033 10.9229 9.75033 10.9177C9.75033 10.9126 9.75033 10.9074 9.75033 10.9023C9.75033 10.8972 9.75033 10.8921 9.75033 10.887C9.75033 10.8819 9.75033 10.8768 9.75033 10.8717C9.75033 10.8666 9.75033 10.8616 9.75033 10.8565C9.75033 10.8515 9.75033 10.8465 9.75033 10.8414C9.75033 10.8364 9.75033 10.8314 9.75033 10.8264C9.75033 10.8214 9.75033 10.8165 9.75033 10.8115C9.75033 10.8065 9.75033 10.8016 9.75033 10.7967C9.75033 10.7917 9.75033 10.7868 9.75033 10.7819C9.75033 10.777 9.75033 10.7721 9.75033 10.7672C9.75033 10.7623 9.75033 10.7575 9.75033 10.7526C9.75033 10.7477 9.75033 10.7429 9.75033 10.7381C9.75033 10.7332 9.75033 10.7284 9.75033 10.7236C9.75033 10.7188 9.75033 10.714 9.75033 10.7093C9.75033 10.7045 9.75033 10.6997 9.75033 10.695C9.75033 10.6902 9.75033 10.6855 9.75033 10.6808C9.75033 10.6761 9.75033 10.6713 9.75033 10.6667C9.75033 10.662 9.75033 10.6573 9.75033 10.6526C9.75033 10.6479 9.75033 10.6433 9.75033 10.6386C9.75033 10.634 9.75033 10.6294 9.75033 10.6248C9.75033 10.6201 9.75033 10.6155 9.75033 10.6109C9.75033 10.6064 9.75033 10.6018 9.75033 10.5972C9.75033 10.5927 9.75033 10.5881 9.75033 10.5836C9.75033 10.579 9.75033 10.5745 9.75033 10.57C9.75033 10.5655 9.75033 10.561 9.75033 10.5565C9.75033 10.552 9.75033 10.5475 9.75033 10.5431C9.75033 10.5386 9.75033 10.5342 9.75033 10.5297C9.75033 10.5253 9.75033 10.5209 9.75033 10.5165C9.75033 10.5121 9.75033 10.5077 9.75033 10.5033C9.75033 10.4989 9.75033 10.4945 9.75033 10.4902C9.75033 10.4858 9.75033 10.4815 9.75033 10.4771C9.75033 10.4728 9.75033 10.4685 9.75033 10.4642C9.75033 10.4599 9.75033 10.4556 9.75033 10.4513C9.75033 10.447 9.75033 10.4428 9.75033 10.4385C9.75033 10.4342 9.75033 10.43 9.75033 10.4258C9.75033 10.4215 9.75033 10.4173 9.75033 10.4131C9.75033 10.4089 9.75033 10.4047 9.75033 10.4005C9.75033 10.3964 9.75033 10.3922 9.75033 10.388C9.75033 10.3839 9.75033 10.3797 9.75033 10.3756C9.75033 10.3715 9.75033 10.3674 9.75033 10.3632C9.75033 10.3591 9.75033 10.355 9.75033 10.351C9.75033 10.3469 9.75033 10.3428 9.75033 10.3388C9.75033 10.3347 9.75033 10.3307 9.75033 10.3266C9.75033 10.3226 9.75033 10.3186 9.75033 10.3146C9.75033 10.3106 9.75033 10.3066 9.75033 10.3026C9.75033 10.2986 9.75033 10.2946 9.75033 10.2907C9.75033 10.2867 9.75033 10.2828 9.75033 10.2788C9.75033 10.2749 9.75033 10.271 9.75033 10.2671C9.75033 10.2631 9.75033 10.2592 9.75033 10.2554C9.75033 10.2515 9.75033 10.2476 9.75033 10.2437C9.75033 10.2399 9.75033 10.236 9.75033 10.2322C9.75033 10.2283 9.75033 10.2245 9.75033 10.2207C9.75033 10.2169 9.75033 10.2131 9.75033 10.2093C9.75033 10.2055 9.75033 10.2017 9.75033 10.198C9.75033 10.1942 9.75033 10.1904 9.75033 10.1867C9.75033 10.1829 9.75033 10.1792 9.75033 10.1755C9.75033 10.1718 9.75033 10.1681 9.75033 10.1644C9.75033 10.1607 9.75033 10.157 9.75033 10.1533C9.75033 10.1496 9.75033 10.146 9.75033 10.1423C9.75033 10.1387 9.75033 10.135 9.75033 10.1314C9.75033 10.1278 9.75033 10.1242 9.75033 10.1206C9.75033 10.117 9.75033 10.1134 9.75033 10.1098C9.75033 10.1062 9.75033 10.1027 9.75033 10.0991C9.75033 10.0955 9.75033 10.092 9.75033 10.0885C9.75033 10.0849 9.75033 10.0814 9.75033 10.0779C9.75033 10.0744 9.75033 10.0709 9.75033 10.0674C9.75033 10.0639 9.75033 10.0604 9.75033 10.057C9.75033 10.0535 9.75033 10.05 9.75033 10.0466C9.75033 10.0432 9.75033 10.0397 9.75033 10.0363C9.75033 10.0329 9.75033 10.0295 9.75033 10.0261C9.75033 10.0227 9.75033 10.0193 9.75033 10.0159C9.75033 10.0125 9.75033 10.0092 9.75033 10.0058C9.75033 10.0025 9.75033 9.99913 9.75033 9.9958C9.75033 9.99247 9.75033 9.98915 9.75033 9.98585C9.75033 9.98254 9.75033 9.97924 9.75033 9.97595C9.75033 9.97267 9.75033 9.96939 9.75033 9.96613C9.75033 9.96287 9.75033 9.95961 9.75033 9.95637C9.75033 9.95313 9.75033 9.9499 9.75033 9.94668C9.75033 9.94346 9.75033 9.94025 9.75033 9.93705C9.75033 9.93385 9.75033 9.93067 9.75033 9.92749C9.75033 9.92431 9.75033 9.92115 9.75033 9.91799C9.75033 9.91484 9.75033 9.91169 9.75033 9.90856C9.75033 9.90543 9.75033 9.90231 9.75033 9.89919C9.75033 9.89608 9.75033 9.89298 9.75033 9.88989C9.75033 9.8868 9.75033 9.88372 9.75033 9.88065C9.75033 9.87759 9.75033 9.87453 9.75033 9.87148C9.75033 9.86843 9.75033 9.8654 9.75033 9.86237C9.75033 9.85935 9.75033 9.85633 9.75033 9.85333C9.75033 9.85032 9.75033 9.84733 9.75033 9.84434C9.75033 9.84136 9.75033 9.83839 9.75033 9.83542C9.75033 9.83246 9.75033 9.82951 9.75033 9.82657C9.75033 9.82363 9.75033 9.8207 9.75033 9.81778C9.75033 9.81486 9.75033 9.81194 9.75033 9.80905C9.75033 9.80615 9.75033 9.80326 9.75033 9.80038C9.75033 9.7975 9.75033 9.79463 9.75033 9.79177C9.75033 9.78891 9.75033 9.78606 9.75033 9.78323C9.75033 9.78039 9.75033 9.77756 9.75033 9.77474C9.75033 9.77193 9.75033 9.76912 9.75033 9.76632C9.75033 9.76353 9.75033 9.76074 9.75033 9.75796C9.75033 9.75519 9.75033 9.75242 9.75033 9.74966C9.75033 9.74691 9.75033 9.74416 9.75033 9.74143C9.75033 9.73869 9.75033 9.73596 9.75033 9.73325C9.75033 9.73053 9.75033 9.72783 9.75033 9.72513C9.75033 9.72244 9.75033 9.71975 9.75033 9.71707C9.75033 9.7144 9.75033 9.71173 9.75033 9.70908C9.75033 9.70642 9.75033 9.70378 9.75033 9.70114C9.75033 9.6985 9.75033 9.69588 9.75033 9.69326C9.75033 9.69065 9.75033 9.68804 9.75033 9.68544C9.75033 9.68285 9.75033 9.68026 9.75033 9.67768C9.75033 9.67511 9.75033 9.67254 9.75033 9.66998C9.75033 9.66743 9.75033 9.66488 9.75033 9.66234C9.75033 9.6598 9.75033 9.65728 9.75033 9.65476C9.75033 9.65224 9.75033 9.64973 9.75033 9.64723C9.75033 9.64473 9.75033 9.64224 9.75033 9.63976C9.75033 9.63728 9.75033 9.63481 9.75033 9.63235C9.75033 9.62989 9.75033 9.62744 9.75033 9.625C9.75033 9.62256 9.75033 9.62013 9.75033 9.6177C9.75033 9.61528 9.75033 9.61287 9.75033 9.61047C9.75033 9.60806 9.75033 9.60567 9.75033 9.60328C9.75033 9.6009 9.75033 9.59852 9.75033 9.59616C9.75033 9.59379 9.75033 9.59144 9.75033 9.58909C9.75033 9.58674 9.75033 9.5844 9.75033 9.58208C9.75033 9.57975 9.75033 9.57743 9.75033 9.57512C9.75033 9.57281 9.75033 9.57051 9.75033 9.56822C9.75033 9.56593 9.75033 9.56364 9.75033 9.56137C9.75033 9.5591 9.75033 9.55684 9.75033 9.55458C9.75033 9.55233 9.75033 9.55008 9.75033 9.54785C9.75033 9.54561 9.75033 9.54338 9.75033 9.54116C9.75033 9.53895 9.75033 9.53674 9.75033 9.53454C9.75033 9.53234 9.75033 9.53015 9.75033 9.52797C9.75033 9.52578 9.75033 9.52361 9.75033 9.52145C9.75033 9.51928 9.75033 9.51713 9.75033 9.51498C9.75033 9.51284 9.75033 9.5107 9.75033 9.50857C9.75033 9.50645 9.75033 9.50433 9.75033 9.50222C9.75033 9.50011 9.75033 9.498 9.75033 9.49591C9.75033 9.49382 9.75033 9.49174 9.75033 9.48966C9.75033 9.48759 9.75033 9.48552 9.75033 9.48346C9.75033 9.48141 9.75033 9.47936 9.75033 9.47732C9.75033 9.47528 9.75033 9.47325 9.75033 9.47122C9.75033 9.4692 9.75033 9.46719 9.75033 9.46518C9.75033 9.46318 9.75033 9.46118 9.75033 9.45919C9.75033 9.45721 9.75033 9.45523 9.75033 9.45326C9.75033 9.45129 9.75033 9.44932 9.75033 9.44737C9.75033 9.44542 9.75033 9.44347 9.75033 9.44153C9.75033 9.4396 9.75033 9.43767 9.75033 9.43575C9.75033 9.43383 9.75033 9.43192 9.75033 9.43002C9.75033 9.42811 9.75033 9.42622 9.75033 9.42433C9.75033 9.42245 9.75033 9.42057 9.75033 9.4187C9.75033 9.41683 9.75033 9.41497 9.75033 9.41312C9.75033 9.41127 9.75033 9.40942 9.75033 9.40759C9.75033 9.40575 9.75033 9.40392 9.75033 9.4021C9.75033 9.40028 9.75033 9.39847 9.75033 9.39667C9.75033 9.39487 9.75033 9.39307 9.75033 9.39128C9.75033 9.3895 9.75033 9.38772 9.75033 9.38595C9.75033 9.38418 9.75033 9.38242 9.75033 9.38066C9.75033 9.37891 9.75033 9.37716 9.75033 9.37542C9.75033 9.37369 9.75033 9.37196 9.75033 9.37023C9.75033 9.36851 9.75033 9.3668 9.75033 9.36509C9.75033 9.36339 9.75033 9.36169 9.75033 9.36C9.75033 9.35831 9.75033 9.35662 9.75033 9.35495C9.75033 9.35328 9.75033 9.35161 9.75033 9.34995C9.75033 9.34829 9.75033 9.34664 9.75033 9.345C9.75033 9.34336 9.75033 9.34172 9.75033 9.34009C9.75033 9.33847 9.75033 9.33685 9.75033 9.33524C9.75033 9.33362 9.75033 9.33202 9.75033 9.33042C9.75033 9.32883 9.75033 9.32724 9.75033 9.32566C9.75033 9.32408 9.75033 9.3225 9.75033 9.32094C9.75033 9.31937 9.75033 9.31781 9.75033 9.31626C9.75033 9.31471 9.75033 9.31317 9.75033 9.31164C9.75033 9.3101 9.75033 9.30857 9.75033 9.30705C9.75033 9.30553 9.75033 9.30402 9.75033 9.30252C9.75033 9.30101 9.75033 9.29951 9.75033 9.29802C9.75033 9.29653 9.75033 9.29505 9.75033 9.29358C9.75033 9.2921 9.75033 9.29063 9.75033 9.28917C9.75033 9.28771 9.75033 9.28626 9.75033 9.28481C9.75033 9.28337 9.75033 9.28193 9.75033 9.2805C9.75033 9.27907 9.75033 9.27764 9.75033 9.27623C9.75033 9.27481 9.75033 9.2734 9.75033 9.272C9.75033 9.2706 9.75033 9.2692 9.75033 9.26781C9.75033 9.26643 9.75033 9.26505 9.75033 9.26367C9.75033 9.2623 9.75033 9.26093 9.75033 9.25957C9.75033 9.25821 9.75033 9.25686 9.75033 9.25552C9.75033 9.25417 9.75033 9.25284 9.75033 9.2515C9.75033 9.25017 9.75033 9.24885 9.75033 9.24753C9.75033 9.24622 9.75033 9.24491 9.75033 9.2436C9.75033 9.2423 9.75033 9.24101 9.75033 9.23972C9.75033 9.23843 9.75033 9.23715 9.75033 9.23587C9.75033 9.2346 9.75033 9.23333 9.75033 9.23207C9.75033 9.23081 9.75033 9.22955 9.75033 9.2283C9.75033 9.22706 9.75033 9.22582 9.75033 9.22458C9.75033 9.22335 9.75033 9.22212 9.75033 9.2209C9.75033 9.21968 9.75033 9.21847 9.75033 9.21726C9.75033 9.21605 9.75033 9.21485 9.75033 9.21366C9.75033 9.21246 9.75033 9.21128 9.75033 9.2101C9.75033 9.20892 9.75033 9.20774 9.75033 9.20658C9.75033 9.20541 9.75033 9.20425 9.75033 9.20309C9.75033 9.20194 9.75033 9.20079 9.75033 9.19965C9.75033 9.19851 9.75033 9.19738 9.75033 9.19625C9.75033 9.19512 9.75033 9.194 9.75033 9.19288C9.75033 9.19177 9.75033 9.19066 9.75033 9.18956C9.75033 9.18846 9.75033 9.18736 9.75033 9.18627C9.75033 9.18518 9.75033 9.1841 9.75033 9.18302C9.75033 9.18195 9.75033 9.18088 9.75033 9.17981C9.75033 9.17875 9.75033 9.17769 9.75033 9.17664C9.75033 9.17559 9.75033 9.17454 9.75033 9.1735C9.75033 9.17246 9.75033 9.17143 9.75033 9.17041C9.75033 9.16938 9.75033 9.16836 9.75033 9.16734C9.75033 9.16633 9.75033 9.16532 9.75033 9.16432C9.75033 9.16332 9.75033 9.16232 9.75033 9.16133C9.75033 9.16034 9.75033 9.15936 9.75033 9.15838C9.75033 9.1574 9.75033 9.15643 9.75033 9.15547C9.75033 9.1545 9.75033 9.15354 9.75033 9.15259C9.75033 9.15163 9.75033 9.15069 9.75033 9.14974C9.75033 9.1488 9.75033 9.14787 9.75033 9.14694C9.75033 9.14601 9.75033 9.14508 9.75033 9.14416C9.75033 9.14325 9.75033 9.14233 9.75033 9.14143C9.75033 9.14052 9.75033 9.13962 9.75033 9.13873C9.75033 9.13783 9.75033 9.13694 9.75033 9.13606C9.75033 9.13517 9.75033 9.1343 9.75033 9.13342C9.75033 9.13255 9.75033 9.13169 9.75033 9.13083C9.75033 9.12996 9.75033 9.12911 9.75033 9.12826C9.75033 9.12741 9.75033 9.12657 9.75033 9.12573C9.75033 9.12489 9.75033 9.12406 9.75033 9.12323C9.75033 9.1224 9.75033 9.12158 9.75033 9.12077C9.75033 9.11995 9.75033 9.11914 9.75033 9.11833C9.75033 9.11753 9.75033 9.11673 9.75033 9.11594C9.75033 9.11514 9.75033 9.11435 9.75033 9.11357C9.75033 9.11279 9.75033 9.11201 9.75033 9.11124C9.75033 9.11046 9.75033 9.1097 9.75033 9.10894C9.75033 9.10817 9.75033 9.10742 9.75033 9.10667C9.75033 9.10591 9.75033 9.10517 9.75033 9.10443C9.75033 9.10369 9.75033 9.10295 9.75033 9.10222C9.75033 9.10149 9.75033 9.10077 9.75033 9.10005C9.75033 9.09933 9.75033 9.09861 9.75033 9.0979C9.75033 9.09719 9.75033 9.09649 9.75033 9.09579C9.75033 9.09509 9.75033 9.0944 9.75033 9.09371C9.75033 9.09302 9.75033 9.09234 9.75033 9.09166C9.75033 9.09098 9.75033 9.0903 9.75033 9.08963C9.75033 9.08897 9.75033 9.0883 9.75033 9.08764C9.75033 9.08698 9.75033 9.08633 9.75033 9.08568C9.75033 9.08503 9.75033 9.08439 9.75033 9.08375C9.75033 9.08311 9.75033 9.08247 9.75033 9.08184C9.75033 9.08121 9.75033 9.08059 9.75033 9.07997C9.75033 9.07935 9.75033 9.07874 9.75033 9.07812C9.75033 9.07751 9.75033 9.07691 9.75033 9.07631C9.75033 9.07571 9.75033 9.07511 9.75033 9.07452C9.75033 9.07393 9.75033 9.07334 9.75033 9.07276C9.75033 9.07218 9.75033 9.0716 9.75033 9.07103C9.75033 9.07045 9.75033 9.06989 9.75033 9.06932C9.75033 9.06876 9.75033 9.0682 9.75033 9.06765C9.75033 9.06709 9.75033 9.06654 9.75033 9.066C9.75033 9.06545 9.75033 9.06491 9.75033 9.06437C9.75033 9.06384 9.75033 9.0633 9.75033 9.06278C9.75033 9.06225 9.75033 9.06173 9.75033 9.06121C9.75033 9.06069 9.75033 9.06017 9.75033 9.05966C9.75033 9.05915 9.75033 9.05865 9.75033 9.05815C9.75033 9.05765 9.75033 9.05715 9.75033 9.05666C9.75033 9.05616 9.75033 9.05568 9.75033 9.05519C9.75033 9.05471 9.75033 9.05423 9.75033 9.05375C9.75033 9.05328 9.75033 9.0528 9.75033 9.05234C9.75033 9.05187 9.75033 9.05141 9.75033 9.05095C9.75033 9.05049 9.75033 9.05003 9.75033 9.04958C9.75033 9.04913 9.75033 9.04869 9.75033 9.04824C9.75033 9.0478 9.75033 9.04736 9.75033 9.04693C9.75033 9.04649 9.75033 9.04606 9.75033 9.04564C9.75033 9.04521 9.75033 9.04479 9.75033 9.04437C9.75033 9.04395 9.75033 9.04354 9.75033 9.04312C9.75033 9.04271 9.75033 9.04231 9.75033 9.0419C9.75033 9.0415 9.75033 9.0411 9.75033 9.04071C9.75033 9.04031 9.75033 9.03992 9.75033 9.03953C9.75033 9.03915 9.75033 9.03876 9.75033 9.03838C9.75033 9.038 9.75033 9.03763 9.75033 9.03725C9.75033 9.03688 9.75033 9.03651 9.75033 9.03615C9.75033 9.03578 9.75033 9.03542 9.75033 9.03506C9.75033 9.0347 9.75033 9.03435 9.75033 9.034C9.75033 9.03365 9.75033 9.0333 9.75033 9.03296C9.75033 9.03262 9.75033 9.03228 9.75033 9.03194C9.75033 9.0316 9.75033 9.03127 9.75033 9.03094C9.75033 9.03061 9.75033 9.03029 9.75033 9.02996C9.75033 9.02964 9.75033 9.02932 9.75033 9.02901C9.75033 9.02869 9.75033 9.02838 9.75033 9.02807C9.75033 9.02776 9.75033 9.02746 9.75033 9.02716C9.75033 9.02686 9.75033 9.02656 9.75033 9.02626C9.75033 9.02597 9.75033 9.02568 9.75033 9.02539C9.75033 9.0251 9.75033 9.02481 9.75033 9.02453C9.75033 9.02425 9.75033 9.02397 9.75033 9.02369C9.75033 9.02342 9.75033 9.02315 9.75033 9.02288C9.75033 9.02261 9.75033 9.02234 9.75033 9.02208C9.75033 9.02182 9.75033 9.02156 9.75033 9.0213C9.75033 9.02104 9.75033 9.02079 9.75033 9.02054C9.75033 9.02029 9.75033 9.02004 9.75033 9.0198C9.75033 9.01955 9.75033 9.01931 9.75033 9.01907C9.75033 9.01884 9.75033 9.0186 9.75033 9.01837C9.75033 9.01813 9.75033 9.01791 9.75033 9.01768C9.75033 9.01745 9.75033 9.01723 9.75033 9.01701C9.75033 9.01679 9.75033 9.01657 9.75033 9.01635C9.75033 9.01614 9.75033 9.01593 9.75033 9.01572C9.75033 9.01551 9.75033 9.0153 9.75033 9.0151C9.75033 9.01489 9.75033 9.01469 9.75033 9.01449C9.75033 9.01429 9.75033 9.0141 9.75033 9.0139C9.75033 9.01371 9.75033 9.01352 9.75033 9.01333C9.75033 9.01315 9.75033 9.01296 9.75033 9.01278C9.75033 9.0126 9.75033 9.01242 9.75033 9.01224C9.75033 9.01206 9.75033 9.01189 9.75033 9.01171C9.75033 9.01154 9.75033 9.01137 9.75033 9.0112C9.75033 9.01104 9.75033 9.01087 9.75033 9.01071C9.75033 9.01055 9.75033 9.01039 9.75033 9.01023C9.75033 9.01007 9.75033 9.00992 9.75033 9.00977C9.75033 9.00961 9.75033 9.00946 9.75033 9.00932C9.75033 9.00917 9.75033 9.00902 9.75033 9.00888C9.75033 9.00874 9.75033 9.00859 9.75033 9.00846C9.75033 9.00832 9.75033 9.00818 9.75033 9.00805C9.75033 9.00791 9.75033 9.00778 9.75033 9.00765C9.75033 9.00752 9.75033 9.00739 9.75033 9.00727C9.75033 9.00714 9.75033 9.00702 9.75033 9.0069C9.75033 9.00678 9.75033 9.00666 9.75033 9.00654C9.75033 9.00643 9.75033 9.00631 9.75033 9.0062C9.75033 9.00609 9.75033 9.00597 9.75033 9.00587C9.75033 9.00576 9.75033 9.00565 9.75033 9.00555C9.75033 9.00544 9.75033 9.00534 9.75033 9.00524C9.75033 9.00514 9.75033 9.00504 9.75033 9.00494C9.75033 9.00484 9.75033 9.00475 9.75033 9.00466C9.75033 9.00456 9.75033 9.00447 9.75033 9.00438C9.75033 9.00429 9.75033 9.00421 9.75033 9.00412C9.75033 9.00403 9.75033 9.00395 9.75033 9.00387C9.75033 9.00379 9.75033 9.00371 9.75033 9.00363C9.75033 9.00355 9.75033 9.00347 9.75033 9.00339C9.75033 9.00332 9.75033 9.00325 9.75033 9.00317C9.75033 9.0031 9.75033 9.00303 9.75033 9.00296C9.75033 9.00289 9.75033 9.00283 9.75033 9.00276C9.75033 9.00269 9.75033 9.00263 9.75033 9.00257C9.75033 9.0025 9.75033 9.00244 9.75033 9.00238C9.75033 9.00232 9.75033 9.00227 9.75033 9.00221C9.75033 9.00215 9.75033 9.0021 9.75033 9.00204C9.75033 9.00199 9.75033 9.00194 9.75033 9.00189C9.75033 9.00184 9.75033 9.00179 9.75033 9.00174C9.75033 9.00169 9.75033 9.00164 9.75033 9.0016C9.75033 9.00155 9.75033 9.00151 9.75033 9.00146C9.75033 9.00142 9.75033 9.00138 9.75033 9.00134C9.75033 9.0013 9.75033 9.00126 9.75033 9.00122C9.75033 9.00118 9.75033 9.00115 9.75033 9.00111C9.75033 9.00107 9.75033 9.00104 9.75033 9.00101C9.75033 9.00097 9.75033 9.00094 9.75033 9.00091C9.75033 9.00088 9.75033 9.00085 9.75033 9.00082C9.75033 9.00079 9.75033 9.00076 9.75033 9.00073C9.75033 9.00071 9.75033 9.00068 9.75033 9.00065C9.75033 9.00063 9.75033 9.00061 9.75033 9.00058C9.75033 9.00056 9.75033 9.00054 9.75033 9.00051C9.75033 9.00049 9.75033 9.00047 9.75033 9.00045C9.75033 9.00043 9.75033 9.00041 9.75033 9.0004C9.75033 9.00038 9.75033 9.00036 9.75033 9.00035C9.75033 9.00033 9.75033 9.00031 9.75033 9.0003C9.75033 9.00028 9.75033 9.00027 9.75033 9.00026C9.75033 9.00024 9.75033 9.00023 9.75033 9.00022C9.75033 9.00021 9.75033 9.00019 9.75033 9.00018C9.75033 9.00017 9.75033 9.00016 9.75033 9.00015C9.75033 9.00014 9.75033 9.00013 9.75033 9.00013C9.75033 9.00012 9.75033 9.00011 9.75033 9.0001C9.75033 9.00009 9.75033 9.00009 9.75033 9.00008C9.75033 9.00008 9.75033 9.00007 9.75033 9.00006C9.75033 9.00006 9.75033 9.00005 9.75033 9.00005C9.75033 9.00005 9.75033 9.00004 9.75033 9.00004C9.75033 9.00003 9.75033 9.00003 9.75033 9.00003C9.75033 9.00002 9.75033 9.00002 9.75033 9.00002C9.75033 9.00002 9.75033 9.00001 9.75033 9.00001C9.75033 9.00001 9.75033 9.00001 9.75033 9.00001C9.75033 9.00001 9.75033 9.00001 9.75033 9C9.75033 9 9.75033 9 9.75033 9C9.75033 9 9.75033 9 9.75033 9C9.75033 9 9.75033 9 9.75033 9C9.75033 9 9.75033 9 9.75033 9H9.00033ZM9.75033 9V4H8.25033V9H9.75033Z" fill="black"/>
</svg>
