<svg width="33" height="33" viewBox="0 0 33 33" fill="none" xmlns="http://www.w3.org/2000/svg">
<path d="M0.780702 16.0007C0.788701 7.57837 7.62284 0.757196 16.0452 0.765195C24.4675 0.773195 31.2887 7.60733 31.2807 16.0297C31.2727 24.452 24.4385 31.2732 16.0162 31.2652C7.59387 31.2572 0.772703 24.423 0.780702 16.0007Z" fill="white"/>
<path d="M0.780702 16.0007C0.788701 7.57837 7.62284 0.757196 16.0452 0.765195C24.4675 0.773195 31.2887 7.60733 31.2807 16.0297C31.2727 24.452 24.4385 31.2732 16.0162 31.2652C7.59387 31.2572 0.772703 24.423 0.780702 16.0007Z" stroke="#2C2E2F" stroke-width="1.5"/>
<path d="M23.0303 20.1586C23.0303 19.5145 22.7537 18.8968 22.2614 18.4413C21.7691 17.9859 21.1015 17.73 20.4053 17.73L11.6553 17.73C10.9591 17.73 10.2914 17.9859 9.79912 18.4413C9.30684 18.8968 9.03027 19.5145 9.03027 20.1586L9.03027 20.28C9.03027 20.28 9.03027 25.0157 16.0303 25.0157C22.7013 25.0157 23.0145 20.7155 23.0303 20.3108L23.0303 20.1586Z" fill="#2C2E2F"/>
<path d="M18.7503 14.9253C19.4717 14.1663 19.877 13.1367 19.877 12.0632C19.877 10.9897 19.4717 9.96022 18.7503 9.20115C18.0289 8.44207 17.0505 8.01562 16.0303 8.01562C15.0101 8.01562 14.0316 8.44207 13.3102 9.20115C12.5888 9.96022 12.1835 10.9897 12.1835 12.0632C12.1835 13.1367 12.5888 14.1663 13.3102 14.9253C14.0316 15.6844 15.0101 16.1109 16.0303 16.1109C17.0505 16.1109 18.0289 15.6844 18.7503 14.9253Z" fill="#2C2E2F"/>
</svg>
