<svg width="20" height="20" viewBox="0 0 20 20" fill="none" xmlns="http://www.w3.org/2000/svg">
<path fill-rule="evenodd" clip-rule="evenodd" d="M9.22102 13.8868C9.83373 13.8868 10.4404 13.7661 11.0065 13.5316C11.5726 13.2971 12.087 12.9535 12.5202 12.5202C12.9535 12.087 13.2971 11.5726 13.5316 11.0065C13.7661 10.4404 13.8868 9.83373 13.8868 9.22102C13.8868 8.6083 13.7661 8.00158 13.5316 7.43551C13.2971 6.86943 12.9535 6.35508 12.5202 5.92182C12.087 5.48857 11.5726 5.14489 11.0065 4.91041C10.4404 4.67594 9.83373 4.55525 9.22102 4.55525C7.98358 4.55525 6.79682 5.04682 5.92182 5.92182C5.04682 6.79682 4.55525 7.98358 4.55525 9.22102C4.55525 10.4585 5.04682 11.6452 5.92182 12.5202C6.79682 13.3952 7.98358 13.8868 9.22102 13.8868ZM9.22102 15.442C10.8709 15.442 12.4533 14.7866 13.6199 13.6199C14.7866 12.4533 15.442 10.8709 15.442 9.22102C15.442 7.5711 14.7866 5.98876 13.6199 4.82209C12.4533 3.65543 10.8709 3 9.22102 3C7.5711 3 5.98876 3.65543 4.82209 4.82209C3.65543 5.98876 3 7.5711 3 9.22102C3 10.8709 3.65543 12.4533 4.82209 13.6199C5.98876 14.7866 7.5711 15.442 9.22102 15.442Z" fill="current"/>
<path fill-rule="evenodd" clip-rule="evenodd" d="M12.5808 12.5568C12.7271 12.4115 12.9252 12.3303 13.1314 12.3311C13.3376 12.3318 13.5351 12.4144 13.6804 12.5607L16.7714 15.6712C16.9127 15.8182 16.9906 16.0149 16.9883 16.2188C16.9859 16.4227 16.9036 16.6176 16.759 16.7614C16.6144 16.9052 16.4191 16.9864 16.2152 16.9876C16.0112 16.9887 15.815 16.9098 15.6688 16.7676L12.5777 13.6571C12.4323 13.5109 12.351 13.3129 12.3516 13.1067C12.3521 12.9005 12.4346 12.703 12.5808 12.5576V12.5568Z" fill="current"/>
</svg>
