<svg width="14" height="15" viewBox="0 0 14 15" fill="none" xmlns="http://www.w3.org/2000/svg">
<path d="M6.99425 1.66663C3.77425 1.66663 1.16675 4.27996 1.16675 7.49996C1.16675 10.72 3.77425 13.3333 6.99425 13.3333C10.2201 13.3333 12.8334 10.72 12.8334 7.49996C12.8334 4.27996 10.2201 1.66663 6.99425 1.66663ZM7.00008 12.1666C4.42175 12.1666 2.33341 10.0783 2.33341 7.49996C2.33341 4.92163 4.42175 2.83329 7.00008 2.83329C9.57841 2.83329 11.6667 4.92163 11.6667 7.49996C11.6667 10.0783 9.57841 12.1666 7.00008 12.1666Z" fill="#5359FF"/>
<path fill-rule="evenodd" clip-rule="evenodd" d="M9.53361 5.81307C9.71113 6.00833 9.71113 6.32492 9.53361 6.52018L6.80634 9.52018C6.62883 9.71544 6.34103 9.71544 6.16352 9.52018L4.79988 8.02018C4.62237 7.82492 4.62237 7.50833 4.79988 7.31307C4.97739 7.11781 5.26519 7.11781 5.44271 7.31307L6.48493 8.45952L8.89079 5.81307C9.0683 5.61781 9.3561 5.61781 9.53361 5.81307Z" fill="#5359FF"/>
</svg>
