<svg width="24" height="24" viewBox="0 0 24 24" fill="none" xmlns="http://www.w3.org/2000/svg">
<path d="M2.49252 17.5359C2.33646 17.3901 2.21259 17.2166 2.12805 17.0254C2.04352 16.8342 2 16.6292 2 16.4221C2 16.215 2.04352 16.0099 2.12805 15.8187C2.21259 15.6276 2.33646 15.454 2.49252 15.3082L10.8178 7.46406C10.9726 7.31701 11.1568 7.2003 11.3597 7.12065C11.5626 7.04101 11.7802 7 12 7C12.2198 7 12.4374 7.04101 12.6403 7.12065C12.8432 7.2003 13.0274 7.31701 13.1822 7.46406L21.5075 15.3082C21.6635 15.454 21.7874 15.6276 21.8719 15.8187C21.9565 16.0099 22 16.215 22 16.4221C22 16.6292 21.9565 16.8342 21.8719 17.0254C21.7874 17.2166 21.6635 17.3901 21.5075 17.5359C21.3527 17.683 21.1685 17.7997 20.9656 17.8793C20.7627 17.959 20.5451 18 20.3253 18C20.1055 18 19.8878 17.959 19.6849 17.8793C19.482 17.7997 19.2979 17.683 19.1431 17.5359L12 10.79L4.8569 17.5359C4.70211 17.683 4.51796 17.7997 4.31505 17.8793C4.11215 17.959 3.89452 18 3.67471 18C3.4549 18 3.23727 17.959 3.03437 17.8793C2.83147 17.7997 2.64731 17.683 2.49252 17.5359Z" fill="current"/>
</svg>
