<svg width="24" height="24" viewBox="0 0 24 24" fill="none" xmlns="http://www.w3.org/2000/svg">
<g id="18*18 icon">
<path id="Vector-48" d="M5.33203 11.2501C4.91782 11.2501 4.58203 11.5859 4.58203 12.0001C4.58203 12.4143 4.91782 12.7501 5.33203 12.7501V11.2501ZM11.9987 12.7501C12.4129 12.7501 12.7487 12.4143 12.7487 12.0001C12.7487 11.5859 12.4129 11.2501 11.9987 11.2501V12.7501ZM11.9987 11.2501C11.5845 11.2501 11.2487 11.5859 11.2487 12.0001C11.2487 12.4143 11.5845 12.7501 11.9987 12.7501V11.2501ZM18.6654 12.7501C19.0796 12.7501 19.4154 12.4143 19.4154 12.0001C19.4154 11.5859 19.0796 11.2501 18.6654 11.2501V12.7501ZM12.7491 11.9997C12.7491 11.5855 12.4133 11.2497 11.9991 11.2497C11.5849 11.2497 11.2491 11.5855 11.2491 11.9997H12.7491ZM11.2491 18.6663C11.2491 19.0806 11.5849 19.4163 11.9991 19.4163C12.4133 19.4163 12.7491 19.0806 12.7491 18.6663H11.2491ZM11.2491 11.9997C11.2491 12.4139 11.5849 12.7497 11.9991 12.7497C12.4133 12.7497 12.7491 12.4139 12.7491 11.9997H11.2491ZM12.7491 5.33301C12.7491 4.91879 12.4133 4.58301 11.9991 4.58301C11.5849 4.58301 11.2491 4.91879 11.2491 5.33301H12.7491ZM5.33203 12.0001V12.7501H11.9987V12.0001V11.2501H5.33203V12.0001ZM11.9987 12.0001V12.7501H18.6654V12.0001V11.2501H11.9987V12.0001ZM11.9991 11.9997C11.9991 11.9997 11.2491 11.9997 11.2491 11.9997C11.2491 11.9997 11.2491 11.9997 11.2491 11.9997C11.2491 11.9997 11.2491 11.9997 11.2491 11.9997C11.2491 11.9997 11.2491 11.9997 11.2491 11.9997C11.2491 11.9997 11.2491 11.9997 11.2491 11.9997C11.2491 11.9997 11.2491 11.9997 11.2491 11.9997C11.2491 11.9997 11.2491 11.9997 11.2491 11.9997C11.2491 11.9997 11.2491 11.9997 11.2491 11.9997C11.2491 11.9997 11.2491 11.9997 11.2491 11.9997C11.2491 11.9997 11.2491 11.9997 11.2491 11.9997C11.2491 11.9997 11.2491 11.9997 11.2491 11.9997C11.2491 11.9997 11.2491 11.9998 11.2491 11.9998C11.2491 11.9998 11.2491 11.9998 11.2491 11.9998C11.2491 11.9998 11.2491 11.9998 11.2491 11.9998C11.2491 11.9998 11.2491 11.9998 11.2491 11.9998C11.2491 11.9999 11.2491 11.9999 11.2491 11.9999C11.2491 11.9999 11.2491 11.9999 11.2491 11.9999C11.2491 11.9999 11.2491 11.9999 11.2491 12C11.2491 12 11.2491 12 11.2491 12C11.2491 12 11.2491 12.0001 11.2491 12.0001C11.2491 12.0001 11.2491 12.0001 11.2491 12.0001C11.2491 12.0002 11.2491 12.0002 11.2491 12.0002C11.2491 12.0002 11.2491 12.0003 11.2491 12.0003C11.2491 12.0003 11.2491 12.0003 11.2491 12.0004C11.2491 12.0004 11.2491 12.0004 11.2491 12.0005C11.2491 12.0005 11.2491 12.0005 11.2491 12.0005C11.2491 12.0006 11.2491 12.0006 11.2491 12.0007C11.2491 12.0007 11.2491 12.0007 11.2491 12.0008C11.2491 12.0008 11.2491 12.0008 11.2491 12.0009C11.2491 12.0009 11.2491 12.001 11.2491 12.001C11.2491 12.0011 11.2491 12.0011 11.2491 12.0012C11.2491 12.0012 11.2491 12.0013 11.2491 12.0013C11.2491 12.0014 11.2491 12.0014 11.2491 12.0015C11.2491 12.0015 11.2491 12.0016 11.2491 12.0016C11.2491 12.0017 11.2491 12.0017 11.2491 12.0018C11.2491 12.0019 11.2491 12.0019 11.2491 12.002C11.2491 12.0021 11.2491 12.0021 11.2491 12.0022C11.2491 12.0023 11.2491 12.0023 11.2491 12.0024C11.2491 12.0025 11.2491 12.0025 11.2491 12.0026C11.2491 12.0027 11.2491 12.0028 11.2491 12.0029C11.2491 12.0029 11.2491 12.003 11.2491 12.0031C11.2491 12.0032 11.2491 12.0033 11.2491 12.0034C11.2491 12.0034 11.2491 12.0035 11.2491 12.0036C11.2491 12.0037 11.2491 12.0038 11.2491 12.0039C11.2491 12.004 11.2491 12.0041 11.2491 12.0042C11.2491 12.0043 11.2491 12.0044 11.2491 12.0045C11.2491 12.0046 11.2491 12.0047 11.2491 12.0048C11.2491 12.0049 11.2491 12.0051 11.2491 12.0052C11.2491 12.0053 11.2491 12.0054 11.2491 12.0055C11.2491 12.0056 11.2491 12.0058 11.2491 12.0059C11.2491 12.006 11.2491 12.0061 11.2491 12.0063C11.2491 12.0064 11.2491 12.0065 11.2491 12.0067C11.2491 12.0068 11.2491 12.0069 11.2491 12.0071C11.2491 12.0072 11.2491 12.0074 11.2491 12.0075C11.2491 12.0076 11.2491 12.0078 11.2491 12.0079C11.2491 12.0081 11.2491 12.0082 11.2491 12.0084C11.2491 12.0086 11.2491 12.0087 11.2491 12.0089C11.2491 12.009 11.2491 12.0092 11.2491 12.0094C11.2491 12.0095 11.2491 12.0097 11.2491 12.0099C11.2491 12.01 11.2491 12.0102 11.2491 12.0104C11.2491 12.0106 11.2491 12.0108 11.2491 12.0109C11.2491 12.0111 11.2491 12.0113 11.2491 12.0115C11.2491 12.0117 11.2491 12.0119 11.2491 12.0121C11.2491 12.0123 11.2491 12.0125 11.2491 12.0127C11.2491 12.0129 11.2491 12.0131 11.2491 12.0133C11.2491 12.0135 11.2491 12.0137 11.2491 12.014C11.2491 12.0142 11.2491 12.0144 11.2491 12.0146C11.2491 12.0148 11.2491 12.0151 11.2491 12.0153C11.2491 12.0155 11.2491 12.0158 11.2491 12.016C11.2491 12.0162 11.2491 12.0165 11.2491 12.0167C11.2491 12.017 11.2491 12.0172 11.2491 12.0175C11.2491 12.0177 11.2491 12.018 11.2491 12.0182C11.2491 12.0185 11.2491 12.0187 11.2491 12.019C11.2491 12.0193 11.2491 12.0195 11.2491 12.0198C11.2491 12.0201 11.2491 12.0203 11.2491 12.0206C11.2491 12.0209 11.2491 12.0212 11.2491 12.0215C11.2491 12.0218 11.2491 12.0221 11.2491 12.0224C11.2491 12.0226 11.2491 12.0229 11.2491 12.0232C11.2491 12.0235 11.2491 12.0239 11.2491 12.0242C11.2491 12.0245 11.2491 12.0248 11.2491 12.0251C11.2491 12.0254 11.2491 12.0257 11.2491 12.0261C11.2491 12.0264 11.2491 12.0267 11.2491 12.0271C11.2491 12.0274 11.2491 12.0277 11.2491 12.0281C11.2491 12.0284 11.2491 12.0288 11.2491 12.0291C11.2491 12.0295 11.2491 12.0298 11.2491 12.0302C11.2491 12.0305 11.2491 12.0309 11.2491 12.0313C11.2491 12.0316 11.2491 12.032 11.2491 12.0324C11.2491 12.0328 11.2491 12.0331 11.2491 12.0335C11.2491 12.0339 11.2491 12.0343 11.2491 12.0347C11.2491 12.0351 11.2491 12.0355 11.2491 12.0359C11.2491 12.0363 11.2491 12.0367 11.2491 12.0371C11.2491 12.0375 11.2491 12.0379 11.2491 12.0384C11.2491 12.0388 11.2491 12.0392 11.2491 12.0396C11.2491 12.0401 11.2491 12.0405 11.2491 12.0409C11.2491 12.0414 11.2491 12.0418 11.2491 12.0423C11.2491 12.0427 11.2491 12.0432 11.2491 12.0436C11.2491 12.0441 11.2491 12.0445 11.2491 12.045C11.2491 12.0455 11.2491 12.0459 11.2491 12.0464C11.2491 12.0469 11.2491 12.0474 11.2491 12.0479C11.2491 12.0484 11.2491 12.0488 11.2491 12.0493C11.2491 12.0498 11.2491 12.0503 11.2491 12.0508C11.2491 12.0514 11.2491 12.0519 11.2491 12.0524C11.2491 12.0529 11.2491 12.0534 11.2491 12.054C11.2491 12.0545 11.2491 12.055 11.2491 12.0555C11.2491 12.0561 11.2491 12.0566 11.2491 12.0572C11.2491 12.0577 11.2491 12.0583 11.2491 12.0588C11.2491 12.0594 11.2491 12.06 11.2491 12.0605C11.2491 12.0611 11.2491 12.0617 11.2491 12.0622C11.2491 12.0628 11.2491 12.0634 11.2491 12.064C11.2491 12.0646 11.2491 12.0652 11.2491 12.0658C11.2491 12.0664 11.2491 12.067 11.2491 12.0676C11.2491 12.0682 11.2491 12.0688 11.2491 12.0695C11.2491 12.0701 11.2491 12.0707 11.2491 12.0713C11.2491 12.072 11.2491 12.0726 11.2491 12.0733C11.2491 12.0739 11.2491 12.0746 11.2491 12.0752C11.2491 12.0759 11.2491 12.0765 11.2491 12.0772C11.2491 12.0779 11.2491 12.0785 11.2491 12.0792C11.2491 12.0799 11.2491 12.0806 11.2491 12.0813C11.2491 12.082 11.2491 12.0827 11.2491 12.0834C11.2491 12.0841 11.2491 12.0848 11.2491 12.0855C11.2491 12.0862 11.2491 12.0869 11.2491 12.0877C11.2491 12.0884 11.2491 12.0891 11.2491 12.0899C11.2491 12.0906 11.2491 12.0914 11.2491 12.0921C11.2491 12.0929 11.2491 12.0936 11.2491 12.0944C11.2491 12.0951 11.2491 12.0959 11.2491 12.0967C11.2491 12.0975 11.2491 12.0982 11.2491 12.099C11.2491 12.0998 11.2491 12.1006 11.2491 12.1014C11.2491 12.1022 11.2491 12.103 11.2491 12.1038C11.2491 12.1047 11.2491 12.1055 11.2491 12.1063C11.2491 12.1071 11.2491 12.108 11.2491 12.1088C11.2491 12.1096 11.2491 12.1105 11.2491 12.1113C11.2491 12.1122 11.2491 12.113 11.2491 12.1139C11.2491 12.1148 11.2491 12.1157 11.2491 12.1165C11.2491 12.1174 11.2491 12.1183 11.2491 12.1192C11.2491 12.1201 11.2491 12.121 11.2491 12.1219C11.2491 12.1228 11.2491 12.1237 11.2491 12.1246C11.2491 12.1255 11.2491 12.1265 11.2491 12.1274C11.2491 12.1283 11.2491 12.1293 11.2491 12.1302C11.2491 12.1312 11.2491 12.1321 11.2491 12.1331C11.2491 12.134 11.2491 12.135 11.2491 12.136C11.2491 12.1369 11.2491 12.1379 11.2491 12.1389C11.2491 12.1399 11.2491 12.1409 11.2491 12.1419C11.2491 12.1429 11.2491 12.1439 11.2491 12.1449C11.2491 12.1459 11.2491 12.147 11.2491 12.148C11.2491 12.149 11.2491 12.1501 11.2491 12.1511C11.2491 12.1521 11.2491 12.1532 11.2491 12.1543C11.2491 12.1553 11.2491 12.1564 11.2491 12.1575C11.2491 12.1585 11.2491 12.1596 11.2491 12.1607C11.2491 12.1618 11.2491 12.1629 11.2491 12.164C11.2491 12.1651 11.2491 12.1662 11.2491 12.1673C11.2491 12.1684 11.2491 12.1696 11.2491 12.1707C11.2491 12.1718 11.2491 12.173 11.2491 12.1741C11.2491 12.1753 11.2491 12.1764 11.2491 12.1776C11.2491 12.1787 11.2491 12.1799 11.2491 12.1811C11.2491 12.1823 11.2491 12.1834 11.2491 12.1846C11.2491 12.1858 11.2491 12.187 11.2491 12.1882C11.2491 12.1895 11.2491 12.1907 11.2491 12.1919C11.2491 12.1931 11.2491 12.1944 11.2491 12.1956C11.2491 12.1968 11.2491 12.1981 11.2491 12.1993C11.2491 12.2006 11.2491 12.2019 11.2491 12.2031C11.2491 12.2044 11.2491 12.2057 11.2491 12.207C11.2491 12.2083 11.2491 12.2095 11.2491 12.2108C11.2491 12.2122 11.2491 12.2135 11.2491 12.2148C11.2491 12.2161 11.2491 12.2174 11.2491 12.2188C11.2491 12.2201 11.2491 12.2214 11.2491 12.2228C11.2491 12.2242 11.2491 12.2255 11.2491 12.2269C11.2491 12.2283 11.2491 12.2296 11.2491 12.231C11.2491 12.2324 11.2491 12.2338 11.2491 12.2352C11.2491 12.2366 11.2491 12.238 11.2491 12.2394C11.2491 12.2408 11.2491 12.2423 11.2491 12.2437C11.2491 12.2451 11.2491 12.2466 11.2491 12.248C11.2491 12.2495 11.2491 12.251 11.2491 12.2524C11.2491 12.2539 11.2491 12.2554 11.2491 12.2569C11.2491 12.2583 11.2491 12.2598 11.2491 12.2613C11.2491 12.2628 11.2491 12.2644 11.2491 12.2659C11.2491 12.2674 11.2491 12.2689 11.2491 12.2705C11.2491 12.272 11.2491 12.2736 11.2491 12.2751C11.2491 12.2767 11.2491 12.2782 11.2491 12.2798C11.2491 12.2814 11.2491 12.283 11.2491 12.2846C11.2491 12.2861 11.2491 12.2877 11.2491 12.2894C11.2491 12.291 11.2491 12.2926 11.2491 12.2942C11.2491 12.2958 11.2491 12.2975 11.2491 12.2991C11.2491 12.3008 11.2491 12.3024 11.2491 12.3041C11.2491 12.3057 11.2491 12.3074 11.2491 12.3091C11.2491 12.3108 11.2491 12.3125 11.2491 12.3142C11.2491 12.3159 11.2491 12.3176 11.2491 12.3193C11.2491 12.321 11.2491 12.3227 11.2491 12.3245C11.2491 12.3262 11.2491 12.328 11.2491 12.3297C11.2491 12.3315 11.2491 12.3332 11.2491 12.335C11.2491 12.3368 11.2491 12.3386 11.2491 12.3404C11.2491 12.3422 11.2491 12.344 11.2491 12.3458C11.2491 12.3476 11.2491 12.3494 11.2491 12.3512C11.2491 12.3531 11.2491 12.3549 11.2491 12.3568C11.2491 12.3586 11.2491 12.3605 11.2491 12.3623C11.2491 12.3642 11.2491 12.3661 11.2491 12.368C11.2491 12.3699 11.2491 12.3718 11.2491 12.3737C11.2491 12.3756 11.2491 12.3775 11.2491 12.3794C11.2491 12.3814 11.2491 12.3833 11.2491 12.3852C11.2491 12.3872 11.2491 12.3891 11.2491 12.3911C11.2491 12.3931 11.2491 12.3951 11.2491 12.397C11.2491 12.399 11.2491 12.401 11.2491 12.403C11.2491 12.405 11.2491 12.4071 11.2491 12.4091C11.2491 12.4111 11.2491 12.4131 11.2491 12.4152C11.2491 12.4172 11.2491 12.4193 11.2491 12.4214C11.2491 12.4234 11.2491 12.4255 11.2491 12.4276C11.2491 12.4297 11.2491 12.4318 11.2491 12.4339C11.2491 12.436 11.2491 12.4381 11.2491 12.4402C11.2491 12.4424 11.2491 12.4445 11.2491 12.4467C11.2491 12.4488 11.2491 12.451 11.2491 12.4531C11.2491 12.4553 11.2491 12.4575 11.2491 12.4597C11.2491 12.4619 11.2491 12.4641 11.2491 12.4663C11.2491 12.4685 11.2491 12.4707 11.2491 12.4729C11.2491 12.4752 11.2491 12.4774 11.2491 12.4797C11.2491 12.4819 11.2491 12.4842 11.2491 12.4865C11.2491 12.4887 11.2491 12.491 11.2491 12.4933C11.2491 12.4956 11.2491 12.4979 11.2491 12.5002C11.2491 12.5026 11.2491 12.5049 11.2491 12.5072C11.2491 12.5096 11.2491 12.5119 11.2491 12.5143C11.2491 12.5166 11.2491 12.519 11.2491 12.5214C11.2491 12.5238 11.2491 12.5262 11.2491 12.5286C11.2491 12.531 11.2491 12.5334 11.2491 12.5358C11.2491 12.5382 11.2491 12.5407 11.2491 12.5431C11.2491 12.5456 11.2491 12.548 11.2491 12.5505C11.2491 12.553 11.2491 12.5555 11.2491 12.5579C11.2491 12.5604 11.2491 12.5629 11.2491 12.5655C11.2491 12.568 11.2491 12.5705 11.2491 12.573C11.2491 12.5756 11.2491 12.5781 11.2491 12.5807C11.2491 12.5832 11.2491 12.5858 11.2491 12.5884C11.2491 12.591 11.2491 12.5936 11.2491 12.5962C11.2491 12.5988 11.2491 12.6014 11.2491 12.604C11.2491 12.6066 11.2491 12.6093 11.2491 12.6119C11.2491 12.6146 11.2491 12.6172 11.2491 12.6199C11.2491 12.6226 11.2491 12.6253 11.2491 12.628C11.2491 12.6307 11.2491 12.6334 11.2491 12.6361C11.2491 12.6388 11.2491 12.6415 11.2491 12.6443C11.2491 12.647 11.2491 12.6498 11.2491 12.6526C11.2491 12.6553 11.2491 12.6581 11.2491 12.6609C11.2491 12.6637 11.2491 12.6665 11.2491 12.6693C11.2491 12.6721 11.2491 12.6749 11.2491 12.6778C11.2491 12.6806 11.2491 12.6835 11.2491 12.6863C11.2491 12.6892 11.2491 12.6921 11.2491 12.6949C11.2491 12.6978 11.2491 12.7007 11.2491 12.7036C11.2491 12.7065 11.2491 12.7095 11.2491 12.7124C11.2491 12.7153 11.2491 12.7183 11.2491 12.7212C11.2491 12.7242 11.2491 12.7272 11.2491 12.7301C11.2491 12.7331 11.2491 12.7361 11.2491 12.7391C11.2491 12.7421 11.2491 12.7451 11.2491 12.7482C11.2491 12.7512 11.2491 12.7542 11.2491 12.7573C11.2491 12.7604 11.2491 12.7634 11.2491 12.7665C11.2491 12.7696 11.2491 12.7727 11.2491 12.7758C11.2491 12.7789 11.2491 12.782 11.2491 12.7851C11.2491 12.7883 11.2491 12.7914 11.2491 12.7946C11.2491 12.7977 11.2491 12.8009 11.2491 12.8041C11.2491 12.8072 11.2491 12.8104 11.2491 12.8136C11.2491 12.8168 11.2491 12.8201 11.2491 12.8233C11.2491 12.8265 11.2491 12.8298 11.2491 12.833C11.2491 12.8363 11.2491 12.8395 11.2491 12.8428C11.2491 12.8461 11.2491 12.8494 11.2491 12.8527C11.2491 12.856 11.2491 12.8593 11.2491 12.8626C11.2491 12.866 11.2491 12.8693 11.2491 12.8727C11.2491 12.876 11.2491 12.8794 11.2491 12.8828C11.2491 12.8862 11.2491 12.8896 11.2491 12.893C11.2491 12.8964 11.2491 12.8998 11.2491 12.9033C11.2491 12.9067 11.2491 12.9101 11.2491 12.9136C11.2491 12.9171 11.2491 12.9205 11.2491 12.924C11.2491 12.9275 11.2491 12.931 11.2491 12.9345C11.2491 12.938 11.2491 12.9416 11.2491 12.9451C11.2491 12.9487 11.2491 12.9522 11.2491 12.9558C11.2491 12.9593 11.2491 12.9629 11.2491 12.9665C11.2491 12.9701 11.2491 12.9737 11.2491 12.9773C11.2491 12.981 11.2491 12.9846 11.2491 12.9882C11.2491 12.9919 11.2491 12.9956 11.2491 12.9992C11.2491 13.0029 11.2491 13.0066 11.2491 13.0103C11.2491 13.014 11.2491 13.0177 11.2491 13.0214C11.2491 13.0252 11.2491 13.0289 11.2491 13.0327C11.2491 13.0364 11.2491 13.0402 11.2491 13.044C11.2491 13.0478 11.2491 13.0516 11.2491 13.0554C11.2491 13.0592 11.2491 13.063 11.2491 13.0668C11.2491 13.0707 11.2491 13.0745 11.2491 13.0784C11.2491 13.0823 11.2491 13.0861 11.2491 13.09C11.2491 13.0939 11.2491 13.0978 11.2491 13.1018C11.2491 13.1057 11.2491 13.1096 11.2491 13.1136C11.2491 13.1175 11.2491 13.1215 11.2491 13.1255C11.2491 13.1294 11.2491 13.1334 11.2491 13.1374C11.2491 13.1414 11.2491 13.1455 11.2491 13.1495C11.2491 13.1535 11.2491 13.1576 11.2491 13.1616C11.2491 13.1657 11.2491 13.1698 11.2491 13.1739C11.2491 13.178 11.2491 13.1821 11.2491 13.1862C11.2491 13.1903 11.2491 13.1945 11.2491 13.1986C11.2491 13.2027 11.2491 13.2069 11.2491 13.2111C11.2491 13.2153 11.2491 13.2195 11.2491 13.2237C11.2491 13.2279 11.2491 13.2321 11.2491 13.2363C11.2491 13.2406 11.2491 13.2448 11.2491 13.2491C11.2491 13.2533 11.2491 13.2576 11.2491 13.2619C11.2491 13.2662 11.2491 13.2705 11.2491 13.2748C11.2491 13.2792 11.2491 13.2835 11.2491 13.2878C11.2491 13.2922 11.2491 13.2966 11.2491 13.3009C11.2491 13.3053 11.2491 13.3097 11.2491 13.3141C11.2491 13.3185 11.2491 13.323 11.2491 13.3274C11.2491 13.3319 11.2491 13.3363 11.2491 13.3408C11.2491 13.3452 11.2491 13.3497 11.2491 13.3542C11.2491 13.3587 11.2491 13.3632 11.2491 13.3678C11.2491 13.3723 11.2491 13.3769 11.2491 13.3814C11.2491 13.386 11.2491 13.3906 11.2491 13.3951C11.2491 13.3997 11.2491 13.4043 11.2491 13.409C11.2491 13.4136 11.2491 13.4182 11.2491 13.4229C11.2491 13.4275 11.2491 13.4322 11.2491 13.4369C11.2491 13.4415 11.2491 13.4462 11.2491 13.451C11.2491 13.4557 11.2491 13.4604 11.2491 13.4651C11.2491 13.4699 11.2491 13.4746 11.2491 13.4794C11.2491 13.4842 11.2491 13.489 11.2491 13.4938C11.2491 13.4986 11.2491 13.5034 11.2491 13.5082C11.2491 13.5131 11.2491 13.5179 11.2491 13.5228C11.2491 13.5277 11.2491 13.5325 11.2491 13.5374C11.2491 13.5423 11.2491 13.5472 11.2491 13.5522C11.2491 13.5571 11.2491 13.562 11.2491 13.567C11.2491 13.572 11.2491 13.5769 11.2491 13.5819C11.2491 13.5869 11.2491 13.5919 11.2491 13.597C11.2491 13.602 11.2491 13.607 11.2491 13.6121C11.2491 13.6171 11.2491 13.6222 11.2491 13.6273C11.2491 13.6324 11.2491 13.6375 11.2491 13.6426C11.2491 13.6477 11.2491 13.6528 11.2491 13.658C11.2491 13.6631 11.2491 13.6683 11.2491 13.6735C11.2491 13.6787 11.2491 13.6839 11.2491 13.6891C11.2491 13.6943 11.2491 13.6995 11.2491 13.7048C11.2491 13.71 11.2491 13.7153 11.2491 13.7206C11.2491 13.7258 11.2491 13.7311 11.2491 13.7364C11.2491 13.7418 11.2491 13.7471 11.2491 13.7524C11.2491 13.7578 11.2491 13.7631 11.2491 13.7685C11.2491 13.7739 11.2491 13.7793 11.2491 13.7847C11.2491 13.7901 11.2491 13.7955 11.2491 13.801C11.2491 13.8064 11.2491 13.8119 11.2491 13.8173C11.2491 13.8228 11.2491 13.8283 11.2491 13.8338C11.2491 13.8393 11.2491 13.8448 11.2491 13.8504C11.2491 13.8559 11.2491 13.8615 11.2491 13.8671C11.2491 13.8726 11.2491 13.8782 11.2491 13.8838C11.2491 13.8894 11.2491 13.8951 11.2491 13.9007C11.2491 13.9063 11.2491 13.912 11.2491 13.9177C11.2491 13.9234 11.2491 13.929 11.2491 13.9347C11.2491 13.9405 11.2491 13.9462 11.2491 13.9519C11.2491 13.9577 11.2491 13.9634 11.2491 13.9692C11.2491 13.975 11.2491 13.9808 11.2491 13.9866C11.2491 13.9924 11.2491 13.9982 11.2491 14.0041C11.2491 14.0099 11.2491 14.0158 11.2491 14.0216C11.2491 14.0275 11.2491 14.0334 11.2491 14.0393C11.2491 14.0452 11.2491 14.0512 11.2491 14.0571C11.2491 14.0631 11.2491 14.069 11.2491 14.075C11.2491 14.081 11.2491 14.087 11.2491 14.093C11.2491 14.099 11.2491 14.105 11.2491 14.1111C11.2491 14.1171 11.2491 14.1232 11.2491 14.1293C11.2491 14.1354 11.2491 14.1415 11.2491 14.1476C11.2491 14.1537 11.2491 14.1599 11.2491 14.166C11.2491 14.1722 11.2491 14.1783 11.2491 14.1845C11.2491 14.1907 11.2491 14.1969 11.2491 14.2032C11.2491 14.2094 11.2491 14.2156 11.2491 14.2219C11.2491 14.2281 11.2491 14.2344 11.2491 14.2407C11.2491 14.247 11.2491 14.2533 11.2491 14.2596C11.2491 14.266 11.2491 14.2723 11.2491 14.2787C11.2491 14.2851 11.2491 14.2914 11.2491 14.2978C11.2491 14.3042 11.2491 14.3107 11.2491 14.3171C11.2491 14.3235 11.2491 14.33 11.2491 14.3365C11.2491 14.3429 11.2491 14.3494 11.2491 14.3559C11.2491 14.3625 11.2491 14.369 11.2491 14.3755C11.2491 14.3821 11.2491 14.3886 11.2491 14.3952C11.2491 14.4018 11.2491 14.4084 11.2491 14.415C11.2491 14.4216 11.2491 14.4283 11.2491 14.4349C11.2491 14.4416 11.2491 14.4482 11.2491 14.4549C11.2491 14.4616 11.2491 14.4683 11.2491 14.4751C11.2491 14.4818 11.2491 14.4885 11.2491 14.4953C11.2491 14.5021 11.2491 14.5088 11.2491 14.5156C11.2491 14.5224 11.2491 14.5293 11.2491 14.5361C11.2491 14.5429 11.2491 14.5498 11.2491 14.5567C11.2491 14.5635 11.2491 14.5704 11.2491 14.5773C11.2491 14.5842 11.2491 14.5912 11.2491 14.5981C11.2491 14.6051 11.2491 14.612 11.2491 14.619C11.2491 14.626 11.2491 14.633 11.2491 14.64C11.2491 14.6471 11.2491 14.6541 11.2491 14.6612C11.2491 14.6682 11.2491 14.6753 11.2491 14.6824C11.2491 14.6895 11.2491 14.6966 11.2491 14.7037C11.2491 14.7109 11.2491 14.718 11.2491 14.7252C11.2491 14.7324 11.2491 14.7396 11.2491 14.7468C11.2491 14.754 11.2491 14.7612 11.2491 14.7685C11.2491 14.7757 11.2491 14.783 11.2491 14.7903C11.2491 14.7975 11.2491 14.8048 11.2491 14.8122C11.2491 14.8195 11.2491 14.8268 11.2491 14.8342C11.2491 14.8416 11.2491 14.8489 11.2491 14.8563C11.2491 14.8637 11.2491 14.8712 11.2491 14.8786C11.2491 14.886 11.2491 14.8935 11.2491 14.901C11.2491 14.9085 11.2491 14.916 11.2491 14.9235C11.2491 14.931 11.2491 14.9385 11.2491 14.9461C11.2491 14.9536 11.2491 14.9612 11.2491 14.9688C11.2491 14.9764 11.2491 14.984 11.2491 14.9916C11.2491 14.9993 11.2491 15.0069 11.2491 15.0146C11.2491 15.0223 11.2491 15.03 11.2491 15.0377C11.2491 15.0454 11.2491 15.0531 11.2491 15.0609C11.2491 15.0686 11.2491 15.0764 11.2491 15.0842C11.2491 15.092 11.2491 15.0998 11.2491 15.1076C11.2491 15.1154 11.2491 15.1233 11.2491 15.1311C11.2491 15.139 11.2491 15.1469 11.2491 15.1548C11.2491 15.1627 11.2491 15.1706 11.2491 15.1786C11.2491 15.1865 11.2491 15.1945 11.2491 15.2025C11.2491 15.2105 11.2491 15.2185 11.2491 15.2265C11.2491 15.2345 11.2491 15.2426 11.2491 15.2507C11.2491 15.2587 11.2491 15.2668 11.2491 15.2749C11.2491 15.283 11.2491 15.2911 11.2491 15.2993C11.2491 15.3074 11.2491 15.3156 11.2491 15.3238C11.2491 15.332 11.2491 15.3402 11.2491 15.3484C11.2491 15.3566 11.2491 15.3649 11.2491 15.3732C11.2491 15.3814 11.2491 15.3897 11.2491 15.398C11.2491 15.4063 11.2491 15.4147 11.2491 15.423C11.2491 15.4314 11.2491 15.4397 11.2491 15.4481C11.2491 15.4565 11.2491 15.4649 11.2491 15.4734C11.2491 15.4818 11.2491 15.4902 11.2491 15.4987C11.2491 15.5072 11.2491 15.5157 11.2491 15.5242C11.2491 15.5327 11.2491 15.5412 11.2491 15.5498C11.2491 15.5583 11.2491 15.5669 11.2491 15.5755C11.2491 15.5841 11.2491 15.5927 11.2491 15.6014C11.2491 15.61 11.2491 15.6187 11.2491 15.6273C11.2491 15.636 11.2491 15.6447 11.2491 15.6534C11.2491 15.6622 11.2491 15.6709 11.2491 15.6797C11.2491 15.6884 11.2491 15.6972 11.2491 15.706C11.2491 15.7148 11.2491 15.7236 11.2491 15.7325C11.2491 15.7413 11.2491 15.7502 11.2491 15.7591C11.2491 15.768 11.2491 15.7769 11.2491 15.7858C11.2491 15.7947 11.2491 15.8037 11.2491 15.8127C11.2491 15.8216 11.2491 15.8306 11.2491 15.8396C11.2491 15.8487 11.2491 15.8577 11.2491 15.8667C11.2491 15.8758 11.2491 15.8849 11.2491 15.894C11.2491 15.9031 11.2491 15.9122 11.2491 15.9213C11.2491 15.9305 11.2491 15.9396 11.2491 15.9488C11.2491 15.958 11.2491 15.9672 11.2491 15.9764C11.2491 15.9857 11.2491 15.9949 11.2491 16.0042C11.2491 16.0135 11.2491 16.0228 11.2491 16.0321C11.2491 16.0414 11.2491 16.0507 11.2491 16.0601C11.2491 16.0694 11.2491 16.0788 11.2491 16.0882C11.2491 16.0976 11.2491 16.107 11.2491 16.1165C11.2491 16.1259 11.2491 16.1354 11.2491 16.1449C11.2491 16.1543 11.2491 16.1638 11.2491 16.1734C11.2491 16.1829 11.2491 16.1925 11.2491 16.202C11.2491 16.2116 11.2491 16.2212 11.2491 16.2308C11.2491 16.2404 11.2491 16.2501 11.2491 16.2597C11.2491 16.2694 11.2491 16.2791 11.2491 16.2888C11.2491 16.2985 11.2491 16.3082 11.2491 16.3179C11.2491 16.3277 11.2491 16.3375 11.2491 16.3473C11.2491 16.357 11.2491 16.3669 11.2491 16.3767C11.2491 16.3865 11.2491 16.3964 11.2491 16.4063C11.2491 16.4162 11.2491 16.4261 11.2491 16.436C11.2491 16.4459 11.2491 16.4559 11.2491 16.4658C11.2491 16.4758 11.2491 16.4858 11.2491 16.4958C11.2491 16.5058 11.2491 16.5158 11.2491 16.5259C11.2491 16.536 11.2491 16.546 11.2491 16.5561C11.2491 16.5662 11.2491 16.5764 11.2491 16.5865C11.2491 16.5967 11.2491 16.6068 11.2491 16.617C11.2491 16.6272 11.2491 16.6374 11.2491 16.6477C11.2491 16.6579 11.2491 16.6682 11.2491 16.6785C11.2491 16.6887 11.2491 16.699 11.2491 16.7094C11.2491 16.7197 11.2491 16.7301 11.2491 16.7404C11.2491 16.7508 11.2491 16.7612 11.2491 16.7716C11.2491 16.782 11.2491 16.7925 11.2491 16.8029C11.2491 16.8134 11.2491 16.8239 11.2491 16.8344C11.2491 16.8449 11.2491 16.8554 11.2491 16.866C11.2491 16.8766 11.2491 16.8871 11.2491 16.8977C11.2491 16.9083 11.2491 16.919 11.2491 16.9296C11.2491 16.9403 11.2491 16.9509 11.2491 16.9616C11.2491 16.9723 11.2491 16.983 11.2491 16.9938C11.2491 17.0045 11.2491 17.0153 11.2491 17.0261C11.2491 17.0369 11.2491 17.0477 11.2491 17.0585C11.2491 17.0693 11.2491 17.0802 11.2491 17.0911C11.2491 17.1019 11.2491 17.1128 11.2491 17.1238C11.2491 17.1347 11.2491 17.1456 11.2491 17.1566C11.2491 17.1676 11.2491 17.1786 11.2491 17.1896C11.2491 17.2006 11.2491 17.2117 11.2491 17.2227C11.2491 17.2338 11.2491 17.2449 11.2491 17.256C11.2491 17.2671 11.2491 17.2782 11.2491 17.2894C11.2491 17.3006 11.2491 17.3118 11.2491 17.323C11.2491 17.3342 11.2491 17.3454 11.2491 17.3567C11.2491 17.3679 11.2491 17.3792 11.2491 17.3905C11.2491 17.4018 11.2491 17.4131 11.2491 17.4245C11.2491 17.4358 11.2491 17.4472 11.2491 17.4586C11.2491 17.47 11.2491 17.4814 11.2491 17.4928C11.2491 17.5043 11.2491 17.5158 11.2491 17.5272C11.2491 17.5387 11.2491 17.5502 11.2491 17.5618C11.2491 17.5733 11.2491 17.5849 11.2491 17.5965C11.2491 17.6081 11.2491 17.6197 11.2491 17.6313C11.2491 17.643 11.2491 17.6546 11.2491 17.6663C11.2491 17.678 11.2491 17.6897 11.2491 17.7014C11.2491 17.7131 11.2491 17.7249 11.2491 17.7367C11.2491 17.7485 11.2491 17.7603 11.2491 17.7721C11.2491 17.7839 11.2491 17.7958 11.2491 17.8077C11.2491 17.8195 11.2491 17.8314 11.2491 17.8434C11.2491 17.8553 11.2491 17.8672 11.2491 17.8792C11.2491 17.8912 11.2491 17.9032 11.2491 17.9152C11.2491 17.9272 11.2491 17.9393 11.2491 17.9514C11.2491 17.9634 11.2491 17.9755 11.2491 17.9876C11.2491 17.9998 11.2491 18.0119 11.2491 18.0241C11.2491 18.0363 11.2491 18.0484 11.2491 18.0607C11.2491 18.0729 11.2491 18.0851 11.2491 18.0974C11.2491 18.1097 11.2491 18.122 11.2491 18.1343C11.2491 18.1466 11.2491 18.1589 11.2491 18.1713C11.2491 18.1837 11.2491 18.1961 11.2491 18.2085C11.2491 18.2209 11.2491 18.2334 11.2491 18.2458C11.2491 18.2583 11.2491 18.2708 11.2491 18.2833C11.2491 18.2958 11.2491 18.3084 11.2491 18.3209C11.2491 18.3335 11.2491 18.3461 11.2491 18.3587C11.2491 18.3713 11.2491 18.384 11.2491 18.3966C11.2491 18.4093 11.2491 18.422 11.2491 18.4347C11.2491 18.4474 11.2491 18.4602 11.2491 18.4729C11.2491 18.4857 11.2491 18.4985 11.2491 18.5113C11.2491 18.5241 11.2491 18.537 11.2491 18.5498C11.2491 18.5627 11.2491 18.5756 11.2491 18.5885C11.2491 18.6014 11.2491 18.6144 11.2491 18.6274C11.2491 18.6403 11.2491 18.6533 11.2491 18.6663H11.9991H12.7491C12.7491 18.6533 12.7491 18.6403 12.7491 18.6274C12.7491 18.6144 12.7491 18.6014 12.7491 18.5885C12.7491 18.5756 12.7491 18.5627 12.7491 18.5498C12.7491 18.537 12.7491 18.5241 12.7491 18.5113C12.7491 18.4985 12.7491 18.4857 12.7491 18.4729C12.7491 18.4602 12.7491 18.4474 12.7491 18.4347C12.7491 18.422 12.7491 18.4093 12.7491 18.3966C12.7491 18.384 12.7491 18.3713 12.7491 18.3587C12.7491 18.3461 12.7491 18.3335 12.7491 18.3209C12.7491 18.3084 12.7491 18.2958 12.7491 18.2833C12.7491 18.2708 12.7491 18.2583 12.7491 18.2458C12.7491 18.2334 12.7491 18.2209 12.7491 18.2085C12.7491 18.1961 12.7491 18.1837 12.7491 18.1713C12.7491 18.1589 12.7491 18.1466 12.7491 18.1343C12.7491 18.122 12.7491 18.1097 12.7491 18.0974C12.7491 18.0851 12.7491 18.0729 12.7491 18.0607C12.7491 18.0484 12.7491 18.0363 12.7491 18.0241C12.7491 18.0119 12.7491 17.9998 12.7491 17.9876C12.7491 17.9755 12.7491 17.9634 12.7491 17.9514C12.7491 17.9393 12.7491 17.9272 12.7491 17.9152C12.7491 17.9032 12.7491 17.8912 12.7491 17.8792C12.7491 17.8672 12.7491 17.8553 12.7491 17.8434C12.7491 17.8314 12.7491 17.8195 12.7491 17.8077C12.7491 17.7958 12.7491 17.7839 12.7491 17.7721C12.7491 17.7603 12.7491 17.7485 12.7491 17.7367C12.7491 17.7249 12.7491 17.7131 12.7491 17.7014C12.7491 17.6897 12.7491 17.678 12.7491 17.6663C12.7491 17.6546 12.7491 17.643 12.7491 17.6313C12.7491 17.6197 12.7491 17.6081 12.7491 17.5965C12.7491 17.5849 12.7491 17.5733 12.7491 17.5618C12.7491 17.5502 12.7491 17.5387 12.7491 17.5272C12.7491 17.5158 12.7491 17.5043 12.7491 17.4928C12.7491 17.4814 12.7491 17.47 12.7491 17.4586C12.7491 17.4472 12.7491 17.4358 12.7491 17.4245C12.7491 17.4131 12.7491 17.4018 12.7491 17.3905C12.7491 17.3792 12.7491 17.3679 12.7491 17.3567C12.7491 17.3454 12.7491 17.3342 12.7491 17.323C12.7491 17.3118 12.7491 17.3006 12.7491 17.2894C12.7491 17.2782 12.7491 17.2671 12.7491 17.256C12.7491 17.2449 12.7491 17.2338 12.7491 17.2227C12.7491 17.2117 12.7491 17.2006 12.7491 17.1896C12.7491 17.1786 12.7491 17.1676 12.7491 17.1566C12.7491 17.1456 12.7491 17.1347 12.7491 17.1238C12.7491 17.1128 12.7491 17.1019 12.7491 17.0911C12.7491 17.0802 12.7491 17.0693 12.7491 17.0585C12.7491 17.0477 12.7491 17.0369 12.7491 17.0261C12.7491 17.0153 12.7491 17.0045 12.7491 16.9938C12.7491 16.983 12.7491 16.9723 12.7491 16.9616C12.7491 16.9509 12.7491 16.9403 12.7491 16.9296C12.7491 16.919 12.7491 16.9083 12.7491 16.8977C12.7491 16.8871 12.7491 16.8766 12.7491 16.866C12.7491 16.8554 12.7491 16.8449 12.7491 16.8344C12.7491 16.8239 12.7491 16.8134 12.7491 16.8029C12.7491 16.7925 12.7491 16.782 12.7491 16.7716C12.7491 16.7612 12.7491 16.7508 12.7491 16.7404C12.7491 16.7301 12.7491 16.7197 12.7491 16.7094C12.7491 16.699 12.7491 16.6887 12.7491 16.6785C12.7491 16.6682 12.7491 16.6579 12.7491 16.6477C12.7491 16.6374 12.7491 16.6272 12.7491 16.617C12.7491 16.6068 12.7491 16.5967 12.7491 16.5865C12.7491 16.5764 12.7491 16.5662 12.7491 16.5561C12.7491 16.546 12.7491 16.536 12.7491 16.5259C12.7491 16.5158 12.7491 16.5058 12.7491 16.4958C12.7491 16.4858 12.7491 16.4758 12.7491 16.4658C12.7491 16.4559 12.7491 16.4459 12.7491 16.436C12.7491 16.4261 12.7491 16.4162 12.7491 16.4063C12.7491 16.3964 12.7491 16.3865 12.7491 16.3767C12.7491 16.3669 12.7491 16.357 12.7491 16.3473C12.7491 16.3375 12.7491 16.3277 12.7491 16.3179C12.7491 16.3082 12.7491 16.2985 12.7491 16.2888C12.7491 16.2791 12.7491 16.2694 12.7491 16.2597C12.7491 16.2501 12.7491 16.2404 12.7491 16.2308C12.7491 16.2212 12.7491 16.2116 12.7491 16.202C12.7491 16.1925 12.7491 16.1829 12.7491 16.1734C12.7491 16.1638 12.7491 16.1543 12.7491 16.1449C12.7491 16.1354 12.7491 16.1259 12.7491 16.1165C12.7491 16.107 12.7491 16.0976 12.7491 16.0882C12.7491 16.0788 12.7491 16.0694 12.7491 16.0601C12.7491 16.0507 12.7491 16.0414 12.7491 16.0321C12.7491 16.0228 12.7491 16.0135 12.7491 16.0042C12.7491 15.9949 12.7491 15.9857 12.7491 15.9764C12.7491 15.9672 12.7491 15.958 12.7491 15.9488C12.7491 15.9396 12.7491 15.9305 12.7491 15.9213C12.7491 15.9122 12.7491 15.9031 12.7491 15.894C12.7491 15.8849 12.7491 15.8758 12.7491 15.8667C12.7491 15.8577 12.7491 15.8487 12.7491 15.8396C12.7491 15.8306 12.7491 15.8216 12.7491 15.8127C12.7491 15.8037 12.7491 15.7947 12.7491 15.7858C12.7491 15.7769 12.7491 15.768 12.7491 15.7591C12.7491 15.7502 12.7491 15.7413 12.7491 15.7325C12.7491 15.7236 12.7491 15.7148 12.7491 15.706C12.7491 15.6972 12.7491 15.6884 12.7491 15.6797C12.7491 15.6709 12.7491 15.6622 12.7491 15.6534C12.7491 15.6447 12.7491 15.636 12.7491 15.6273C12.7491 15.6187 12.7491 15.61 12.7491 15.6014C12.7491 15.5927 12.7491 15.5841 12.7491 15.5755C12.7491 15.5669 12.7491 15.5583 12.7491 15.5498C12.7491 15.5412 12.7491 15.5327 12.7491 15.5242C12.7491 15.5157 12.7491 15.5072 12.7491 15.4987C12.7491 15.4902 12.7491 15.4818 12.7491 15.4734C12.7491 15.4649 12.7491 15.4565 12.7491 15.4481C12.7491 15.4397 12.7491 15.4314 12.7491 15.423C12.7491 15.4147 12.7491 15.4063 12.7491 15.398C12.7491 15.3897 12.7491 15.3814 12.7491 15.3732C12.7491 15.3649 12.7491 15.3566 12.7491 15.3484C12.7491 15.3402 12.7491 15.332 12.7491 15.3238C12.7491 15.3156 12.7491 15.3074 12.7491 15.2993C12.7491 15.2911 12.7491 15.283 12.7491 15.2749C12.7491 15.2668 12.7491 15.2587 12.7491 15.2507C12.7491 15.2426 12.7491 15.2345 12.7491 15.2265C12.7491 15.2185 12.7491 15.2105 12.7491 15.2025C12.7491 15.1945 12.7491 15.1865 12.7491 15.1786C12.7491 15.1706 12.7491 15.1627 12.7491 15.1548C12.7491 15.1469 12.7491 15.139 12.7491 15.1311C12.7491 15.1233 12.7491 15.1154 12.7491 15.1076C12.7491 15.0998 12.7491 15.092 12.7491 15.0842C12.7491 15.0764 12.7491 15.0686 12.7491 15.0609C12.7491 15.0531 12.7491 15.0454 12.7491 15.0377C12.7491 15.03 12.7491 15.0223 12.7491 15.0146C12.7491 15.0069 12.7491 14.9993 12.7491 14.9916C12.7491 14.984 12.7491 14.9764 12.7491 14.9688C12.7491 14.9612 12.7491 14.9536 12.7491 14.9461C12.7491 14.9385 12.7491 14.931 12.7491 14.9235C12.7491 14.916 12.7491 14.9085 12.7491 14.901C12.7491 14.8935 12.7491 14.886 12.7491 14.8786C12.7491 14.8712 12.7491 14.8637 12.7491 14.8563C12.7491 14.8489 12.7491 14.8416 12.7491 14.8342C12.7491 14.8268 12.7491 14.8195 12.7491 14.8122C12.7491 14.8048 12.7491 14.7975 12.7491 14.7903C12.7491 14.783 12.7491 14.7757 12.7491 14.7685C12.7491 14.7612 12.7491 14.754 12.7491 14.7468C12.7491 14.7396 12.7491 14.7324 12.7491 14.7252C12.7491 14.718 12.7491 14.7109 12.7491 14.7037C12.7491 14.6966 12.7491 14.6895 12.7491 14.6824C12.7491 14.6753 12.7491 14.6682 12.7491 14.6612C12.7491 14.6541 12.7491 14.6471 12.7491 14.64C12.7491 14.633 12.7491 14.626 12.7491 14.619C12.7491 14.612 12.7491 14.6051 12.7491 14.5981C12.7491 14.5912 12.7491 14.5842 12.7491 14.5773C12.7491 14.5704 12.7491 14.5635 12.7491 14.5567C12.7491 14.5498 12.7491 14.5429 12.7491 14.5361C12.7491 14.5293 12.7491 14.5224 12.7491 14.5156C12.7491 14.5088 12.7491 14.5021 12.7491 14.4953C12.7491 14.4885 12.7491 14.4818 12.7491 14.4751C12.7491 14.4683 12.7491 14.4616 12.7491 14.4549C12.7491 14.4482 12.7491 14.4416 12.7491 14.4349C12.7491 14.4283 12.7491 14.4216 12.7491 14.415C12.7491 14.4084 12.7491 14.4018 12.7491 14.3952C12.7491 14.3886 12.7491 14.3821 12.7491 14.3755C12.7491 14.369 12.7491 14.3625 12.7491 14.3559C12.7491 14.3494 12.7491 14.3429 12.7491 14.3365C12.7491 14.33 12.7491 14.3235 12.7491 14.3171C12.7491 14.3107 12.7491 14.3042 12.7491 14.2978C12.7491 14.2914 12.7491 14.2851 12.7491 14.2787C12.7491 14.2723 12.7491 14.266 12.7491 14.2596C12.7491 14.2533 12.7491 14.247 12.7491 14.2407C12.7491 14.2344 12.7491 14.2281 12.7491 14.2219C12.7491 14.2156 12.7491 14.2094 12.7491 14.2032C12.7491 14.1969 12.7491 14.1907 12.7491 14.1845C12.7491 14.1783 12.7491 14.1722 12.7491 14.166C12.7491 14.1599 12.7491 14.1537 12.7491 14.1476C12.7491 14.1415 12.7491 14.1354 12.7491 14.1293C12.7491 14.1232 12.7491 14.1171 12.7491 14.1111C12.7491 14.105 12.7491 14.099 12.7491 14.093C12.7491 14.087 12.7491 14.081 12.7491 14.075C12.7491 14.069 12.7491 14.0631 12.7491 14.0571C12.7491 14.0512 12.7491 14.0452 12.7491 14.0393C12.7491 14.0334 12.7491 14.0275 12.7491 14.0216C12.7491 14.0158 12.7491 14.0099 12.7491 14.0041C12.7491 13.9982 12.7491 13.9924 12.7491 13.9866C12.7491 13.9808 12.7491 13.975 12.7491 13.9692C12.7491 13.9634 12.7491 13.9577 12.7491 13.9519C12.7491 13.9462 12.7491 13.9405 12.7491 13.9347C12.7491 13.929 12.7491 13.9234 12.7491 13.9177C12.7491 13.912 12.7491 13.9063 12.7491 13.9007C12.7491 13.8951 12.7491 13.8894 12.7491 13.8838C12.7491 13.8782 12.7491 13.8726 12.7491 13.8671C12.7491 13.8615 12.7491 13.8559 12.7491 13.8504C12.7491 13.8448 12.7491 13.8393 12.7491 13.8338C12.7491 13.8283 12.7491 13.8228 12.7491 13.8173C12.7491 13.8119 12.7491 13.8064 12.7491 13.801C12.7491 13.7955 12.7491 13.7901 12.7491 13.7847C12.7491 13.7793 12.7491 13.7739 12.7491 13.7685C12.7491 13.7631 12.7491 13.7578 12.7491 13.7524C12.7491 13.7471 12.7491 13.7418 12.7491 13.7364C12.7491 13.7311 12.7491 13.7258 12.7491 13.7206C12.7491 13.7153 12.7491 13.71 12.7491 13.7048C12.7491 13.6995 12.7491 13.6943 12.7491 13.6891C12.7491 13.6839 12.7491 13.6787 12.7491 13.6735C12.7491 13.6683 12.7491 13.6631 12.7491 13.658C12.7491 13.6528 12.7491 13.6477 12.7491 13.6426C12.7491 13.6375 12.7491 13.6324 12.7491 13.6273C12.7491 13.6222 12.7491 13.6171 12.7491 13.6121C12.7491 13.607 12.7491 13.602 12.7491 13.597C12.7491 13.5919 12.7491 13.5869 12.7491 13.5819C12.7491 13.5769 12.7491 13.572 12.7491 13.567C12.7491 13.562 12.7491 13.5571 12.7491 13.5522C12.7491 13.5472 12.7491 13.5423 12.7491 13.5374C12.7491 13.5325 12.7491 13.5277 12.7491 13.5228C12.7491 13.5179 12.7491 13.5131 12.7491 13.5082C12.7491 13.5034 12.7491 13.4986 12.7491 13.4938C12.7491 13.489 12.7491 13.4842 12.7491 13.4794C12.7491 13.4746 12.7491 13.4699 12.7491 13.4651C12.7491 13.4604 12.7491 13.4557 12.7491 13.451C12.7491 13.4462 12.7491 13.4415 12.7491 13.4369C12.7491 13.4322 12.7491 13.4275 12.7491 13.4229C12.7491 13.4182 12.7491 13.4136 12.7491 13.409C12.7491 13.4043 12.7491 13.3997 12.7491 13.3951C12.7491 13.3906 12.7491 13.386 12.7491 13.3814C12.7491 13.3769 12.7491 13.3723 12.7491 13.3678C12.7491 13.3632 12.7491 13.3587 12.7491 13.3542C12.7491 13.3497 12.7491 13.3452 12.7491 13.3408C12.7491 13.3363 12.7491 13.3319 12.7491 13.3274C12.7491 13.323 12.7491 13.3185 12.7491 13.3141C12.7491 13.3097 12.7491 13.3053 12.7491 13.3009C12.7491 13.2966 12.7491 13.2922 12.7491 13.2878C12.7491 13.2835 12.7491 13.2792 12.7491 13.2748C12.7491 13.2705 12.7491 13.2662 12.7491 13.2619C12.7491 13.2576 12.7491 13.2533 12.7491 13.2491C12.7491 13.2448 12.7491 13.2406 12.7491 13.2363C12.7491 13.2321 12.7491 13.2279 12.7491 13.2237C12.7491 13.2195 12.7491 13.2153 12.7491 13.2111C12.7491 13.2069 12.7491 13.2027 12.7491 13.1986C12.7491 13.1945 12.7491 13.1903 12.7491 13.1862C12.7491 13.1821 12.7491 13.178 12.7491 13.1739C12.7491 13.1698 12.7491 13.1657 12.7491 13.1616C12.7491 13.1576 12.7491 13.1535 12.7491 13.1495C12.7491 13.1455 12.7491 13.1414 12.7491 13.1374C12.7491 13.1334 12.7491 13.1294 12.7491 13.1255C12.7491 13.1215 12.7491 13.1175 12.7491 13.1136C12.7491 13.1096 12.7491 13.1057 12.7491 13.1018C12.7491 13.0978 12.7491 13.0939 12.7491 13.09C12.7491 13.0861 12.7491 13.0823 12.7491 13.0784C12.7491 13.0745 12.7491 13.0707 12.7491 13.0668C12.7491 13.063 12.7491 13.0592 12.7491 13.0554C12.7491 13.0516 12.7491 13.0478 12.7491 13.044C12.7491 13.0402 12.7491 13.0364 12.7491 13.0327C12.7491 13.0289 12.7491 13.0252 12.7491 13.0214C12.7491 13.0177 12.7491 13.014 12.7491 13.0103C12.7491 13.0066 12.7491 13.0029 12.7491 12.9992C12.7491 12.9956 12.7491 12.9919 12.7491 12.9882C12.7491 12.9846 12.7491 12.981 12.7491 12.9773C12.7491 12.9737 12.7491 12.9701 12.7491 12.9665C12.7491 12.9629 12.7491 12.9593 12.7491 12.9558C12.7491 12.9522 12.7491 12.9487 12.7491 12.9451C12.7491 12.9416 12.7491 12.938 12.7491 12.9345C12.7491 12.931 12.7491 12.9275 12.7491 12.924C12.7491 12.9205 12.7491 12.9171 12.7491 12.9136C12.7491 12.9101 12.7491 12.9067 12.7491 12.9033C12.7491 12.8998 12.7491 12.8964 12.7491 12.893C12.7491 12.8896 12.7491 12.8862 12.7491 12.8828C12.7491 12.8794 12.7491 12.876 12.7491 12.8727C12.7491 12.8693 12.7491 12.866 12.7491 12.8626C12.7491 12.8593 12.7491 12.856 12.7491 12.8527C12.7491 12.8494 12.7491 12.8461 12.7491 12.8428C12.7491 12.8395 12.7491 12.8363 12.7491 12.833C12.7491 12.8298 12.7491 12.8265 12.7491 12.8233C12.7491 12.8201 12.7491 12.8168 12.7491 12.8136C12.7491 12.8104 12.7491 12.8072 12.7491 12.8041C12.7491 12.8009 12.7491 12.7977 12.7491 12.7946C12.7491 12.7914 12.7491 12.7883 12.7491 12.7851C12.7491 12.782 12.7491 12.7789 12.7491 12.7758C12.7491 12.7727 12.7491 12.7696 12.7491 12.7665C12.7491 12.7634 12.7491 12.7604 12.7491 12.7573C12.7491 12.7542 12.7491 12.7512 12.7491 12.7482C12.7491 12.7451 12.7491 12.7421 12.7491 12.7391C12.7491 12.7361 12.7491 12.7331 12.7491 12.7301C12.7491 12.7272 12.7491 12.7242 12.7491 12.7212C12.7491 12.7183 12.7491 12.7153 12.7491 12.7124C12.7491 12.7095 12.7491 12.7065 12.7491 12.7036C12.7491 12.7007 12.7491 12.6978 12.7491 12.6949C12.7491 12.6921 12.7491 12.6892 12.7491 12.6863C12.7491 12.6835 12.7491 12.6806 12.7491 12.6778C12.7491 12.6749 12.7491 12.6721 12.7491 12.6693C12.7491 12.6665 12.7491 12.6637 12.7491 12.6609C12.7491 12.6581 12.7491 12.6553 12.7491 12.6526C12.7491 12.6498 12.7491 12.647 12.7491 12.6443C12.7491 12.6415 12.7491 12.6388 12.7491 12.6361C12.7491 12.6334 12.7491 12.6307 12.7491 12.628C12.7491 12.6253 12.7491 12.6226 12.7491 12.6199C12.7491 12.6172 12.7491 12.6146 12.7491 12.6119C12.7491 12.6093 12.7491 12.6066 12.7491 12.604C12.7491 12.6014 12.7491 12.5988 12.7491 12.5962C12.7491 12.5936 12.7491 12.591 12.7491 12.5884C12.7491 12.5858 12.7491 12.5832 12.7491 12.5807C12.7491 12.5781 12.7491 12.5756 12.7491 12.573C12.7491 12.5705 12.7491 12.568 12.7491 12.5655C12.7491 12.5629 12.7491 12.5604 12.7491 12.5579C12.7491 12.5555 12.7491 12.553 12.7491 12.5505C12.7491 12.548 12.7491 12.5456 12.7491 12.5431C12.7491 12.5407 12.7491 12.5382 12.7491 12.5358C12.7491 12.5334 12.7491 12.531 12.7491 12.5286C12.7491 12.5262 12.7491 12.5238 12.7491 12.5214C12.7491 12.519 12.7491 12.5166 12.7491 12.5143C12.7491 12.5119 12.7491 12.5096 12.7491 12.5072C12.7491 12.5049 12.7491 12.5026 12.7491 12.5002C12.7491 12.4979 12.7491 12.4956 12.7491 12.4933C12.7491 12.491 12.7491 12.4887 12.7491 12.4865C12.7491 12.4842 12.7491 12.4819 12.7491 12.4797C12.7491 12.4774 12.7491 12.4752 12.7491 12.4729C12.7491 12.4707 12.7491 12.4685 12.7491 12.4663C12.7491 12.4641 12.7491 12.4619 12.7491 12.4597C12.7491 12.4575 12.7491 12.4553 12.7491 12.4531C12.7491 12.451 12.7491 12.4488 12.7491 12.4467C12.7491 12.4445 12.7491 12.4424 12.7491 12.4402C12.7491 12.4381 12.7491 12.436 12.7491 12.4339C12.7491 12.4318 12.7491 12.4297 12.7491 12.4276C12.7491 12.4255 12.7491 12.4234 12.7491 12.4214C12.7491 12.4193 12.7491 12.4172 12.7491 12.4152C12.7491 12.4131 12.7491 12.4111 12.7491 12.4091C12.7491 12.4071 12.7491 12.405 12.7491 12.403C12.7491 12.401 12.7491 12.399 12.7491 12.397C12.7491 12.3951 12.7491 12.3931 12.7491 12.3911C12.7491 12.3891 12.7491 12.3872 12.7491 12.3852C12.7491 12.3833 12.7491 12.3814 12.7491 12.3794C12.7491 12.3775 12.7491 12.3756 12.7491 12.3737C12.7491 12.3718 12.7491 12.3699 12.7491 12.368C12.7491 12.3661 12.7491 12.3642 12.7491 12.3623C12.7491 12.3605 12.7491 12.3586 12.7491 12.3568C12.7491 12.3549 12.7491 12.3531 12.7491 12.3512C12.7491 12.3494 12.7491 12.3476 12.7491 12.3458C12.7491 12.344 12.7491 12.3422 12.7491 12.3404C12.7491 12.3386 12.7491 12.3368 12.7491 12.335C12.7491 12.3332 12.7491 12.3315 12.7491 12.3297C12.7491 12.328 12.7491 12.3262 12.7491 12.3245C12.7491 12.3227 12.7491 12.321 12.7491 12.3193C12.7491 12.3176 12.7491 12.3159 12.7491 12.3142C12.7491 12.3125 12.7491 12.3108 12.7491 12.3091C12.7491 12.3074 12.7491 12.3057 12.7491 12.3041C12.7491 12.3024 12.7491 12.3008 12.7491 12.2991C12.7491 12.2975 12.7491 12.2958 12.7491 12.2942C12.7491 12.2926 12.7491 12.291 12.7491 12.2894C12.7491 12.2877 12.7491 12.2861 12.7491 12.2846C12.7491 12.283 12.7491 12.2814 12.7491 12.2798C12.7491 12.2782 12.7491 12.2767 12.7491 12.2751C12.7491 12.2736 12.7491 12.272 12.7491 12.2705C12.7491 12.2689 12.7491 12.2674 12.7491 12.2659C12.7491 12.2644 12.7491 12.2628 12.7491 12.2613C12.7491 12.2598 12.7491 12.2583 12.7491 12.2569C12.7491 12.2554 12.7491 12.2539 12.7491 12.2524C12.7491 12.251 12.7491 12.2495 12.7491 12.248C12.7491 12.2466 12.7491 12.2451 12.7491 12.2437C12.7491 12.2423 12.7491 12.2408 12.7491 12.2394C12.7491 12.238 12.7491 12.2366 12.7491 12.2352C12.7491 12.2338 12.7491 12.2324 12.7491 12.231C12.7491 12.2296 12.7491 12.2283 12.7491 12.2269C12.7491 12.2255 12.7491 12.2242 12.7491 12.2228C12.7491 12.2214 12.7491 12.2201 12.7491 12.2188C12.7491 12.2174 12.7491 12.2161 12.7491 12.2148C12.7491 12.2135 12.7491 12.2122 12.7491 12.2108C12.7491 12.2095 12.7491 12.2083 12.7491 12.207C12.7491 12.2057 12.7491 12.2044 12.7491 12.2031C12.7491 12.2019 12.7491 12.2006 12.7491 12.1993C12.7491 12.1981 12.7491 12.1968 12.7491 12.1956C12.7491 12.1944 12.7491 12.1931 12.7491 12.1919C12.7491 12.1907 12.7491 12.1895 12.7491 12.1882C12.7491 12.187 12.7491 12.1858 12.7491 12.1846C12.7491 12.1834 12.7491 12.1823 12.7491 12.1811C12.7491 12.1799 12.7491 12.1787 12.7491 12.1776C12.7491 12.1764 12.7491 12.1753 12.7491 12.1741C12.7491 12.173 12.7491 12.1718 12.7491 12.1707C12.7491 12.1696 12.7491 12.1684 12.7491 12.1673C12.7491 12.1662 12.7491 12.1651 12.7491 12.164C12.7491 12.1629 12.7491 12.1618 12.7491 12.1607C12.7491 12.1596 12.7491 12.1585 12.7491 12.1575C12.7491 12.1564 12.7491 12.1553 12.7491 12.1543C12.7491 12.1532 12.7491 12.1521 12.7491 12.1511C12.7491 12.1501 12.7491 12.149 12.7491 12.148C12.7491 12.147 12.7491 12.1459 12.7491 12.1449C12.7491 12.1439 12.7491 12.1429 12.7491 12.1419C12.7491 12.1409 12.7491 12.1399 12.7491 12.1389C12.7491 12.1379 12.7491 12.1369 12.7491 12.136C12.7491 12.135 12.7491 12.134 12.7491 12.1331C12.7491 12.1321 12.7491 12.1312 12.7491 12.1302C12.7491 12.1293 12.7491 12.1283 12.7491 12.1274C12.7491 12.1265 12.7491 12.1255 12.7491 12.1246C12.7491 12.1237 12.7491 12.1228 12.7491 12.1219C12.7491 12.121 12.7491 12.1201 12.7491 12.1192C12.7491 12.1183 12.7491 12.1174 12.7491 12.1165C12.7491 12.1157 12.7491 12.1148 12.7491 12.1139C12.7491 12.113 12.7491 12.1122 12.7491 12.1113C12.7491 12.1105 12.7491 12.1096 12.7491 12.1088C12.7491 12.108 12.7491 12.1071 12.7491 12.1063C12.7491 12.1055 12.7491 12.1047 12.7491 12.1038C12.7491 12.103 12.7491 12.1022 12.7491 12.1014C12.7491 12.1006 12.7491 12.0998 12.7491 12.099C12.7491 12.0982 12.7491 12.0975 12.7491 12.0967C12.7491 12.0959 12.7491 12.0951 12.7491 12.0944C12.7491 12.0936 12.7491 12.0929 12.7491 12.0921C12.7491 12.0914 12.7491 12.0906 12.7491 12.0899C12.7491 12.0891 12.7491 12.0884 12.7491 12.0877C12.7491 12.0869 12.7491 12.0862 12.7491 12.0855C12.7491 12.0848 12.7491 12.0841 12.7491 12.0834C12.7491 12.0827 12.7491 12.082 12.7491 12.0813C12.7491 12.0806 12.7491 12.0799 12.7491 12.0792C12.7491 12.0785 12.7491 12.0779 12.7491 12.0772C12.7491 12.0765 12.7491 12.0759 12.7491 12.0752C12.7491 12.0746 12.7491 12.0739 12.7491 12.0733C12.7491 12.0726 12.7491 12.072 12.7491 12.0713C12.7491 12.0707 12.7491 12.0701 12.7491 12.0695C12.7491 12.0688 12.7491 12.0682 12.7491 12.0676C12.7491 12.067 12.7491 12.0664 12.7491 12.0658C12.7491 12.0652 12.7491 12.0646 12.7491 12.064C12.7491 12.0634 12.7491 12.0628 12.7491 12.0622C12.7491 12.0617 12.7491 12.0611 12.7491 12.0605C12.7491 12.06 12.7491 12.0594 12.7491 12.0588C12.7491 12.0583 12.7491 12.0577 12.7491 12.0572C12.7491 12.0566 12.7491 12.0561 12.7491 12.0555C12.7491 12.055 12.7491 12.0545 12.7491 12.054C12.7491 12.0534 12.7491 12.0529 12.7491 12.0524C12.7491 12.0519 12.7491 12.0514 12.7491 12.0508C12.7491 12.0503 12.7491 12.0498 12.7491 12.0493C12.7491 12.0488 12.7491 12.0484 12.7491 12.0479C12.7491 12.0474 12.7491 12.0469 12.7491 12.0464C12.7491 12.0459 12.7491 12.0455 12.7491 12.045C12.7491 12.0445 12.7491 12.0441 12.7491 12.0436C12.7491 12.0432 12.7491 12.0427 12.7491 12.0423C12.7491 12.0418 12.7491 12.0414 12.7491 12.0409C12.7491 12.0405 12.7491 12.0401 12.7491 12.0396C12.7491 12.0392 12.7491 12.0388 12.7491 12.0384C12.7491 12.0379 12.7491 12.0375 12.7491 12.0371C12.7491 12.0367 12.7491 12.0363 12.7491 12.0359C12.7491 12.0355 12.7491 12.0351 12.7491 12.0347C12.7491 12.0343 12.7491 12.0339 12.7491 12.0335C12.7491 12.0331 12.7491 12.0328 12.7491 12.0324C12.7491 12.032 12.7491 12.0316 12.7491 12.0313C12.7491 12.0309 12.7491 12.0305 12.7491 12.0302C12.7491 12.0298 12.7491 12.0295 12.7491 12.0291C12.7491 12.0288 12.7491 12.0284 12.7491 12.0281C12.7491 12.0277 12.7491 12.0274 12.7491 12.0271C12.7491 12.0267 12.7491 12.0264 12.7491 12.0261C12.7491 12.0257 12.7491 12.0254 12.7491 12.0251C12.7491 12.0248 12.7491 12.0245 12.7491 12.0242C12.7491 12.0239 12.7491 12.0235 12.7491 12.0232C12.7491 12.0229 12.7491 12.0226 12.7491 12.0224C12.7491 12.0221 12.7491 12.0218 12.7491 12.0215C12.7491 12.0212 12.7491 12.0209 12.7491 12.0206C12.7491 12.0203 12.7491 12.0201 12.7491 12.0198C12.7491 12.0195 12.7491 12.0193 12.7491 12.019C12.7491 12.0187 12.7491 12.0185 12.7491 12.0182C12.7491 12.018 12.7491 12.0177 12.7491 12.0175C12.7491 12.0172 12.7491 12.017 12.7491 12.0167C12.7491 12.0165 12.7491 12.0162 12.7491 12.016C12.7491 12.0158 12.7491 12.0155 12.7491 12.0153C12.7491 12.0151 12.7491 12.0148 12.7491 12.0146C12.7491 12.0144 12.7491 12.0142 12.7491 12.014C12.7491 12.0137 12.7491 12.0135 12.7491 12.0133C12.7491 12.0131 12.7491 12.0129 12.7491 12.0127C12.7491 12.0125 12.7491 12.0123 12.7491 12.0121C12.7491 12.0119 12.7491 12.0117 12.7491 12.0115C12.7491 12.0113 12.7491 12.0111 12.7491 12.0109C12.7491 12.0108 12.7491 12.0106 12.7491 12.0104C12.7491 12.0102 12.7491 12.01 12.7491 12.0099C12.7491 12.0097 12.7491 12.0095 12.7491 12.0094C12.7491 12.0092 12.7491 12.009 12.7491 12.0089C12.7491 12.0087 12.7491 12.0086 12.7491 12.0084C12.7491 12.0082 12.7491 12.0081 12.7491 12.0079C12.7491 12.0078 12.7491 12.0076 12.7491 12.0075C12.7491 12.0074 12.7491 12.0072 12.7491 12.0071C12.7491 12.0069 12.7491 12.0068 12.7491 12.0067C12.7491 12.0065 12.7491 12.0064 12.7491 12.0063C12.7491 12.0061 12.7491 12.006 12.7491 12.0059C12.7491 12.0058 12.7491 12.0056 12.7491 12.0055C12.7491 12.0054 12.7491 12.0053 12.7491 12.0052C12.7491 12.0051 12.7491 12.0049 12.7491 12.0048C12.7491 12.0047 12.7491 12.0046 12.7491 12.0045C12.7491 12.0044 12.7491 12.0043 12.7491 12.0042C12.7491 12.0041 12.7491 12.004 12.7491 12.0039C12.7491 12.0038 12.7491 12.0037 12.7491 12.0036C12.7491 12.0035 12.7491 12.0034 12.7491 12.0034C12.7491 12.0033 12.7491 12.0032 12.7491 12.0031C12.7491 12.003 12.7491 12.0029 12.7491 12.0029C12.7491 12.0028 12.7491 12.0027 12.7491 12.0026C12.7491 12.0025 12.7491 12.0025 12.7491 12.0024C12.7491 12.0023 12.7491 12.0023 12.7491 12.0022C12.7491 12.0021 12.7491 12.0021 12.7491 12.002C12.7491 12.0019 12.7491 12.0019 12.7491 12.0018C12.7491 12.0017 12.7491 12.0017 12.7491 12.0016C12.7491 12.0016 12.7491 12.0015 12.7491 12.0015C12.7491 12.0014 12.7491 12.0014 12.7491 12.0013C12.7491 12.0013 12.7491 12.0012 12.7491 12.0012C12.7491 12.0011 12.7491 12.0011 12.7491 12.001C12.7491 12.001 12.7491 12.0009 12.7491 12.0009C12.7491 12.0008 12.7491 12.0008 12.7491 12.0008C12.7491 12.0007 12.7491 12.0007 12.7491 12.0007C12.7491 12.0006 12.7491 12.0006 12.7491 12.0005C12.7491 12.0005 12.7491 12.0005 12.7491 12.0005C12.7491 12.0004 12.7491 12.0004 12.7491 12.0004C12.7491 12.0003 12.7491 12.0003 12.7491 12.0003C12.7491 12.0003 12.7491 12.0002 12.7491 12.0002C12.7491 12.0002 12.7491 12.0002 12.7491 12.0001C12.7491 12.0001 12.7491 12.0001 12.7491 12.0001C12.7491 12.0001 12.7491 12 12.7491 12C12.7491 12 12.7491 12 12.7491 12C12.7491 11.9999 12.7491 11.9999 12.7491 11.9999C12.7491 11.9999 12.7491 11.9999 12.7491 11.9999C12.7491 11.9999 12.7491 11.9999 12.7491 11.9998C12.7491 11.9998 12.7491 11.9998 12.7491 11.9998C12.7491 11.9998 12.7491 11.9998 12.7491 11.9998C12.7491 11.9998 12.7491 11.9998 12.7491 11.9998C12.7491 11.9998 12.7491 11.9997 12.7491 11.9997C12.7491 11.9997 12.7491 11.9997 12.7491 11.9997C12.7491 11.9997 12.7491 11.9997 12.7491 11.9997C12.7491 11.9997 12.7491 11.9997 12.7491 11.9997C12.7491 11.9997 12.7491 11.9997 12.7491 11.9997C12.7491 11.9997 12.7491 11.9997 12.7491 11.9997C12.7491 11.9997 12.7491 11.9997 12.7491 11.9997C12.7491 11.9997 12.7491 11.9997 12.7491 11.9997C12.7491 11.9997 12.7491 11.9997 12.7491 11.9997C12.7491 11.9997 12.7491 11.9997 12.7491 11.9997C12.7491 11.9997 12.7491 11.9997 12.7491 11.9997C12.7491 11.9997 11.9991 11.9997 11.9991 11.9997ZM11.9991 11.9997H12.7491V5.33301H11.9991H11.2491V11.9997H11.9991Z" fill="white"/>
</g>
</svg>
