<svg width="24" height="24" viewBox="0 0 24 24" fill="none" xmlns="http://www.w3.org/2000/svg">
<g clip-path="url(#clip0_451_11861)">
<path d="M6.42408 4.30346C5.8383 3.71767 4.88855 3.71767 4.30276 4.30346C3.71698 4.88924 3.71698 5.83899 4.30276 6.42478L6.42408 4.30346ZM10.6667 12.7887C11.2525 13.3745 12.2023 13.3745 12.788 12.7887C13.3738 12.203 13.3738 11.2532 12.788 10.6674L10.6667 12.7887ZM12.788 10.6674C12.2023 10.0816 11.2525 10.0816 10.6667 10.6674C10.0809 11.2532 10.0809 12.203 10.6667 12.7887L12.788 10.6674ZM17.0307 19.1527C17.6165 19.7385 18.5662 19.7385 19.152 19.1527C19.7378 18.5669 19.7378 17.6172 19.152 17.0314L17.0307 19.1527ZM10.2285 11.7289C10.2285 12.5573 10.9 13.2289 11.7285 13.2289C12.5569 13.2289 13.2285 12.5573 13.2285 11.7289L10.2285 11.7289ZM4.30385 17.0322C3.71806 17.6179 3.71806 18.5677 4.30385 19.1535C4.88964 19.7393 5.83938 19.7393 6.42517 19.1535L4.30385 17.0322ZM10.6678 10.6682C10.082 11.254 10.082 12.2037 10.6678 12.7895C11.2536 13.3753 12.2033 13.3753 12.7891 12.7895L10.6678 10.6682ZM19.1531 6.42555C19.7389 5.83977 19.7389 4.89002 19.1531 4.30423C18.5673 3.71845 17.6176 3.71845 17.0318 4.30423L19.1531 6.42555ZM4.30276 6.42478L10.6667 12.7887L12.788 10.6674L6.42408 4.30346L4.30276 6.42478ZM10.6667 12.7887L17.0307 19.1527L19.152 17.0314L12.788 10.6674L10.6667 12.7887ZM11.7285 11.7289L10.6678 10.6682C10.6678 10.6682 10.6678 10.6682 10.6678 10.6682C10.6678 10.6682 10.6678 10.6682 10.6678 10.6682C10.6678 10.6682 10.6678 10.6682 10.6678 10.6682C10.6678 10.6682 10.6678 10.6682 10.6678 10.6682C10.6678 10.6682 10.6678 10.6682 10.6678 10.6682C10.6678 10.6682 10.6678 10.6682 10.6678 10.6682C10.6678 10.6682 10.6678 10.6682 10.6678 10.6682C10.6678 10.6682 10.6678 10.6682 10.6678 10.6682C10.6678 10.6682 10.6678 10.6682 10.6678 10.6682C10.6678 10.6682 10.6678 10.6683 10.6677 10.6683C10.6677 10.6683 10.6677 10.6683 10.6677 10.6683C10.6677 10.6683 10.6677 10.6683 10.6676 10.6684C10.6673 10.6687 10.6672 10.6688 10.6663 10.6697C10.664 10.672 10.6623 10.6737 10.6554 10.6806C10.644 10.692 10.6171 10.7189 10.5684 10.7676C10.4689 10.8671 10.2701 11.0659 9.87232 11.4637C9.07682 12.2592 7.48583 13.8502 4.30385 17.0322L6.42517 19.1535C9.60715 15.9715 11.1981 14.3805 11.9936 13.585C12.3914 13.1873 12.5903 12.9884 12.6897 12.889C12.7384 12.8403 12.7653 12.8133 12.7767 12.8019C12.7837 12.795 12.7853 12.7934 12.7876 12.7911C12.7885 12.7902 12.7886 12.79 12.7889 12.7897C12.7891 12.7896 12.789 12.7896 12.7891 12.7895C12.7891 12.7895 12.7891 12.7895 12.7891 12.7895C12.7891 12.7895 12.7891 12.7895 12.7891 12.7895C12.7891 12.7895 12.7891 12.7895 12.7891 12.7895C12.7891 12.7895 12.7891 12.7895 12.7891 12.7895C12.7891 12.7895 12.7891 12.7895 12.7891 12.7895C12.7891 12.7895 12.7891 12.7895 12.7891 12.7895C12.7891 12.7895 12.7891 12.7895 12.7891 12.7895L11.7285 11.7289ZM12.7891 12.7895L19.1531 6.42555L17.0318 4.30423L10.6678 10.6682L12.7891 12.7895Z" fill="black"/>
</g>
<defs>
<clipPath id="clip0_451_11861">
<rect width="24" height="24" fill="white"/>
</clipPath>
</defs>
</svg>
