<svg width="18" height="18" viewBox="0 0 18 18" fill="none" xmlns="http://www.w3.org/2000/svg">
<path d="M5.99457 4.93414C5.70167 4.64125 5.2268 4.64125 4.93391 4.93414C4.64101 5.22704 4.64101 5.70191 4.93391 5.99481L5.99457 4.93414ZM8.46944 9.53034C8.76233 9.82323 9.23721 9.82323 9.5301 9.53034C9.82299 9.23745 9.82299 8.76257 9.5301 8.46968L8.46944 9.53034ZM9.5301 8.46968C9.23721 8.17679 8.76233 8.17679 8.46944 8.46968C8.17655 8.76257 8.17655 9.23745 8.46944 9.53034L9.5301 8.46968ZM12.005 13.0659C12.2979 13.3588 12.7727 13.3588 13.0656 13.0659C13.3585 12.773 13.3585 12.2981 13.0656 12.0052L12.005 13.0659ZM9.53056 9.53034C9.82345 9.23745 9.82345 8.76257 9.53056 8.46968C9.23767 8.17679 8.76279 8.17679 8.4699 8.46968L9.53056 9.53034ZM4.93437 12.0052C4.64147 12.2981 4.64147 12.773 4.93437 13.0659C5.22726 13.3588 5.70213 13.3588 5.99503 13.0659L4.93437 12.0052ZM8.4699 8.46968C8.17701 8.76257 8.17701 9.23745 8.4699 9.53034C8.76279 9.82323 9.23767 9.82323 9.53056 9.53034L8.4699 8.46968ZM13.0661 5.99481C13.359 5.70191 13.359 5.22704 13.0661 4.93414C12.7732 4.64125 12.2983 4.64125 12.0054 4.93414L13.0661 5.99481ZM4.93391 5.99481L8.46944 9.53034L9.5301 8.46968L5.99457 4.93414L4.93391 5.99481ZM8.46944 9.53034L12.005 13.0659L13.0656 12.0052L9.5301 8.46968L8.46944 9.53034ZM9.00023 9.00001L8.4699 8.46968C8.4699 8.46968 8.4699 8.46968 8.4699 8.46968C8.4699 8.46968 8.4699 8.46968 8.4699 8.46968C8.4699 8.46968 8.4699 8.46968 8.4699 8.46968C8.4699 8.46968 8.4699 8.46968 8.4699 8.46968C8.4699 8.46968 8.4699 8.46968 8.46989 8.46968C8.46989 8.46969 8.46989 8.46969 8.46989 8.46969C8.46989 8.46969 8.46989 8.46969 8.46989 8.46969C8.46989 8.46969 8.46988 8.4697 8.46988 8.4697C8.46988 8.4697 8.46988 8.4697 8.46987 8.46971C8.46987 8.46971 8.46987 8.46971 8.46987 8.46971C8.46986 8.46972 8.46986 8.46972 8.46985 8.46972C8.46985 8.46973 8.46985 8.46973 8.46984 8.46974C8.46984 8.46974 8.46983 8.46975 8.46983 8.46975C8.46982 8.46976 8.46982 8.46976 8.46981 8.46977C8.46981 8.46977 8.4698 8.46978 8.46979 8.46979C8.46979 8.46979 8.46978 8.4698 8.46977 8.46981C8.46976 8.46982 8.46976 8.46982 8.46975 8.46983C8.46974 8.46984 8.46973 8.46985 8.46972 8.46986C8.46971 8.46987 8.4697 8.46988 8.46969 8.46989C8.46968 8.4699 8.46967 8.46991 8.46966 8.46992C8.46964 8.46993 8.46963 8.46995 8.46962 8.46996C8.46961 8.46997 8.46959 8.46999 8.46958 8.47C8.46957 8.47001 8.46955 8.47003 8.46954 8.47004C8.46952 8.47006 8.46951 8.47007 8.46949 8.47009C8.46947 8.47011 8.46946 8.47012 8.46944 8.47014C8.46942 8.47016 8.4694 8.47018 8.46938 8.4702C8.46936 8.47022 8.46934 8.47024 8.46932 8.47026C8.4693 8.47028 8.46928 8.4703 8.46926 8.47032C8.46924 8.47034 8.46921 8.47037 8.46919 8.47039C8.46917 8.47041 8.46914 8.47044 8.46912 8.47046C8.46909 8.47049 8.46906 8.47052 8.46904 8.47054C8.46901 8.47057 8.46898 8.4706 8.46895 8.47063C8.46892 8.47065 8.4689 8.47068 8.46886 8.47071C8.46883 8.47074 8.4688 8.47078 8.46877 8.47081C8.46874 8.47084 8.46871 8.47087 8.46867 8.47091C8.46864 8.47094 8.4686 8.47098 8.46857 8.47101C8.46853 8.47105 8.46849 8.47109 8.46845 8.47112C8.46842 8.47116 8.46838 8.4712 8.46834 8.47124C8.4683 8.47128 8.46826 8.47132 8.46821 8.47136C8.46817 8.47141 8.46813 8.47145 8.46808 8.47149C8.46804 8.47154 8.468 8.47158 8.46795 8.47163C8.4679 8.47168 8.46785 8.47172 8.46781 8.47177C8.46776 8.47182 8.46771 8.47187 8.46766 8.47192C8.46761 8.47197 8.46755 8.47203 8.4675 8.47208C8.46745 8.47213 8.46739 8.47219 8.46734 8.47224C8.46728 8.4723 8.46722 8.47236 8.46717 8.47241C8.46711 8.47247 8.46705 8.47253 8.46699 8.47259C8.46693 8.47265 8.46686 8.47271 8.4668 8.47278C8.46674 8.47284 8.46667 8.47291 8.46661 8.47297C8.46654 8.47304 8.46647 8.4731 8.46641 8.47317C8.46634 8.47324 8.46627 8.47331 8.4662 8.47338C8.46613 8.47345 8.46605 8.47353 8.46598 8.4736C8.4659 8.47367 8.46583 8.47375 8.46575 8.47383C8.46568 8.4739 8.4656 8.47398 8.46552 8.47406C8.46544 8.47414 8.46536 8.47422 8.46527 8.4743C8.46519 8.47439 8.46511 8.47447 8.46502 8.47456C8.46494 8.47464 8.46485 8.47473 8.46476 8.47482C8.46467 8.47491 8.46458 8.475 8.46449 8.47509C8.4644 8.47518 8.46431 8.47527 8.46421 8.47537C8.46412 8.47546 8.46402 8.47556 8.46392 8.47566C8.46382 8.47576 8.46372 8.47586 8.46362 8.47596C8.46352 8.47606 8.46342 8.47616 8.46331 8.47627C8.46321 8.47637 8.4631 8.47648 8.46299 8.47658C8.46289 8.47669 8.46278 8.4768 8.46267 8.47691C8.46255 8.47702 8.46244 8.47714 8.46233 8.47725C8.46221 8.47737 8.4621 8.47748 8.46198 8.4776C8.46186 8.47772 8.46174 8.47784 8.46162 8.47796C8.4615 8.47808 8.46137 8.47821 8.46125 8.47833C8.46112 8.47846 8.46099 8.47858 8.46086 8.47871C8.46074 8.47884 8.4606 8.47897 8.46047 8.47911C8.46034 8.47924 8.4602 8.47937 8.46007 8.47951C8.45993 8.47965 8.45979 8.47979 8.45965 8.47993C8.45951 8.48007 8.45937 8.48021 8.45923 8.48035C8.45908 8.4805 8.45894 8.48064 8.45879 8.48079C8.45864 8.48094 8.45849 8.48109 8.45834 8.48124C8.45818 8.48139 8.45803 8.48155 8.45787 8.4817C8.45772 8.48186 8.45756 8.48202 8.4574 8.48218C8.45724 8.48234 8.45708 8.4825 8.45691 8.48267C8.45675 8.48283 8.45658 8.483 8.45641 8.48317C8.45624 8.48333 8.45607 8.48351 8.4559 8.48368C8.45573 8.48385 8.45555 8.48403 8.45538 8.4842C8.4552 8.48438 8.45502 8.48456 8.45484 8.48474C8.45466 8.48492 8.45447 8.48511 8.45429 8.48529C8.4541 8.48548 8.45391 8.48567 8.45372 8.48586C8.45353 8.48605 8.45334 8.48624 8.45315 8.48643C8.45295 8.48663 8.45275 8.48683 8.45255 8.48703C8.45235 8.48722 8.45215 8.48743 8.45195 8.48763C8.45175 8.48783 8.45154 8.48804 8.45133 8.48825C8.45112 8.48846 8.45091 8.48867 8.4507 8.48888C8.45048 8.4891 8.45027 8.48931 8.45005 8.48953C8.44983 8.48975 8.44961 8.48997 8.44939 8.49019C8.44917 8.49041 8.44894 8.49064 8.44871 8.49087C8.44848 8.49109 8.44825 8.49133 8.44802 8.49156C8.44779 8.49179 8.44755 8.49203 8.44732 8.49226C8.44708 8.4925 8.44684 8.49274 8.44659 8.49298C8.44635 8.49323 8.44611 8.49347 8.44586 8.49372C8.44561 8.49397 8.44536 8.49422 8.44511 8.49447C8.44485 8.49472 8.4446 8.49498 8.44434 8.49524C8.44408 8.4955 8.44382 8.49576 8.44356 8.49602C8.4433 8.49628 8.44303 8.49655 8.44276 8.49682C8.44249 8.49709 8.44222 8.49736 8.44195 8.49763C8.44167 8.49791 8.4414 8.49818 8.44112 8.49846C8.44084 8.49874 8.44055 8.49902 8.44027 8.49931C8.43998 8.49959 8.4397 8.49988 8.43941 8.50017C8.43912 8.50046 8.43882 8.50076 8.43853 8.50105C8.43823 8.50135 8.43793 8.50165 8.43763 8.50195C8.43733 8.50225 8.43702 8.50255 8.43672 8.50286C8.43641 8.50317 8.4361 8.50348 8.43579 8.50379C8.43547 8.50411 8.43516 8.50442 8.43484 8.50474C8.43452 8.50506 8.4342 8.50538 8.43387 8.5057C8.43355 8.50603 8.43322 8.50636 8.43289 8.50669C8.43256 8.50702 8.43223 8.50735 8.43189 8.50769C8.43156 8.50802 8.43122 8.50836 8.43087 8.50871C8.43053 8.50905 8.43019 8.50939 8.42984 8.50974C8.42949 8.51009 8.42914 8.51044 8.42878 8.5108C8.42843 8.51115 8.42807 8.51151 8.42771 8.51187C8.42735 8.51223 8.42699 8.51259 8.42662 8.51296C8.42625 8.51333 8.42588 8.5137 8.42551 8.51407C8.42514 8.51444 8.42476 8.51482 8.42438 8.5152C8.424 8.51558 8.42362 8.51596 8.42323 8.51634C8.42285 8.51673 8.42246 8.51712 8.42207 8.51751C8.42168 8.5179 8.42128 8.5183 8.42088 8.5187C8.42048 8.5191 8.42008 8.5195 8.41968 8.5199C8.41927 8.52031 8.41886 8.52072 8.41845 8.52113C8.41804 8.52154 8.41762 8.52195 8.41721 8.52237C8.41679 8.52279 8.41637 8.52321 8.41594 8.52364C8.41552 8.52406 8.41509 8.52449 8.41466 8.52492C8.41423 8.52535 8.41379 8.52579 8.41335 8.52623C8.41291 8.52666 8.41247 8.52711 8.41203 8.52755C8.41158 8.528 8.41113 8.52845 8.41068 8.5289C8.41023 8.52935 8.40977 8.52981 8.40931 8.53026C8.40886 8.53072 8.40839 8.53119 8.40793 8.53165C8.40746 8.53212 8.40699 8.53259 8.40652 8.53306C8.40605 8.53353 8.40557 8.53401 8.40509 8.53449C8.40461 8.53497 8.40413 8.53545 8.40364 8.53594C8.40315 8.53643 8.40266 8.53692 8.40217 8.53741C8.40167 8.53791 8.40117 8.53841 8.40067 8.53891C8.40017 8.53941 8.39967 8.53991 8.39916 8.54042C8.39865 8.54093 8.39813 8.54144 8.39762 8.54196C8.3971 8.54248 8.39658 8.543 8.39606 8.54352C8.39553 8.54404 8.39501 8.54457 8.39448 8.5451C8.39394 8.54563 8.39341 8.54617 8.39287 8.54671C8.39233 8.54725 8.39179 8.54779 8.39124 8.54833C8.3907 8.54888 8.39015 8.54943 8.38959 8.54999C8.38904 8.55054 8.38848 8.5511 8.38792 8.55166C8.38736 8.55222 8.38679 8.55279 8.38622 8.55335C8.38566 8.55392 8.38508 8.5545 8.38451 8.55507C8.38393 8.55565 8.38335 8.55623 8.38276 8.55682C8.38218 8.5574 8.38159 8.55799 8.381 8.55858C8.3804 8.55918 8.37981 8.55977 8.37921 8.56037C8.37861 8.56097 8.378 8.56158 8.37739 8.56219C8.37678 8.56279 8.37617 8.56341 8.37556 8.56402C8.37494 8.56464 8.37432 8.56526 8.37369 8.56589C8.37307 8.56651 8.37244 8.56714 8.37181 8.56777C8.37117 8.56841 8.37054 8.56904 8.3699 8.56968C8.36925 8.57032 8.36861 8.57097 8.36796 8.57162C8.36731 8.57227 8.36666 8.57292 8.366 8.57358C8.36534 8.57424 8.36468 8.5749 8.36401 8.57556C8.36335 8.57623 8.36268 8.5769 8.362 8.57757C8.36133 8.57825 8.36065 8.57893 8.35997 8.57961C8.35929 8.58029 8.3586 8.58098 8.35791 8.58167C8.35722 8.58236 8.35652 8.58306 8.35582 8.58376C8.35512 8.58446 8.35442 8.58516 8.35371 8.58587C8.353 8.58658 8.35229 8.58729 8.35157 8.58801C8.35085 8.58873 8.35013 8.58945 8.34941 8.59017C8.34868 8.5909 8.34795 8.59163 8.34721 8.59236C8.34648 8.5931 8.34574 8.59384 8.345 8.59458C8.34425 8.59533 8.34351 8.59607 8.34275 8.59683C8.342 8.59758 8.34124 8.59833 8.34048 8.5991C8.33972 8.59986 8.33896 8.60062 8.33819 8.60139C8.33742 8.60216 8.33664 8.60294 8.33586 8.60372C8.33508 8.6045 8.3343 8.60528 8.33351 8.60607C8.33272 8.60686 8.33193 8.60765 8.33113 8.60845C8.33033 8.60925 8.32953 8.61005 8.32872 8.61085C8.32792 8.61166 8.32711 8.61247 8.32629 8.61329C8.32547 8.6141 8.32465 8.61492 8.32383 8.61575C8.323 8.61658 8.32217 8.61741 8.32134 8.61824C8.3205 8.61907 8.31967 8.61991 8.31882 8.62076C8.31798 8.6216 8.31713 8.62245 8.31627 8.6233C8.31542 8.62416 8.31456 8.62502 8.3137 8.62588C8.31284 8.62674 8.31197 8.62761 8.3111 8.62848C8.31022 8.62935 8.30935 8.63023 8.30846 8.63111C8.30758 8.632 8.3067 8.63288 8.3058 8.63378C8.30491 8.63467 8.30402 8.63556 8.30311 8.63647C8.30221 8.63737 8.30131 8.63827 8.30039 8.63918C8.29948 8.6401 8.29857 8.64101 8.29765 8.64193C8.29672 8.64285 8.2958 8.64378 8.29487 8.64471C8.29394 8.64564 8.293 8.64658 8.29206 8.64752C8.29112 8.64846 8.29017 8.64941 8.28922 8.65036C8.28827 8.65131 8.28732 8.65226 8.28635 8.65322C8.28539 8.65419 8.28443 8.65515 8.28346 8.65612C8.28248 8.65709 8.28151 8.65807 8.28053 8.65905C8.27955 8.66003 8.27856 8.66102 8.27757 8.66201C8.27658 8.663 8.27558 8.664 8.27458 8.665C8.27358 8.666 8.27257 8.66701 8.27156 8.66802C8.27055 8.66903 8.26953 8.67005 8.26851 8.67107C8.26749 8.67209 8.26646 8.67312 8.26542 8.67415C8.26439 8.67519 8.26335 8.67622 8.26231 8.67727C8.26127 8.67831 8.26022 8.67936 8.25917 8.68041C8.25811 8.68147 8.25705 8.68253 8.25599 8.68359C8.25492 8.68465 8.25386 8.68572 8.25278 8.6868C8.25171 8.68787 8.25063 8.68895 8.24954 8.69004C8.24845 8.69112 8.24736 8.69222 8.24627 8.69331C8.24517 8.69441 8.24407 8.69551 8.24296 8.69662C8.24186 8.69772 8.24074 8.69884 8.23963 8.69995C8.23851 8.70107 8.23738 8.70219 8.23626 8.70332C8.23513 8.70445 8.23399 8.70559 8.23285 8.70673C8.23171 8.70787 8.23057 8.70901 8.22942 8.71016C8.22827 8.71131 8.22711 8.71247 8.22595 8.71363C8.22479 8.71479 8.22362 8.71596 8.22245 8.71713C8.22127 8.7183 8.2201 8.71948 8.21891 8.72067C8.21773 8.72185 8.21654 8.72304 8.21534 8.72424C8.21415 8.72543 8.21295 8.72663 8.21174 8.72784C8.21054 8.72904 8.20932 8.73026 8.20811 8.73147C8.20689 8.73269 8.20566 8.73391 8.20444 8.73514C8.20321 8.73637 8.20197 8.73761 8.20073 8.73885C8.19949 8.74009 8.19825 8.74133 8.19699 8.74259C8.19574 8.74384 8.19448 8.7451 8.19322 8.74636C8.19196 8.74762 8.19069 8.74889 8.18941 8.75017C8.18814 8.75144 8.18686 8.75272 8.18557 8.75401C8.18428 8.75529 8.18299 8.75659 8.18169 8.75789C8.1804 8.75918 8.17909 8.76049 8.17778 8.7618C8.17647 8.76311 8.17516 8.76442 8.17383 8.76575C8.17251 8.76707 8.17118 8.76839 8.16985 8.76973C8.16852 8.77106 8.16718 8.7724 8.16583 8.77375C8.16449 8.77509 8.16314 8.77644 8.16178 8.7778C8.16042 8.77916 8.15906 8.78052 8.15769 8.78189C8.15632 8.78326 8.15494 8.78464 8.15356 8.78602C8.15218 8.7874 8.15079 8.78879 8.1494 8.79018C8.14801 8.79157 8.14661 8.79297 8.1452 8.79438C8.1438 8.79578 8.14238 8.7972 8.14097 8.79861C8.13955 8.80003 8.13812 8.80145 8.13669 8.80288C8.13526 8.80432 8.13383 8.80575 8.13239 8.80719C8.13094 8.80864 8.12949 8.81008 8.12804 8.81154C8.12659 8.81299 8.12512 8.81445 8.12366 8.81592C8.12219 8.81739 8.12072 8.81886 8.11924 8.82034C8.11776 8.82182 8.11627 8.82331 8.11478 8.8248C8.11329 8.82629 8.11179 8.82779 8.11028 8.82929C8.10878 8.8308 8.10727 8.83231 8.10575 8.83383C8.10423 8.83534 8.10271 8.83687 8.10118 8.8384C8.09965 8.83993 8.09811 8.84146 8.09657 8.84301C8.09503 8.84455 8.09348 8.8461 8.09192 8.84765C8.09037 8.84921 8.08881 8.85077 8.08724 8.85234C8.08567 8.85391 8.0841 8.85548 8.08251 8.85706C8.08093 8.85865 8.07935 8.86023 8.07775 8.86183C8.07616 8.86342 8.07456 8.86502 8.07295 8.86663C8.07134 8.86824 8.06973 8.86985 8.06811 8.87147C8.06649 8.87309 8.06486 8.87472 8.06323 8.87635C8.0616 8.87798 8.05996 8.87962 8.05831 8.88127C8.05666 8.88292 8.05501 8.88457 8.05335 8.88623C8.05169 8.88789 8.05003 8.88955 8.04835 8.89123C8.04668 8.8929 8.045 8.89458 8.04331 8.89626C8.04163 8.89795 8.03994 8.89964 8.03824 8.90134C8.03654 8.90304 8.03483 8.90475 8.03312 8.90646C8.0314 8.90817 8.02968 8.90989 8.02796 8.91162C8.02623 8.91335 8.0245 8.91508 8.02276 8.91682C8.02102 8.91856 8.01927 8.92031 8.01752 8.92206C8.01577 8.92381 8.01401 8.92557 8.01224 8.92734C8.01047 8.92911 8.0087 8.93088 8.00692 8.93266C8.00514 8.93444 8.00335 8.93623 8.00155 8.93802C7.99976 8.93982 7.99796 8.94162 7.99615 8.94343C7.99434 8.94524 7.99253 8.94705 7.99071 8.94887C7.98888 8.9507 7.98705 8.95252 7.98522 8.95436C7.98338 8.9562 7.98154 8.95804 7.97969 8.95989C7.97784 8.96174 7.97598 8.9636 7.97412 8.96546C7.97226 8.96732 7.97038 8.96919 7.96851 8.97107C7.96663 8.97295 7.96474 8.97484 7.96285 8.97673C7.96096 8.97862 7.95906 8.98052 7.95715 8.98242C7.95525 8.98433 7.95334 8.98624 7.95142 8.98816C7.94949 8.99008 7.94757 8.99201 7.94563 8.99395C7.9437 8.99588 7.94176 8.99782 7.93981 8.99977C7.93786 9.00172 7.9359 9.00368 7.93394 9.00564C7.93198 9.0076 7.93001 9.00957 7.92803 9.01155C7.92605 9.01353 7.92407 9.01551 7.92207 9.01751C7.92008 9.0195 7.91808 9.0215 7.91608 9.0235C7.91407 9.02551 7.91205 9.02752 7.91003 9.02955C7.90801 9.03157 7.90598 9.03359 7.90395 9.03563C7.90191 9.03767 7.89987 9.03971 7.89782 9.04176C7.89577 9.04381 7.89371 9.04587 7.89165 9.04793C7.88958 9.05 7.88751 9.05207 7.88543 9.05415C7.88335 9.05623 7.88126 9.05832 7.87917 9.06041C7.87707 9.06251 7.87497 9.06461 7.87286 9.06672C7.87075 9.06883 7.86863 9.07095 7.86651 9.07307C7.86438 9.0752 7.86225 9.07733 7.86011 9.07947C7.85797 9.08161 7.85582 9.08375 7.85367 9.08591C7.85151 9.08806 7.84935 9.09023 7.84718 9.0924C7.84501 9.09457 7.84284 9.09674 7.84065 9.09893C7.83847 9.10111 7.83627 9.10331 7.83407 9.10551C7.83187 9.10771 7.82967 9.10991 7.82745 9.11213C7.82524 9.11434 7.82301 9.11657 7.82078 9.1188C7.81855 9.12103 7.81631 9.12327 7.81407 9.12551C7.81182 9.12776 7.80957 9.13001 7.80731 9.13227C7.80504 9.13453 7.80277 9.1368 7.8005 9.13908C7.79822 9.14136 7.79594 9.14364 7.79364 9.14593C7.79135 9.14823 7.78905 9.15053 7.78674 9.15284C7.78444 9.15514 7.78212 9.15746 7.7798 9.15978C7.77747 9.16211 7.77514 9.16444 7.7728 9.16678C7.77046 9.16912 7.76812 9.17146 7.76576 9.17382C7.76341 9.17617 7.76104 9.17854 7.75867 9.18091C7.7563 9.18328 7.75392 9.18566 7.75154 9.18804C7.74915 9.19043 7.74676 9.19282 7.74435 9.19523C7.74195 9.19763 7.73954 9.20004 7.73712 9.20246C7.7347 9.20488 7.73228 9.2073 7.72984 9.20974C7.72741 9.21217 7.72497 9.21461 7.72251 9.21706C7.72006 9.21951 7.71761 9.22197 7.71514 9.22444C7.71267 9.22691 7.7102 9.22938 7.70772 9.23186C7.70523 9.23435 7.70274 9.23684 7.70024 9.23934C7.69774 9.24183 7.69524 9.24434 7.69272 9.24686C7.69021 9.24937 7.68768 9.2519 7.68515 9.25443C7.68262 9.25696 7.68008 9.2595 7.67753 9.26205C7.67499 9.26459 7.67243 9.26715 7.66987 9.26971C7.6673 9.27228 7.66473 9.27485 7.66215 9.27743C7.65957 9.28001 7.65698 9.2826 7.65438 9.2852C7.65178 9.2878 7.64918 9.2904 7.64656 9.29301C7.64395 9.29563 7.64133 9.29825 7.6387 9.30088C7.63607 9.30351 7.63343 9.30615 7.63078 9.3088C7.62814 9.31144 7.62548 9.3141 7.62282 9.31676C7.62015 9.31943 7.61748 9.3221 7.6148 9.32478C7.61212 9.32746 7.60943 9.33015 7.60673 9.33285C7.60404 9.33554 7.60133 9.33825 7.59862 9.34096C7.5959 9.34368 7.59318 9.3464 7.59045 9.34913C7.58772 9.35186 7.58498 9.3546 7.58223 9.35735C7.57948 9.3601 7.57672 9.36286 7.57396 9.36562C7.57119 9.36839 7.56842 9.37116 7.56564 9.37394C7.56285 9.37673 7.56006 9.37952 7.55726 9.38232C7.55446 9.38512 7.55166 9.38792 7.54884 9.39074C7.54602 9.39356 7.5432 9.39638 7.54036 9.39922C7.53753 9.40205 7.53469 9.40489 7.53184 9.40774C7.52898 9.41059 7.52612 9.41345 7.52326 9.41632C7.52039 9.41919 7.51751 9.42207 7.51462 9.42496C7.51174 9.42784 7.50884 9.43074 7.50594 9.43364C7.50304 9.43654 7.50012 9.43946 7.4972 9.44238C7.49428 9.4453 7.49135 9.44823 7.48841 9.45117C7.48547 9.4541 7.48253 9.45705 7.47957 9.46001C7.47661 9.46296 7.47365 9.46593 7.47068 9.4689C7.4677 9.47188 7.46472 9.47486 7.46173 9.47785C7.45874 9.48084 7.45574 9.48384 7.45273 9.48685C7.44972 9.48986 7.4467 9.49288 7.44367 9.49591C7.44064 9.49893 7.43761 9.50197 7.43456 9.50502C7.43152 9.50806 7.42846 9.51112 7.4254 9.51418C7.42234 9.51724 7.41927 9.52031 7.41618 9.52339C7.4131 9.52648 7.41001 9.52957 7.40691 9.53266C7.40382 9.53576 7.40071 9.53887 7.39759 9.54199C7.39447 9.54511 7.39135 9.54823 7.38821 9.55137C7.38508 9.5545 7.38193 9.55765 7.37878 9.5608C7.37562 9.56395 7.37246 9.56712 7.36929 9.57029C7.36612 9.57346 7.36294 9.57664 7.35975 9.57983C7.35656 9.58302 7.35336 9.58622 7.35015 9.58943C7.34694 9.59264 7.34372 9.59586 7.3405 9.59908C7.33727 9.60231 7.33403 9.60555 7.33079 9.60879C7.32754 9.61204 7.32429 9.61529 7.32102 9.61855C7.31776 9.62182 7.31449 9.62509 7.3112 9.62837C7.30792 9.63166 7.30463 9.63495 7.30133 9.63825C7.29803 9.64155 7.29472 9.64486 7.2914 9.64818C7.28808 9.6515 7.28475 9.65483 7.28141 9.65817C7.27807 9.66151 7.27473 9.66485 7.27137 9.66821C7.26801 9.67157 7.26464 9.67494 7.26127 9.67831C7.25789 9.68169 7.25451 9.68507 7.25111 9.68847C7.24772 9.69186 7.24431 9.69527 7.2409 9.69868C7.23748 9.70209 7.23406 9.70552 7.23063 9.70895C7.2272 9.71238 7.22375 9.71583 7.2203 9.71928C7.21685 9.72273 7.21339 9.72619 7.20992 9.72966C7.20645 9.73313 7.20296 9.73661 7.19947 9.7401C7.19598 9.74359 7.19248 9.74709 7.18898 9.7506C7.18547 9.75411 7.18195 9.75763 7.17842 9.76116C7.17489 9.76469 7.17135 9.76823 7.1678 9.77178C7.16426 9.77532 7.1607 9.77888 7.15713 9.78245C7.15356 9.78602 7.14999 9.78959 7.1464 9.79318C7.14281 9.79677 7.13922 9.80036 7.13561 9.80397C7.132 9.80758 7.12839 9.81119 7.12476 9.81482C7.12114 9.81844 7.1175 9.82208 7.11386 9.82572C7.11021 9.82937 7.10656 9.83302 7.10289 9.83669C7.09923 9.84035 7.09555 9.84403 7.09187 9.84771C7.08818 9.8514 7.08449 9.85509 7.08078 9.8588C7.07708 9.8625 7.07336 9.86621 7.06964 9.86994C7.06592 9.87366 7.06218 9.8774 7.05844 9.88114C7.05469 9.88488 7.05094 9.88864 7.04718 9.8924C7.04341 9.89617 7.03964 9.89994 7.03586 9.90372C7.03207 9.90751 7.02828 9.9113 7.02447 9.9151C7.02067 9.91891 7.01686 9.92272 7.01303 9.92655C7.00921 9.93037 7.00538 9.9342 7.00153 9.93805C6.99769 9.94189 6.99383 9.94575 6.98997 9.94961C6.98611 9.95347 6.98223 9.95735 6.97835 9.96123C6.97446 9.96512 6.97057 9.96901 6.96666 9.97292C6.96276 9.97682 6.95884 9.98073 6.95492 9.98466C6.95099 9.98858 6.94706 9.99252 6.94311 9.99646C6.93917 10.0004 6.93521 10.0044 6.93125 10.0083C6.92728 10.0123 6.92331 10.0163 6.91932 10.0203C6.91533 10.0242 6.91134 10.0282 6.90733 10.0322C6.90333 10.0363 6.89931 10.0403 6.89528 10.0443C6.89125 10.0483 6.88722 10.0524 6.88317 10.0564C6.87912 10.0605 6.87506 10.0645 6.87099 10.0686C6.86693 10.0727 6.86285 10.0767 6.85876 10.0808C6.85467 10.0849 6.85057 10.089 6.84646 10.0931C6.84235 10.0972 6.83823 10.1013 6.8341 10.1055C6.82997 10.1096 6.82583 10.1138 6.82167 10.1179C6.81752 10.1221 6.81336 10.1262 6.80919 10.1304C6.80502 10.1346 6.80083 10.1387 6.79664 10.1429C6.79245 10.1471 6.78824 10.1513 6.78403 10.1556C6.77981 10.1598 6.77559 10.164 6.77135 10.1682C6.76711 10.1725 6.76287 10.1767 6.75861 10.181C6.75435 10.1852 6.75009 10.1895 6.74581 10.1938C6.74153 10.198 6.73724 10.2023 6.73294 10.2066C6.72864 10.2109 6.72433 10.2152 6.72001 10.2196C6.71569 10.2239 6.71136 10.2282 6.70702 10.2326C6.70268 10.2369 6.69832 10.2413 6.69396 10.2456C6.6896 10.25 6.68522 10.2544 6.68084 10.2587C6.67645 10.2631 6.67206 10.2675 6.66765 10.2719C6.66324 10.2763 6.65883 10.2808 6.6544 10.2852C6.64997 10.2896 6.64553 10.294 6.64108 10.2985C6.63663 10.3029 6.63217 10.3074 6.6277 10.3119C6.62323 10.3164 6.61875 10.3208 6.61425 10.3253C6.60976 10.3298 6.60526 10.3343 6.60074 10.3388C6.59623 10.3434 6.5917 10.3479 6.58716 10.3524C6.58263 10.357 6.57808 10.3615 6.57352 10.3661C6.56896 10.3706 6.56439 10.3752 6.55981 10.3798C6.55523 10.3843 6.55064 10.3889 6.54604 10.3935C6.54144 10.3981 6.53682 10.4028 6.5322 10.4074C6.52757 10.412 6.52294 10.4166 6.51829 10.4213C6.51364 10.4259 6.50899 10.4306 6.50432 10.4353C6.49965 10.4399 6.49497 10.4446 6.49028 10.4493C6.48559 10.454 6.48088 10.4587 6.47617 10.4634C6.47146 10.4681 6.46673 10.4728 6.462 10.4776C6.45726 10.4823 6.45252 10.4871 6.44776 10.4918C6.443 10.4966 6.43823 10.5013 6.43345 10.5061C6.42867 10.5109 6.42388 10.5157 6.41907 10.5205C6.41427 10.5253 6.40946 10.5301 6.40463 10.5349C6.39981 10.5398 6.39497 10.5446 6.39012 10.5495C6.38527 10.5543 6.38041 10.5592 6.37554 10.564C6.37067 10.5689 6.36579 10.5738 6.3609 10.5787C6.35601 10.5836 6.3511 10.5885 6.34618 10.5934C6.34127 10.5983 6.33634 10.6032 6.3314 10.6082C6.32646 10.6131 6.32151 10.6181 6.31655 10.623C6.31159 10.628 6.30662 10.633 6.30163 10.6379C6.29665 10.6429 6.29165 10.6479 6.28664 10.6529C6.28164 10.6579 6.27662 10.663 6.27159 10.668C6.26656 10.673 6.26152 10.6781 6.25646 10.6831C6.25141 10.6882 6.24634 10.6932 6.24127 10.6983C6.23619 10.7034 6.2311 10.7085 6.226 10.7136C6.2209 10.7187 6.21579 10.7238 6.21067 10.7289C6.20554 10.734 6.20041 10.7392 6.19526 10.7443C6.19012 10.7495 6.18496 10.7546 6.17979 10.7598C6.17462 10.765 6.16944 10.7701 6.16425 10.7753C6.15905 10.7805 6.15385 10.7857 6.14863 10.7909C6.14342 10.7962 6.13819 10.8014 6.13295 10.8066C6.12771 10.8119 6.12246 10.8171 6.11719 10.8224C6.11193 10.8276 6.10666 10.8329 6.10137 10.8382C6.09608 10.8435 6.09078 10.8488 6.08547 10.8541C6.08016 10.8594 6.07484 10.8647 6.06951 10.8701C6.06417 10.8754 6.05883 10.8808 6.05347 10.8861C6.04811 10.8915 6.04274 10.8968 6.03736 10.9022C6.03198 10.9076 6.02658 10.913 6.02118 10.9184C6.01577 10.9238 6.01035 10.9292 6.00492 10.9347C5.99949 10.9401 5.99405 10.9455 5.9886 10.951C5.98315 10.9564 5.97768 10.9619 5.9722 10.9674C5.96673 10.9729 5.96124 10.9783 5.95574 10.9838C5.95023 10.9893 5.94472 10.9949 5.9392 11.0004C5.93367 11.0059 5.92813 11.0114 5.92258 11.017C5.91703 11.0225 5.91147 11.0281 5.9059 11.0337C5.90032 11.0393 5.89474 11.0448 5.88914 11.0504C5.88354 11.056 5.87793 11.0616 5.87231 11.0673C5.86668 11.0729 5.86105 11.0785 5.8554 11.0842C5.84976 11.0898 5.8441 11.0955 5.83843 11.1012C5.83276 11.1068 5.82707 11.1125 5.82138 11.1182C5.81568 11.1239 5.80997 11.1296 5.80425 11.1353C5.79853 11.141 5.7928 11.1468 5.78705 11.1525C5.78131 11.1583 5.77555 11.164 5.76978 11.1698C5.76401 11.1756 5.75823 11.1813 5.75244 11.1871C5.74664 11.1929 5.74084 11.1987 5.73502 11.2046C5.7292 11.2104 5.72337 11.2162 5.71752 11.2221C5.71168 11.2279 5.70582 11.2338 5.69996 11.2396C5.69409 11.2455 5.68821 11.2514 5.68231 11.2573C5.67642 11.2632 5.67051 11.2691 5.66459 11.275C5.65868 11.2809 5.65275 11.2868 5.6468 11.2928C5.64086 11.2987 5.6349 11.3047 5.62893 11.3106C5.62297 11.3166 5.61699 11.3226 5.61099 11.3286C5.605 11.3346 5.59899 11.3406 5.59297 11.3466C5.58695 11.3526 5.58092 11.3587 5.57488 11.3647C5.56884 11.3707 5.56278 11.3768 5.55671 11.3829C5.55064 11.3889 5.54456 11.395 5.53846 11.4011C5.53237 11.4072 5.52626 11.4133 5.52014 11.4194C5.51402 11.4256 5.50789 11.4317 5.50175 11.4378C5.4956 11.444 5.48944 11.4501 5.48327 11.4563C5.4771 11.4625 5.47092 11.4687 5.46472 11.4749C5.45852 11.4811 5.45232 11.4873 5.44609 11.4935C5.43987 11.4997 5.43364 11.5059 5.42739 11.5122C5.42114 11.5184 5.41488 11.5247 5.40861 11.531C5.40234 11.5372 5.39605 11.5435 5.38975 11.5498C5.38345 11.5561 5.37714 11.5624 5.37082 11.5688C5.36449 11.5751 5.35815 11.5814 5.3518 11.5878C5.34545 11.5941 5.33909 11.6005 5.33271 11.6069C5.32634 11.6132 5.31995 11.6196 5.31355 11.626C5.30714 11.6324 5.30073 11.6389 5.2943 11.6453C5.28787 11.6517 5.28143 11.6581 5.27497 11.6646C5.26852 11.6711 5.26205 11.6775 5.25557 11.684C5.24909 11.6905 5.2426 11.697 5.23609 11.7035C5.22959 11.71 5.22307 11.7165 5.21653 11.723C5.21 11.7296 5.20345 11.7361 5.19689 11.7427C5.19034 11.7492 5.18376 11.7558 5.17718 11.7624C5.17059 11.769 5.16399 11.7756 5.15738 11.7822C5.15077 11.7888 5.14415 11.7954 5.13751 11.8021C5.13087 11.8087 5.12422 11.8154 5.11755 11.822C5.11089 11.8287 5.10421 11.8354 5.09752 11.8421C5.09083 11.8488 5.08412 11.8555 5.0774 11.8622C5.07069 11.8689 5.06396 11.8756 5.05721 11.8824C5.05047 11.8891 5.04371 11.8959 5.03694 11.9026C5.03017 11.9094 5.02338 11.9162 5.01658 11.923C5.00979 11.9298 5.00298 11.9366 4.99615 11.9434C4.98933 11.9503 4.98249 11.9571 4.97564 11.9639C4.96879 11.9708 4.96192 11.9777 4.95504 11.9845C4.94816 11.9914 4.94127 11.9983 4.93437 12.0052L5.99503 13.0659C6.00193 13.059 6.00882 13.0521 6.0157 13.0452C6.02258 13.0383 6.02945 13.0315 6.0363 13.0246C6.04315 13.0178 6.04999 13.0109 6.05681 13.0041C6.06364 12.9973 6.07045 12.9905 6.07724 12.9837C6.08404 12.9769 6.09083 12.9701 6.0976 12.9633C6.10437 12.9565 6.11113 12.9498 6.11787 12.943C6.12462 12.9363 6.13135 12.9296 6.13806 12.9228C6.14478 12.9161 6.15149 12.9094 6.15818 12.9027C6.16487 12.896 6.17155 12.8894 6.17821 12.8827C6.18488 12.876 6.19153 12.8694 6.19817 12.8627C6.20481 12.8561 6.21143 12.8495 6.21804 12.8429C6.22465 12.8362 6.23125 12.8296 6.23784 12.8231C6.24442 12.8165 6.251 12.8099 6.25755 12.8033C6.26411 12.7968 6.27066 12.7902 6.27719 12.7837C6.28373 12.7772 6.29025 12.7707 6.29675 12.7641C6.30326 12.7576 6.30975 12.7511 6.31623 12.7447C6.32271 12.7382 6.32918 12.7317 6.33564 12.7253C6.34209 12.7188 6.34853 12.7124 6.35496 12.7059C6.36139 12.6995 6.3678 12.6931 6.37421 12.6867C6.38061 12.6803 6.387 12.6739 6.39337 12.6675C6.39975 12.6611 6.40611 12.6548 6.41246 12.6484C6.41881 12.6421 6.42515 12.6357 6.43148 12.6294C6.4378 12.6231 6.44411 12.6168 6.45041 12.6105C6.45671 12.6042 6.463 12.5979 6.46927 12.5916C6.47554 12.5854 6.4818 12.5791 6.48805 12.5728C6.4943 12.5666 6.50053 12.5604 6.50675 12.5541C6.51298 12.5479 6.51918 12.5417 6.52538 12.5355C6.53158 12.5293 6.53776 12.5231 6.54393 12.517C6.5501 12.5108 6.55626 12.5046 6.56241 12.4985C6.56855 12.4923 6.57468 12.4862 6.5808 12.4801C6.58692 12.474 6.59303 12.4679 6.59913 12.4618C6.60522 12.4557 6.6113 12.4496 6.61737 12.4435C6.62344 12.4375 6.6295 12.4314 6.63554 12.4254C6.64158 12.4193 6.64761 12.4133 6.65363 12.4073C6.65965 12.4012 6.66566 12.3952 6.67165 12.3892C6.67765 12.3833 6.68363 12.3773 6.68959 12.3713C6.69556 12.3653 6.70152 12.3594 6.70746 12.3534C6.71341 12.3475 6.71934 12.3416 6.72525 12.3356C6.73117 12.3297 6.73708 12.3238 6.74297 12.3179C6.74887 12.312 6.75475 12.3062 6.76062 12.3003C6.76648 12.2944 6.77234 12.2886 6.77818 12.2827C6.78403 12.2769 6.78986 12.271 6.79568 12.2652C6.8015 12.2594 6.8073 12.2536 6.8131 12.2478C6.81889 12.242 6.82467 12.2362 6.83044 12.2305C6.83621 12.2247 6.84197 12.2189 6.84771 12.2132C6.85346 12.2074 6.85919 12.2017 6.86491 12.196C6.87063 12.1903 6.87634 12.1846 6.88204 12.1789C6.88773 12.1732 6.89342 12.1675 6.89909 12.1618C6.90476 12.1561 6.91042 12.1505 6.91606 12.1448C6.92171 12.1392 6.92735 12.1336 6.93297 12.1279C6.93859 12.1223 6.9442 12.1167 6.9498 12.1111C6.9554 12.1055 6.96098 12.0999 6.96656 12.0943C6.97213 12.0888 6.97769 12.0832 6.98324 12.0777C6.98879 12.0721 6.99433 12.0666 6.99986 12.061C7.00538 12.0555 7.01089 12.05 7.0164 12.0445C7.0219 12.039 7.02739 12.0335 7.03286 12.028C7.03834 12.0226 7.04381 12.0171 7.04926 12.0116C7.05471 12.0062 7.06015 12.0007 7.06558 11.9953C7.07101 11.9899 7.07643 11.9845 7.08184 11.9791C7.08724 11.9737 7.09264 11.9683 7.09802 11.9629C7.1034 11.9575 7.10877 11.9521 7.11413 11.9468C7.11949 11.9414 7.12483 11.9361 7.13017 11.9307C7.1355 11.9254 7.14082 11.9201 7.14613 11.9148C7.15144 11.9095 7.15674 11.9042 7.16203 11.8989C7.16732 11.8936 7.17259 11.8883 7.17785 11.883C7.18312 11.8778 7.18837 11.8725 7.19361 11.8673C7.19885 11.8621 7.20408 11.8568 7.20929 11.8516C7.21451 11.8464 7.21971 11.8412 7.22491 11.836C7.2301 11.8308 7.23528 11.8256 7.24045 11.8204C7.24562 11.8153 7.25078 11.8101 7.25592 11.805C7.26107 11.7998 7.26621 11.7947 7.27133 11.7896C7.27645 11.7844 7.28156 11.7793 7.28666 11.7742C7.29176 11.7691 7.29685 11.764 7.30193 11.759C7.307 11.7539 7.31207 11.7488 7.31712 11.7438C7.32218 11.7387 7.32722 11.7337 7.33225 11.7287C7.33728 11.7236 7.3423 11.7186 7.34731 11.7136C7.35231 11.7086 7.35731 11.7036 7.36229 11.6986C7.36728 11.6936 7.37225 11.6886 7.37721 11.6837C7.38217 11.6787 7.38712 11.6738 7.39206 11.6688C7.397 11.6639 7.40193 11.659 7.40684 11.6541C7.41176 11.6491 7.41667 11.6442 7.42156 11.6393C7.42645 11.6344 7.43133 11.6296 7.4362 11.6247C7.44108 11.6198 7.44593 11.615 7.45078 11.6101C7.45563 11.6053 7.46047 11.6004 7.46529 11.5956C7.47012 11.5908 7.47493 11.586 7.47973 11.5812C7.48454 11.5764 7.48933 11.5716 7.49411 11.5668C7.49889 11.562 7.50366 11.5572 7.50842 11.5525C7.51318 11.5477 7.51792 11.543 7.52266 11.5382C7.52739 11.5335 7.53212 11.5288 7.53683 11.5241C7.54154 11.5194 7.54625 11.5147 7.55094 11.51C7.55563 11.5053 7.56031 11.5006 7.56498 11.4959C7.56965 11.4913 7.5743 11.4866 7.57895 11.4819C7.5836 11.4773 7.58823 11.4727 7.59286 11.468C7.59748 11.4634 7.6021 11.4588 7.6067 11.4542C7.6113 11.4496 7.61589 11.445 7.62047 11.4404C7.62505 11.4358 7.62962 11.4313 7.63418 11.4267C7.63874 11.4222 7.64329 11.4176 7.64782 11.4131C7.65236 11.4085 7.65689 11.404 7.6614 11.3995C7.66592 11.395 7.67042 11.3905 7.67491 11.386C7.67941 11.3815 7.68389 11.377 7.68836 11.3725C7.69283 11.3681 7.69729 11.3636 7.70174 11.3592C7.70619 11.3547 7.71063 11.3503 7.71506 11.3458C7.71949 11.3414 7.7239 11.337 7.72831 11.3326C7.73272 11.3282 7.73711 11.3238 7.7415 11.3194C7.74588 11.315 7.75026 11.3106 7.75462 11.3063C7.75898 11.3019 7.76334 11.2976 7.76768 11.2932C7.77202 11.2889 7.77635 11.2845 7.78067 11.2802C7.78499 11.2759 7.7893 11.2716 7.7936 11.2673C7.7979 11.263 7.80219 11.2587 7.80647 11.2544C7.81075 11.2502 7.81501 11.2459 7.81927 11.2416C7.82353 11.2374 7.82778 11.2331 7.83201 11.2289C7.83625 11.2247 7.84047 11.2204 7.84469 11.2162C7.8489 11.212 7.85311 11.2078 7.8573 11.2036C7.86149 11.1994 7.86568 11.1952 7.86985 11.1911C7.87402 11.1869 7.87818 11.1827 7.88233 11.1786C7.88649 11.1744 7.89063 11.1703 7.89476 11.1661C7.89889 11.162 7.90301 11.1579 7.90712 11.1538C7.91123 11.1497 7.91533 11.1456 7.91942 11.1415C7.92351 11.1374 7.92759 11.1333 7.93165 11.1292C7.93572 11.1252 7.93978 11.1211 7.94383 11.1171C7.94788 11.113 7.95191 11.109 7.95594 11.105C7.95997 11.1009 7.96399 11.0969 7.96799 11.0929C7.972 11.0889 7.976 11.0849 7.97998 11.0809C7.98397 11.0769 7.98794 11.073 7.99191 11.069C7.99587 11.065 7.99983 11.0611 8.00377 11.0571C8.00772 11.0532 8.01166 11.0492 8.01558 11.0453C8.0195 11.0414 8.02342 11.0375 8.02732 11.0336C8.03123 11.0297 8.03512 11.0258 8.03901 11.0219C8.04289 11.018 8.04677 11.0141 8.05063 11.0103C8.05449 11.0064 8.05835 11.0026 8.06219 10.9987C8.06604 10.9949 8.06987 10.991 8.07369 10.9872C8.07752 10.9834 8.08133 10.9796 8.08513 10.9758C8.08894 10.972 8.09273 10.9682 8.09652 10.9644C8.1003 10.9606 8.10407 10.9568 8.10784 10.9531C8.1116 10.9493 8.11535 10.9455 8.1191 10.9418C8.12284 10.9381 8.12658 10.9343 8.1303 10.9306C8.13402 10.9269 8.13774 10.9232 8.14144 10.9195C8.14515 10.9158 8.14884 10.9121 8.15253 10.9084C8.15621 10.9047 8.15989 10.901 8.16355 10.8973C8.16722 10.8937 8.17087 10.89 8.17452 10.8864C8.17816 10.8827 8.1818 10.8791 8.18542 10.8755C8.18905 10.8719 8.19266 10.8682 8.19627 10.8646C8.19988 10.861 8.20347 10.8574 8.20706 10.8538C8.21065 10.8503 8.21422 10.8467 8.21779 10.8431C8.22136 10.8395 8.22492 10.836 8.22846 10.8324C8.23201 10.8289 8.23555 10.8253 8.23908 10.8218C8.24261 10.8183 8.24613 10.8148 8.24964 10.8113C8.25314 10.8078 8.25664 10.8043 8.26013 10.8008C8.26362 10.7973 8.26711 10.7938 8.27058 10.7903C8.27405 10.7869 8.27751 10.7834 8.28096 10.7799C8.28441 10.7765 8.28786 10.773 8.29129 10.7696C8.29472 10.7662 8.29814 10.7628 8.30156 10.7593C8.30497 10.7559 8.30838 10.7525 8.31177 10.7491C8.31517 10.7457 8.31855 10.7423 8.32193 10.739C8.3253 10.7356 8.32867 10.7322 8.33203 10.7289C8.33539 10.7255 8.33873 10.7222 8.34207 10.7188C8.34541 10.7155 8.34874 10.7122 8.35206 10.7088C8.35538 10.7055 8.35869 10.7022 8.36199 10.6989C8.36529 10.6956 8.36858 10.6923 8.37186 10.689C8.37515 10.6858 8.37842 10.6825 8.38168 10.6792C8.38495 10.676 8.3882 10.6727 8.39145 10.6695C8.39469 10.6662 8.39793 10.663 8.40116 10.6597C8.40438 10.6565 8.4076 10.6533 8.41081 10.6501C8.41402 10.6469 8.41722 10.6437 8.42041 10.6405C8.4236 10.6373 8.42678 10.6341 8.42995 10.6309C8.43312 10.6278 8.43628 10.6246 8.43944 10.6215C8.44259 10.6183 8.44574 10.6152 8.44887 10.612C8.45201 10.6089 8.45513 10.6058 8.45825 10.6026C8.46137 10.5995 8.46448 10.5964 8.46757 10.5933C8.47067 10.5902 8.47376 10.5871 8.47684 10.5841C8.47993 10.581 8.483 10.5779 8.48606 10.5748C8.48912 10.5718 8.49218 10.5687 8.49522 10.5657C8.49827 10.5626 8.5013 10.5596 8.50433 10.5566C8.50736 10.5535 8.51038 10.5505 8.51339 10.5475C8.5164 10.5445 8.5194 10.5415 8.52239 10.5385C8.52538 10.5355 8.52836 10.5325 8.53134 10.5296C8.53431 10.5266 8.53728 10.5236 8.54023 10.5207C8.54319 10.5177 8.54613 10.5148 8.54907 10.5118C8.55201 10.5089 8.55494 10.506 8.55786 10.503C8.56078 10.5001 8.5637 10.4972 8.5666 10.4943C8.5695 10.4914 8.5724 10.4885 8.57528 10.4856C8.57817 10.4827 8.58105 10.4799 8.58392 10.477C8.58678 10.4741 8.58964 10.4713 8.5925 10.4684C8.59535 10.4656 8.59819 10.4627 8.60102 10.4599C8.60386 10.457 8.60668 10.4542 8.6095 10.4514C8.61232 10.4486 8.61512 10.4458 8.61792 10.443C8.62072 10.4402 8.62351 10.4374 8.6263 10.4346C8.62908 10.4318 8.63185 10.429 8.63462 10.4263C8.63738 10.4235 8.64014 10.4208 8.64289 10.418C8.64564 10.4153 8.64838 10.4125 8.65111 10.4098C8.65384 10.4071 8.65656 10.4043 8.65928 10.4016C8.66199 10.3989 8.6647 10.3962 8.66739 10.3935C8.67009 10.3908 8.67278 10.3881 8.67546 10.3854C8.67814 10.3828 8.68081 10.3801 8.68348 10.3774C8.68614 10.3748 8.6888 10.3721 8.69144 10.3695C8.69409 10.3668 8.69673 10.3642 8.69936 10.3615C8.70199 10.3589 8.70461 10.3563 8.70723 10.3537C8.70984 10.3511 8.71244 10.3485 8.71504 10.3459C8.71764 10.3433 8.72023 10.3407 8.72281 10.3381C8.72539 10.3355 8.72796 10.3329 8.73053 10.3304C8.73309 10.3278 8.73565 10.3253 8.73819 10.3227C8.74074 10.3202 8.74328 10.3176 8.74581 10.3151C8.74834 10.3126 8.75087 10.31 8.75338 10.3075C8.7559 10.305 8.7584 10.3025 8.7609 10.3C8.7634 10.2975 8.76589 10.295 8.76838 10.2925C8.77086 10.29 8.77333 10.2876 8.7758 10.2851C8.77827 10.2826 8.78072 10.2802 8.78318 10.2777C8.78563 10.2753 8.78807 10.2728 8.7905 10.2704C8.79294 10.268 8.79536 10.2655 8.79778 10.2631C8.8002 10.2607 8.80261 10.2583 8.80501 10.2559C8.80742 10.2535 8.80981 10.2511 8.8122 10.2487C8.81458 10.2463 8.81696 10.2439 8.81933 10.2416C8.8217 10.2392 8.82407 10.2368 8.82642 10.2345C8.82878 10.2321 8.83112 10.2298 8.83346 10.2274C8.8358 10.2251 8.83813 10.2228 8.84046 10.2204C8.84278 10.2181 8.8451 10.2158 8.8474 10.2135C8.84971 10.2112 8.85201 10.2089 8.8543 10.2066C8.8566 10.2043 8.85888 10.202 8.86116 10.1997C8.86344 10.1975 8.8657 10.1952 8.86797 10.1929C8.87023 10.1907 8.87248 10.1884 8.87473 10.1862C8.87697 10.1839 8.87921 10.1817 8.88144 10.1795C8.88367 10.1772 8.8859 10.175 8.88811 10.1728C8.89033 10.1706 8.89253 10.1684 8.89473 10.1662C8.89693 10.164 8.89913 10.1618 8.90131 10.1596C8.9035 10.1574 8.90567 10.1552 8.90784 10.1531C8.91001 10.1509 8.91218 10.1487 8.91433 10.1466C8.91648 10.1444 8.91863 10.1423 8.92077 10.1401C8.92291 10.138 8.92504 10.1359 8.92717 10.1337C8.92929 10.1316 8.93141 10.1295 8.93352 10.1274C8.93563 10.1253 8.93773 10.1232 8.93983 10.1211C8.94192 10.119 8.94401 10.1169 8.94609 10.1148C8.94817 10.1127 8.95024 10.1107 8.95231 10.1086C8.95437 10.1065 8.95643 10.1045 8.95848 10.1024C8.96053 10.1004 8.96257 10.0983 8.96461 10.0963C8.96664 10.0943 8.96867 10.0922 8.97069 10.0902C8.97272 10.0882 8.97473 10.0862 8.97674 10.0842C8.97874 10.0822 8.98074 10.0802 8.98273 10.0782C8.98473 10.0762 8.98671 10.0742 8.98869 10.0722C8.99067 10.0702 8.99264 10.0683 8.9946 10.0663C8.99656 10.0643 8.99852 10.0624 9.00047 10.0604C9.00242 10.0585 9.00436 10.0565 9.00629 10.0546C9.00823 10.0527 9.01015 10.0507 9.01208 10.0488C9.014 10.0469 9.01591 10.045 9.01781 10.0431C9.01972 10.0412 9.02162 10.0393 9.02351 10.0374C9.0254 10.0355 9.02729 10.0336 9.02917 10.0317C9.03104 10.0299 9.03292 10.028 9.03478 10.0261C9.03664 10.0243 9.0385 10.0224 9.04035 10.0205C9.0422 10.0187 9.04404 10.0169 9.04588 10.015C9.04771 10.0132 9.04954 10.0114 9.05137 10.0095C9.05319 10.0077 9.055 10.0059 9.05681 10.0041C9.05862 10.0023 9.06042 10.0005 9.06221 9.99868C9.06401 9.99689 9.0658 9.9951 9.06758 9.99332C9.06936 9.99154 9.07113 9.98977 9.0729 9.988C9.07467 9.98623 9.07643 9.98447 9.07818 9.98272C9.07993 9.98097 9.08168 9.97922 9.08342 9.97748C9.08516 9.97574 9.08689 9.97401 9.08862 9.97228C9.09034 9.97055 9.09206 9.96883 9.09378 9.96712C9.09549 9.96541 9.0972 9.9637 9.0989 9.962C9.1006 9.9603 9.10229 9.95861 9.10397 9.95693C9.10566 9.95524 9.10734 9.95356 9.10901 9.95189C9.11069 9.95021 9.11235 9.94855 9.11401 9.94689C9.11567 9.94523 9.11732 9.94358 9.11897 9.94193C9.12062 9.94028 9.12226 9.93864 9.12389 9.93701C9.12552 9.93538 9.12715 9.93375 9.12877 9.93213C9.13039 9.93051 9.132 9.9289 9.13361 9.92729C9.13522 9.92568 9.13682 9.92408 9.13841 9.92249C9.14001 9.92089 9.14159 9.91931 9.14317 9.91772C9.14476 9.91614 9.14633 9.91457 9.1479 9.913C9.14947 9.91143 9.15103 9.90987 9.15258 9.90831C9.15414 9.90676 9.15569 9.90521 9.15723 9.90367C9.15877 9.90212 9.16031 9.90059 9.16184 9.89906C9.16337 9.89753 9.16489 9.89601 9.16641 9.89449C9.16793 9.89297 9.16944 9.89146 9.17094 9.88995C9.17245 9.88845 9.17395 9.88695 9.17544 9.88546C9.17693 9.88397 9.17842 9.88248 9.1799 9.881C9.18138 9.87952 9.18285 9.87805 9.18432 9.87658C9.18578 9.87512 9.18725 9.87365 9.1887 9.8722C9.19015 9.87074 9.1916 9.8693 9.19305 9.86785C9.19449 9.86641 9.19592 9.86498 9.19735 9.86354C9.19878 9.86211 9.20021 9.86069 9.20163 9.85927C9.20304 9.85786 9.20446 9.85644 9.20586 9.85504C9.20727 9.85363 9.20867 9.85223 9.21006 9.85084C9.21145 9.84945 9.21284 9.84806 9.21422 9.84668C9.2156 9.8453 9.21698 9.84392 9.21835 9.84255C9.21972 9.84118 9.22108 9.83982 9.22244 9.83846C9.2238 9.8371 9.22515 9.83575 9.22649 9.83441C9.22784 9.83306 9.22918 9.83172 9.23051 9.83039C9.23184 9.82905 9.23317 9.82773 9.23449 9.82641C9.23582 9.82508 9.23713 9.82377 9.23844 9.82246C9.23975 9.82115 9.24106 9.81984 9.24235 9.81855C9.24365 9.81725 9.24494 9.81596 9.24623 9.81467C9.24752 9.81338 9.2488 9.8121 9.25007 9.81083C9.25135 9.80955 9.25262 9.80828 9.25388 9.80702C9.25514 9.80576 9.2564 9.8045 9.25765 9.80325C9.25891 9.80199 9.26015 9.80075 9.26139 9.79951C9.26263 9.79827 9.26387 9.79703 9.2651 9.7958C9.26632 9.79457 9.26755 9.79335 9.26877 9.79213C9.26998 9.79092 9.2712 9.7897 9.2724 9.7885C9.27361 9.78729 9.27481 9.78609 9.276 9.7849C9.2772 9.7837 9.27839 9.78251 9.27957 9.78133C9.28076 9.78014 9.28193 9.77896 9.28311 9.77779C9.28428 9.77662 9.28545 9.77545 9.28661 9.77429C9.28777 9.77313 9.28893 9.77197 9.29008 9.77082C9.29123 9.76967 9.29237 9.76853 9.29351 9.76739C9.29465 9.76625 9.29579 9.76511 9.29692 9.76398C9.29804 9.76286 9.29917 9.76173 9.30029 9.76061C9.3014 9.7595 9.30252 9.75838 9.30362 9.75728C9.30473 9.75617 9.30583 9.75507 9.30693 9.75397C9.30802 9.75288 9.30911 9.75178 9.3102 9.7507C9.31129 9.74961 9.31237 9.74853 9.31344 9.74746C9.31452 9.74638 9.31559 9.74531 9.31665 9.74425C9.31771 9.74319 9.31877 9.74213 9.31983 9.74107C9.32088 9.74002 9.32193 9.73897 9.32297 9.73793C9.32401 9.73688 9.32505 9.73585 9.32609 9.73481C9.32712 9.73378 9.32815 9.73275 9.32917 9.73173C9.33019 9.73071 9.33121 9.72969 9.33222 9.72868C9.33323 9.72767 9.33424 9.72666 9.33524 9.72566C9.33624 9.72466 9.33724 9.72366 9.33823 9.72267C9.33922 9.72168 9.34021 9.72069 9.34119 9.71971C9.34217 9.71873 9.34315 9.71775 9.34412 9.71678C9.34509 9.71581 9.34605 9.71485 9.34701 9.71389C9.34798 9.71292 9.34893 9.71197 9.34988 9.71102C9.35083 9.71007 9.35178 9.70912 9.35272 9.70818C9.35366 9.70724 9.3546 9.7063 9.35553 9.70537C9.35646 9.70444 9.35739 9.70351 9.35831 9.70259C9.35923 9.70167 9.36014 9.70076 9.36105 9.69984C9.36197 9.69893 9.36287 9.69803 9.36377 9.69713C9.36468 9.69622 9.36557 9.69533 9.36646 9.69444C9.36736 9.69354 9.36824 9.69266 9.36913 9.69177C9.37001 9.69089 9.37088 9.69001 9.37176 9.68914C9.37263 9.68827 9.3735 9.6874 9.37436 9.68654C9.37522 9.68568 9.37608 9.68482 9.37694 9.68396C9.37779 9.68311 9.37864 9.68226 9.37948 9.68142C9.38033 9.68057 9.38116 9.67973 9.382 9.6789C9.38283 9.67807 9.38366 9.67724 9.38449 9.67641C9.38531 9.67559 9.38613 9.67476 9.38695 9.67395C9.38777 9.67313 9.38858 9.67232 9.38938 9.67151C9.39019 9.67071 9.39099 9.66991 9.39179 9.66911C9.39259 9.66831 9.39338 9.66752 9.39417 9.66673C9.39496 9.66594 9.39574 9.66516 9.39652 9.66438C9.3973 9.6636 9.39808 9.66282 9.39885 9.66205C9.39962 9.66128 9.40038 9.66052 9.40114 9.65976C9.4019 9.65899 9.40266 9.65824 9.40341 9.65749C9.40417 9.65673 9.40491 9.65599 9.40566 9.65524C9.4064 9.6545 9.40714 9.65376 9.40787 9.65302C9.40861 9.65229 9.40934 9.65156 9.41007 9.65083C9.41079 9.65011 9.41151 9.64939 9.41223 9.64867C9.41295 9.64795 9.41366 9.64724 9.41437 9.64653C9.41508 9.64582 9.41578 9.64512 9.41648 9.64442C9.41718 9.64372 9.41788 9.64302 9.41857 9.64233C9.41926 9.64164 9.41995 9.64095 9.42063 9.64027C9.42131 9.63959 9.42199 9.63891 9.42266 9.63823C9.42334 9.63756 9.42401 9.63689 9.42468 9.63622C9.42534 9.63556 9.426 9.6349 9.42666 9.63424C9.42732 9.63358 9.42797 9.63293 9.42862 9.63228C9.42927 9.63163 9.42992 9.63098 9.43056 9.63034C9.4312 9.6297 9.43183 9.62907 9.43247 9.62843C9.4331 9.6278 9.43373 9.62717 9.43435 9.62655C9.43498 9.62592 9.4356 9.6253 9.43622 9.62468C9.43683 9.62407 9.43744 9.62345 9.43805 9.62285C9.43866 9.62224 9.43927 9.62163 9.43987 9.62103C9.44047 9.62043 9.44106 9.61984 9.44166 9.61924C9.44225 9.61865 9.44284 9.61806 9.44342 9.61748C9.44401 9.61689 9.44459 9.61631 9.44517 9.61573C9.44574 9.61516 9.44632 9.61458 9.44689 9.61401C9.44745 9.61345 9.44802 9.61288 9.44858 9.61232C9.44914 9.61176 9.4497 9.6112 9.45025 9.61065C9.45081 9.61009 9.45136 9.60954 9.4519 9.609C9.45245 9.60845 9.45299 9.60791 9.45353 9.60737C9.45407 9.60683 9.45461 9.60629 9.45514 9.60576C9.45567 9.60523 9.45619 9.6047 9.45672 9.60418C9.45724 9.60366 9.45776 9.60314 9.45828 9.60262C9.45879 9.6021 9.45931 9.60159 9.45982 9.60108C9.46033 9.60057 9.46083 9.60007 9.46133 9.59957C9.46183 9.59907 9.46233 9.59857 9.46283 9.59807C9.46332 9.59758 9.46381 9.59709 9.4643 9.5966C9.46479 9.59611 9.46527 9.59563 9.46575 9.59515C9.46623 9.59467 9.46671 9.59419 9.46718 9.59372C9.46765 9.59325 9.46812 9.59278 9.46859 9.59231C9.46905 9.59185 9.46952 9.59138 9.46998 9.59092C9.47043 9.59047 9.47089 9.59001 9.47134 9.58956C9.47179 9.58911 9.47224 9.58866 9.47269 9.58821C9.47313 9.58777 9.47357 9.58732 9.47401 9.58689C9.47445 9.58645 9.47489 9.58601 9.47532 9.58558C9.47575 9.58515 9.47618 9.58472 9.4766 9.5843C9.47703 9.58387 9.47745 9.58345 9.47787 9.58303C9.47829 9.58261 9.4787 9.5822 9.47911 9.58179C9.47952 9.58138 9.47993 9.58097 9.48034 9.58056C9.48074 9.58016 9.48114 9.57976 9.48154 9.57936C9.48194 9.57896 9.48234 9.57856 9.48273 9.57817C9.48312 9.57778 9.48351 9.57739 9.48389 9.577C9.48428 9.57662 9.48466 9.57624 9.48504 9.57586C9.48542 9.57548 9.4858 9.5751 9.48617 9.57473C9.48654 9.57436 9.48691 9.57399 9.48728 9.57362C9.48765 9.57325 9.48801 9.57289 9.48837 9.57253C9.48873 9.57217 9.48909 9.57181 9.48944 9.57146C9.4898 9.5711 9.49015 9.57075 9.4905 9.5704C9.49085 9.57005 9.49119 9.56971 9.49153 9.56937C9.49188 9.56902 9.49222 9.56868 9.49255 9.56835C9.49289 9.56801 9.49322 9.56768 9.49355 9.56735C9.49388 9.56702 9.49421 9.56669 9.49453 9.56636C9.49486 9.56604 9.49518 9.56572 9.4955 9.5654C9.49582 9.56508 9.49613 9.56477 9.49645 9.56445C9.49676 9.56414 9.49707 9.56383 9.49738 9.56352C9.49768 9.56321 9.49799 9.56291 9.49829 9.56261C9.49859 9.56231 9.49889 9.56201 9.49919 9.56171C9.49948 9.56142 9.49978 9.56112 9.50007 9.56083C9.50036 9.56054 9.50064 9.56025 9.50093 9.55997C9.50121 9.55969 9.5015 9.5594 9.50178 9.55912C9.50206 9.55884 9.50233 9.55857 9.50261 9.55829C9.50288 9.55802 9.50315 9.55775 9.50342 9.55748C9.50369 9.55721 9.50396 9.55694 9.50422 9.55668C9.50448 9.55642 9.50474 9.55616 9.505 9.5559C9.50526 9.55564 9.50551 9.55538 9.50577 9.55513C9.50602 9.55488 9.50627 9.55463 9.50652 9.55438C9.50677 9.55413 9.50701 9.55389 9.50725 9.55364C9.5075 9.5534 9.50774 9.55316 9.50798 9.55292C9.50821 9.55269 9.50845 9.55245 9.50868 9.55222C9.50891 9.55199 9.50914 9.55175 9.50937 9.55153C9.5096 9.5513 9.50983 9.55107 9.51005 9.55085C9.51027 9.55063 9.51049 9.55041 9.51071 9.55019C9.51093 9.54997 9.51114 9.54976 9.51136 9.54954C9.51157 9.54933 9.51178 9.54912 9.51199 9.54891C9.5122 9.5487 9.51241 9.54849 9.51261 9.54829C9.51281 9.54809 9.51301 9.54788 9.51321 9.54769C9.51341 9.54749 9.51361 9.54729 9.51381 9.54709C9.514 9.5469 9.51419 9.54671 9.51438 9.54652C9.51457 9.54633 9.51476 9.54614 9.51495 9.54595C9.51513 9.54577 9.51532 9.54558 9.5155 9.5454C9.51568 9.54522 9.51586 9.54504 9.51604 9.54486C9.51621 9.54469 9.51639 9.54451 9.51656 9.54434C9.51673 9.54417 9.5169 9.54399 9.51707 9.54383C9.51724 9.54366 9.51741 9.54349 9.51757 9.54333C9.51774 9.54316 9.5179 9.543 9.51806 9.54284C9.51822 9.54268 9.51838 9.54252 9.51853 9.54237C9.51869 9.54221 9.51884 9.54205 9.519 9.5419C9.51915 9.54175 9.5193 9.5416 9.51945 9.54145C9.5196 9.5413 9.51974 9.54116 9.51989 9.54101C9.52003 9.54087 9.52017 9.54073 9.52031 9.54059C9.52045 9.54045 9.52059 9.54031 9.52073 9.54017C9.52086 9.54003 9.521 9.5399 9.52113 9.53977C9.52127 9.53963 9.5214 9.5395 9.52153 9.53937C9.52165 9.53925 9.52178 9.53912 9.52191 9.53899C9.52203 9.53887 9.52216 9.53874 9.52228 9.53862C9.5224 9.5385 9.52252 9.53838 9.52264 9.53826C9.52276 9.53814 9.52287 9.53803 9.52299 9.53791C9.5231 9.5378 9.52322 9.53768 9.52333 9.53757C9.52344 9.53746 9.52355 9.53735 9.52366 9.53724C9.52376 9.53714 9.52387 9.53703 9.52397 9.53693C9.52408 9.53682 9.52418 9.53672 9.52428 9.53662C9.52438 9.53652 9.52448 9.53642 9.52458 9.53632C9.52468 9.53622 9.52478 9.53612 9.52487 9.53603C9.52497 9.53593 9.52506 9.53584 9.52515 9.53575C9.52524 9.53566 9.52533 9.53557 9.52542 9.53548C9.52551 9.53539 9.5256 9.5353 9.52568 9.53522C9.52577 9.53513 9.52585 9.53505 9.52593 9.53497C9.52602 9.53488 9.5261 9.5348 9.52618 9.53472C9.52626 9.53464 9.52634 9.53456 9.52641 9.53449C9.52649 9.53441 9.52656 9.53433 9.52664 9.53426C9.52671 9.53419 9.52679 9.53411 9.52686 9.53404C9.52693 9.53397 9.527 9.5339 9.52707 9.53383C9.52713 9.53376 9.5272 9.5337 9.52727 9.53363C9.52733 9.53357 9.5274 9.5335 9.52746 9.53344C9.52752 9.53337 9.52759 9.53331 9.52765 9.53325C9.52771 9.53319 9.52777 9.53313 9.52783 9.53307C9.52788 9.53302 9.52794 9.53296 9.528 9.5329C9.52805 9.53285 9.52811 9.53279 9.52816 9.53274C9.52821 9.53269 9.52827 9.53263 9.52832 9.53258C9.52837 9.53253 9.52842 9.53248 9.52847 9.53243C9.52851 9.53238 9.52856 9.53234 9.52861 9.53229C9.52866 9.53224 9.5287 9.5322 9.52875 9.53215C9.52879 9.53211 9.52883 9.53207 9.52887 9.53202C9.52892 9.53198 9.52896 9.53194 9.529 9.5319C9.52904 9.53186 9.52908 9.53182 9.52911 9.53178C9.52915 9.53175 9.52919 9.53171 9.52923 9.53167C9.52926 9.53164 9.5293 9.5316 9.52933 9.53157C9.52937 9.53153 9.5294 9.5315 9.52943 9.53147C9.52946 9.53144 9.52949 9.5314 9.52952 9.53137C9.52956 9.53134 9.52958 9.53131 9.52961 9.53129C9.52964 9.53126 9.52967 9.53123 9.5297 9.5312C9.52972 9.53118 9.52975 9.53115 9.52978 9.53112C9.5298 9.5311 9.52983 9.53107 9.52985 9.53105C9.52987 9.53103 9.5299 9.531 9.52992 9.53098C9.52994 9.53096 9.52996 9.53094 9.52998 9.53092C9.53 9.5309 9.53002 9.53088 9.53004 9.53086C9.53006 9.53084 9.53008 9.53082 9.5301 9.5308C9.53012 9.53078 9.53013 9.53077 9.53015 9.53075C9.53017 9.53073 9.53018 9.53072 9.5302 9.5307C9.53021 9.53069 9.53023 9.53067 9.53024 9.53066C9.53025 9.53065 9.53027 9.53063 9.53028 9.53062C9.53029 9.53061 9.5303 9.53059 9.53032 9.53058C9.53033 9.53057 9.53034 9.53056 9.53035 9.53055C9.53036 9.53054 9.53037 9.53053 9.53038 9.53052C9.53039 9.53051 9.5304 9.5305 9.53041 9.53049C9.53042 9.53048 9.53042 9.53048 9.53043 9.53047C9.53044 9.53046 9.53045 9.53045 9.53045 9.53045C9.53046 9.53044 9.53047 9.53043 9.53047 9.53043C9.53048 9.53042 9.53048 9.53042 9.53049 9.53041C9.53049 9.53041 9.5305 9.5304 9.5305 9.5304C9.53051 9.53039 9.53051 9.53039 9.53051 9.53038C9.53052 9.53038 9.53052 9.53038 9.53053 9.53037C9.53053 9.53037 9.53053 9.53037 9.53053 9.53037C9.53054 9.53036 9.53054 9.53036 9.53054 9.53036C9.53054 9.53036 9.53055 9.53035 9.53055 9.53035C9.53055 9.53035 9.53055 9.53035 9.53055 9.53035C9.53055 9.53035 9.53055 9.53035 9.53055 9.53034C9.53056 9.53034 9.53056 9.53034 9.53056 9.53034C9.53056 9.53034 9.53056 9.53034 9.53056 9.53034C9.53056 9.53034 9.53056 9.53034 9.53056 9.53034C9.53056 9.53034 9.53056 9.53034 9.53056 9.53034C9.53056 9.53034 9.53056 9.53034 9.53056 9.53034L9.00023 9.00001ZM9.53056 9.53034L13.0661 5.99481L12.0054 4.93414L8.4699 8.46968L9.53056 9.53034Z" fill="current"/>
</svg>
