<svg width="48" height="49" viewBox="0 0 48 49" fill="none" xmlns="http://www.w3.org/2000/svg">
<g id="github">
<path id="Vector" d="M24 4.58496C13.032 4.58496 4 13.489 4 24.585C4 33.359 9.742 40.845 17.742 43.553C18.774 43.747 19.096 43.101 19.096 42.649C19.096 42.197 19.096 40.909 19.032 39.165C13.484 40.455 12.322 36.455 12.322 36.455C11.42 34.197 10.064 33.553 10.064 33.553C8.258 32.263 10.13 32.263 10.13 32.263C12.13 32.327 13.226 34.327 13.226 34.327C14.966 37.423 17.936 36.521 19.032 35.939C19.226 34.649 19.742 33.747 20.322 33.231C15.936 32.779 11.226 31.037 11.226 23.423C11.226 21.231 12.066 19.489 13.29 18.133C13.096 17.681 12.388 15.617 13.484 12.843C13.484 12.843 15.224 12.327 19.032 14.907C20.669 14.4412 22.3621 14.2023 24.064 14.197C25.806 14.197 27.548 14.391 29.096 14.907C32.904 12.391 34.58 12.843 34.58 12.843C35.678 15.553 35.032 17.683 34.774 18.133C36.064 19.489 36.838 21.293 36.838 23.423C36.838 31.037 32.128 32.779 27.742 33.231C28.452 33.875 29.096 35.165 29.096 36.971C29.096 39.681 29.032 41.811 29.032 42.455C29.032 42.973 29.42 43.553 30.388 43.359C38.258 40.715 44 33.295 44 24.457C43.936 13.489 34.968 4.58496 24 4.58496Z" fill="black"/>
</g>
</svg>
