<svg width="146" height="25" viewBox="0 0 146 25" fill="none" xmlns="http://www.w3.org/2000/svg">
<g clip-path="url(#clip0_2635_218)">
<path d="M12.0009 24.4999C11.373 24.4993 10.7573 24.3264 10.2209 23.9999L2.71094 19.7079C2.21055 19.4052 1.79672 18.9785 1.50943 18.4691C1.22214 17.9597 1.07111 17.3848 1.07094 16.7999V8.22994C1.07094 6.97694 1.70694 5.85994 2.83094 5.21994L10.2509 0.978942C10.7802 0.665646 11.384 0.500435 11.9991 0.50061C12.6141 0.500786 13.2178 0.666343 13.7469 0.979942L21.1669 5.21794C21.7051 5.51377 22.1531 5.94982 22.4633 6.47979C22.7735 7.00977 22.9344 7.61387 22.9289 8.22794V16.8099C22.9289 17.7769 22.4859 18.9739 21.2919 19.7079L13.7819 23.9999C13.2179 24.3439 12.5829 24.4999 11.9999 24.4999H12.0009ZM11.5009 3.15294L3.95594 7.46294C3.83408 7.5493 3.73564 7.66463 3.66947 7.79853C3.60331 7.93243 3.57151 8.08069 3.57694 8.22994L3.57794 16.8999C3.59525 17.0251 3.63712 17.1457 3.70113 17.2546C3.76513 17.3636 3.85003 17.4589 3.95094 17.5349L11.5109 21.8509C11.7769 22.0229 12.1749 22.0609 12.4959 21.8509L20.0139 17.5549C20.1256 17.4821 20.2201 17.3859 20.2908 17.273C20.3616 17.1601 20.4071 17.0331 20.4239 16.9009V8.22994C20.4277 8.0813 20.3953 7.93397 20.3297 7.80056C20.264 7.66716 20.167 7.55165 20.0469 7.46394L12.5009 3.15194C12.3524 3.05445 12.1785 3.00259 12.0008 3.00277C11.8231 3.00295 11.6493 3.05515 11.5009 3.15294Z" fill="#0B0B0B"/>
<path fill-rule="evenodd" clip-rule="evenodd" d="M11.2952 14.5891L2.79518 9.08911L4.2047 6.91077L12.7047 12.4108C13.3062 12.8 13.4783 13.6032 13.0891 14.2047C12.6999 14.8062 11.8967 14.9783 11.2952 14.5891Z" fill="#0B0B0B"/>
</g>
<path d="M132.334 23.3005V23.7217H132.755H140.365C143.129 23.7217 145.352 21.4603 145.352 18.6719V15.2776C145.352 14.1213 144.947 13.054 144.313 12.196C144.949 11.3565 145.352 10.2857 145.352 9.10603V6.32884C145.352 3.54049 143.129 1.27901 140.365 1.27901H132.755H132.334V1.7002V23.3005ZM136.22 19.7936V14.1559H140.365C140.979 14.1559 141.466 14.6407 141.466 15.2776V18.6719C141.466 19.3087 140.979 19.7936 140.365 19.7936H136.22ZM140.365 10.2277H136.22V5.20715H140.365C140.979 5.20715 141.466 5.692 141.466 6.32884V9.10603C141.466 9.74287 140.979 10.2277 140.365 10.2277Z" fill="#0B0B0B" stroke="#0B0B0B" stroke-width="0.842373"/>
<path d="M126.234 1.27901H125.813V1.7002V18.6719C125.813 19.3087 125.326 19.7936 124.712 19.7936H121.668C121.054 19.7936 120.567 19.3087 120.567 18.6719V1.7002V1.27901H120.146H117.102H116.681V1.7002V18.6719C116.681 21.4603 118.904 23.7217 121.668 23.7217H124.712C127.476 23.7217 129.699 21.4603 129.699 18.6719V1.7002V1.27901H129.278H126.234Z" fill="#0B0B0B" stroke="#0B0B0B" stroke-width="0.842373"/>
<path d="M110.16 23.3005V23.7217H110.581H113.625H114.046V23.3005V1.7002V1.27901H113.625H110.581H110.16V1.7002V10.5363H104.914V1.7002V1.27901H104.493H101.449H101.028V1.7002V23.3005V23.7217H101.449H104.493H104.914V23.3005V14.4644H110.16V23.3005Z" fill="#0B0B0B" stroke="#0B0B0B" stroke-width="0.842373"/>
<path d="M80.4115 23.7217H80.8327V23.3005V6.32884C80.8327 5.692 81.3192 5.20715 81.9335 5.20715H84.9774C85.5916 5.20715 86.0781 5.692 86.0781 6.32884V23.3005V23.7217H86.4993H89.5432H89.9644V23.3005V6.32884C89.9644 3.54049 87.7418 1.27901 84.9774 1.27901H81.9335C79.169 1.27901 76.9464 3.54049 76.9464 6.32884V23.3005V23.7217H77.3676H80.4115Z" fill="#0B0B0B" stroke="#0B0B0B" stroke-width="0.842373"/>
<path d="M73.8902 23.7217H74.3114V23.3005V6.32884C74.3114 3.54049 72.0888 1.27901 69.3244 1.27901H66.2805C63.516 1.27901 61.2934 3.54049 61.2934 6.32884V23.3005V23.7217H61.7146H64.7585H65.1797V23.3005V14.4644H70.4251V23.3005V23.7217H70.8463H73.8902ZM66.2805 5.20715H69.3244C69.9386 5.20715 70.4251 5.692 70.4251 6.32884V10.5363H65.1797V6.32884C65.1797 5.692 65.6662 5.20715 66.2805 5.20715Z" fill="#0B0B0B" stroke="#0B0B0B" stroke-width="0.842373"/>
<path d="M45.6404 23.3005V23.7217H46.0616H58.2372H58.6584V23.3005V20.2148V19.7936H58.2372H49.5267V1.7002V1.27901H49.1055H46.0616H45.6404V1.7002V23.3005Z" fill="#0B0B0B" stroke="#0B0B0B" stroke-width="0.842373"/>
<path d="M32.2482 23.7217H32.6694V23.3005V14.4644H36.814C39.5785 14.4644 41.8011 12.203 41.8011 9.41461V6.32884C41.8011 3.54049 39.5785 1.27901 36.814 1.27901H29.2043H28.7831V1.7002V23.3005V23.7217H29.2043H32.2482ZM37.9148 6.32884V9.41461C37.9148 10.0514 37.4283 10.5363 36.814 10.5363H32.6694V5.20715H36.814C37.4283 5.20715 37.9148 5.692 37.9148 6.32884Z" fill="#0B0B0B" stroke="#0B0B0B" stroke-width="0.842373"/>
<defs>
<clipPath id="clip0_2635_218">
<rect width="24" height="24" fill="white" transform="translate(-3.05176e-05 0.5)"/>
</clipPath>
</defs>
</svg>
