<svg width="146" height="125" viewBox="0 0 146 125" fill="none" xmlns="http://www.w3.org/2000/svg">
<g clip-path="url(#clip0_2635_220)">
<path d="M72.504 78.1407C70.4596 78.1388 68.455 77.5757 66.7086 76.5128L42.2569 62.5385C40.6277 61.5529 39.2803 60.1636 38.3449 58.505C37.4095 56.8464 36.9178 54.9746 36.9172 53.0704V25.1675C36.9172 21.0879 38.988 17.4511 42.6476 15.3673L66.8062 1.5591C68.5295 0.539046 70.4954 0.00113663 72.498 0.00170944C74.5005 0.00228226 76.4661 0.541316 78.1888 1.56236L102.347 15.3608C104.1 16.324 105.558 17.7437 106.568 19.4692C107.578 21.1948 108.102 23.1616 108.084 25.161V53.103C108.084 56.2514 106.642 60.1487 102.754 62.5385L78.3028 76.5128C76.4664 77.6328 74.399 78.1407 72.5008 78.1407H72.504ZM70.8761 8.63739L46.3105 22.6702C45.9137 22.9514 45.5932 23.3269 45.3778 23.7629C45.1623 24.1988 45.0588 24.6816 45.0765 25.1675L45.0797 53.396C45.1361 53.8036 45.2724 54.1961 45.4808 54.5508C45.6892 54.9056 45.9656 55.2158 46.2942 55.4635L70.9087 69.5159C71.7747 70.0759 73.0706 70.1996 74.1157 69.5159L98.5934 55.5286C98.9569 55.2916 99.2645 54.9784 99.495 54.6107C99.7255 54.2431 99.8734 53.8297 99.9283 53.3993V25.1675C99.9405 24.6835 99.8352 24.2039 99.6214 23.7695C99.4076 23.3351 99.0918 22.9591 98.7009 22.6735L74.132 8.63413C73.6482 8.31671 73.0821 8.14787 72.5036 8.14845C71.925 8.14903 71.3592 8.319 70.8761 8.63739Z" fill="url(#paint0_linear_2635_220)"/>
<path fill-rule="evenodd" clip-rule="evenodd" d="M70.2051 45.8728L42.5301 27.9655L47.1193 20.873L74.7943 38.7804C76.7528 40.0477 77.3132 42.6627 76.0459 44.6212C74.7786 46.5798 72.1636 47.1401 70.2051 45.8728Z" fill="url(#paint1_linear_2635_220)"/>
</g>
<path d="M127.938 123.126V123.865H128.677H138.02C141.542 123.865 144.365 120.975 144.365 117.423V113.242C144.365 111.824 143.889 110.514 143.141 109.447C143.894 108.397 144.365 107.082 144.365 105.639V102.217C144.365 98.6656 141.542 95.7757 138.02 95.7757H128.677H127.938V96.5149V123.126ZM133.153 118.585V112.08H138.02C138.646 112.08 139.149 112.573 139.149 113.242V117.423C139.149 118.091 138.646 118.585 138.02 118.585H133.153ZM138.02 106.8H133.153V101.056H138.02C138.646 101.056 139.149 101.549 139.149 102.217V105.639C139.149 106.307 138.646 106.8 138.02 106.8Z" fill="#0B0B0B" stroke="#0B0B0B" stroke-width="1.47835"/>
<path d="M120.67 95.7757H119.931V96.5149V117.423C119.931 118.091 119.428 118.585 118.801 118.585H115.064C114.438 118.585 113.935 118.091 113.935 117.423V96.5149V95.7757H113.195H109.458H108.719V96.5149V117.423C108.719 120.975 111.542 123.865 115.064 123.865H118.801C122.323 123.865 125.146 120.975 125.146 117.423V96.5149V95.7757H124.407H120.67Z" fill="#0B0B0B" stroke="#0B0B0B" stroke-width="1.47835"/>
<path d="M100.712 123.126V123.865H101.451H105.189H105.928V123.126V96.5149V95.7757H105.189H101.451H100.712V96.5149V107.18H94.7161V96.5149V95.7757H93.9769H90.2397H89.5005V96.5149V123.126V123.865H90.2397H93.9769H94.7161V123.126V112.46H100.712V123.126Z" fill="#0B0B0B" stroke="#0B0B0B" stroke-width="1.47835"/>
<path d="M64.41 123.865H65.1492V123.126V102.217C65.1492 101.549 65.6523 101.056 66.2786 101.056H70.0159C70.6422 101.056 71.1453 101.549 71.1453 102.217V123.126V123.865H71.8845H75.6217H76.3609V123.126V102.217C76.3609 98.6656 73.5379 95.7757 70.0159 95.7757H66.2786C62.7567 95.7757 59.9336 98.6656 59.9336 102.217V123.126V123.865H60.6728H64.41Z" fill="#0B0B0B" stroke="#0B0B0B" stroke-width="1.47835"/>
<path d="M56.4032 123.865H57.1424V123.126V102.217C57.1424 98.6656 54.3193 95.7757 50.7974 95.7757H47.0601C43.5382 95.7757 40.7151 98.6656 40.7151 102.217V123.126V123.865H41.4543H45.1915H45.9307V123.126V112.46H51.9268V123.126V123.865H52.666H56.4032ZM47.0601 101.056H50.7974C51.4237 101.056 51.9268 101.549 51.9268 102.217V107.18H45.9307V102.217C45.9307 101.549 46.4338 101.056 47.0601 101.056Z" fill="#0B0B0B" stroke="#0B0B0B" stroke-width="1.47835"/>
<path d="M21.4965 123.126V123.865H22.2357H37.1847H37.9238V123.126V119.324V118.585H37.1847H26.7121V96.5149V95.7757H25.973H22.2357H21.4965V96.5149V123.126Z" fill="#0B0B0B" stroke="#0B0B0B" stroke-width="1.47835"/>
<path d="M5.27611 123.865H6.01529V123.126V112.46H10.882C14.4039 112.46 17.227 109.57 17.227 106.019V102.217C17.227 98.6656 14.4039 95.7757 10.882 95.7757H1.53888H0.799706V96.5149V123.126V123.865H1.53888H5.27611ZM12.0114 102.217V106.019C12.0114 106.687 11.5083 107.18 10.882 107.18H6.01529V101.056H10.882C11.5083 101.056 12.0114 101.549 12.0114 102.217Z" fill="#0B0B0B" stroke="#0B0B0B" stroke-width="1.47835"/>
<defs>
<linearGradient id="paint0_linear_2635_220" x1="112.533" y1="92.6999" x2="34.7353" y2="90.7316" gradientUnits="userSpaceOnUse">
<stop stop-color="#606065"/>
<stop offset="1"/>
</linearGradient>
<linearGradient id="paint1_linear_2635_220" x1="78.8612" y1="51.3354" x2="41.5089" y2="49.9537" gradientUnits="userSpaceOnUse">
<stop stop-color="#606065"/>
<stop offset="1"/>
</linearGradient>
<clipPath id="clip0_2635_220">
<rect width="78.1412" height="78.1412" fill="white" transform="translate(33.4291)"/>
</clipPath>
</defs>
</svg>
