<svg width="472" height="88" viewBox="0 0 472 88" fill="none" xmlns="http://www.w3.org/2000/svg">
<path d="M44.0003 87.9995C41.6979 87.9973 39.4403 87.3632 37.4736 86.1662L9.93692 70.4288C8.10218 69.3188 6.58479 67.7542 5.5314 65.8864C4.478 64.0186 3.92423 61.9106 3.92358 59.7662V28.3428C3.92358 23.7485 6.25558 19.6528 10.3769 17.3062L37.5836 1.75584C39.5243 0.607084 41.7382 0.00130855 43.9934 0.00195364C46.2486 0.00259872 48.4622 0.609641 50.4023 1.7595L77.6089 17.2988C79.5821 18.3835 81.2247 19.9824 82.3623 21.9256C83.4998 23.8689 84.0898 26.0839 84.0696 28.3355V59.8028C84.0696 63.3485 82.4453 67.7375 78.0673 70.4288L50.5306 86.1662C48.4626 87.4275 46.1343 87.9995 43.9966 87.9995H44.0003ZM42.1669 9.72717L14.5019 25.5305C14.0551 25.8472 13.6942 26.27 13.4516 26.761C13.209 27.2519 13.0923 27.7956 13.1123 28.3428L13.1159 60.1328C13.1794 60.5919 13.3329 61.0338 13.5676 61.4334C13.8023 61.8329 14.1136 62.1822 14.4836 62.4612L42.2036 78.2865C43.1789 78.9172 44.6383 79.0565 45.8153 78.2865L73.3813 62.5345C73.7906 62.2675 74.137 61.9148 74.3966 61.5008C74.6562 61.0867 74.8227 60.6212 74.8846 60.1365V28.3428C74.8983 27.7978 74.7797 27.2576 74.5389 26.7684C74.2982 26.2793 73.9425 25.8558 73.5023 25.5342L45.8336 9.7235C45.2888 9.36603 44.6513 9.17589 43.9997 9.17654C43.3481 9.17719 42.711 9.36861 42.1669 9.72717Z" fill="white"/>
<path d="M430.545 76.3661V77.0712H431.25H454.442C462.529 77.0712 469.062 70.5619 469.062 62.495V52.3229C469.062 48.8366 467.762 45.6233 465.751 43.0832C467.768 40.613 469.062 37.3933 469.062 33.828V25.5054C469.062 17.4385 462.529 10.9292 454.442 10.9292H431.25H430.545V11.6343V76.3661ZM441.232 66.4136V48.4043H454.442C456.652 48.4043 458.375 50.1251 458.375 52.3229V62.495C458.375 64.6928 456.652 66.4136 454.442 66.4136H441.232ZM454.442 37.7466H441.232V21.5868H454.442C456.652 21.5868 458.375 23.3076 458.375 25.5054V33.828C458.375 36.0258 456.652 37.7466 454.442 37.7466Z" fill="white" stroke="white" stroke-width="1.41023"/>
<path d="M411.376 10.9292H410.671V11.6343V62.495C410.671 64.6928 408.948 66.4136 406.738 66.4136H397.461C395.251 66.4136 393.528 64.6928 393.528 62.495V11.6343V10.9292H392.823H383.546H382.841V11.6343V62.495C382.841 70.5619 389.374 77.0712 397.461 77.0712H406.738C414.825 77.0712 421.358 70.5619 421.358 62.495V11.6343V10.9292H420.653H411.376Z" fill="white" stroke="white" stroke-width="1.41023"/>
<path d="M362.967 76.3661V77.0712H363.672H372.948H373.654V76.3661V11.6343V10.9292H372.948H363.672H362.967V11.6343V38.6714H345.824V11.6343V10.9292H345.119H335.842H335.137V11.6343V76.3661V77.0712H335.842H345.119H345.824V76.3661V49.329H362.967V76.3661Z" fill="white" stroke="white" stroke-width="1.41023"/>
<path d="M271.728 77.0712H272.433V76.3661V25.5054C272.433 23.3076 274.156 21.5868 276.366 21.5868H285.643C287.853 21.5868 289.576 23.3076 289.576 25.5054V76.3661V77.0712H290.281H299.557H300.262V76.3661V25.5054C300.262 17.4385 293.729 10.9292 285.643 10.9292H276.366C268.279 10.9292 261.746 17.4385 261.746 25.5054V76.3661V77.0712H262.451H271.728Z" fill="white" stroke="white" stroke-width="1.41023"/>
<path d="M251.854 77.0712H252.559V76.3661V25.5054C252.559 17.4385 246.026 10.9292 237.939 10.9292H228.662C220.575 10.9292 214.042 17.4385 214.042 25.5054V76.3661V77.0712H214.747H224.024H224.729V76.3661V49.329H241.872V76.3661V77.0712H242.577H251.854ZM228.662 21.5868H237.939C240.149 21.5868 241.872 23.3076 241.872 25.5054V38.6714H224.729V25.5054C224.729 23.3076 226.452 21.5868 228.662 21.5868Z" fill="white" stroke="white" stroke-width="1.41023"/>
<path d="M166.338 76.3661V77.0712H167.043H204.149H204.855V76.3661V67.1187V66.4136H204.149H177.025V11.6343V10.9292H176.32H167.043H166.338V11.6343V76.3661Z" fill="white" stroke="white" stroke-width="1.41023"/>
<path d="M124.946 77.0712H125.651V76.3661V49.329H138.861C146.948 49.329 153.481 42.8196 153.481 34.7528V25.5054C153.481 17.4385 146.948 10.9292 138.861 10.9292H115.669H114.964V11.6343V76.3661V77.0712H115.669H124.946ZM142.794 25.5054V34.7528C142.794 36.9505 141.071 38.6714 138.861 38.6714H125.651V21.5868H138.861C141.071 21.5868 142.794 23.3076 142.794 25.5054Z" fill="white" stroke="white" stroke-width="1.41023"/>
</svg>
